#N canvas 153 216 325 293 10;
#X obj 105 132 openpanel;
#X obj 105 105 bng 15 250 50 0 empty empty empty 17 7 0 10 -262144
-1 -1;
#X obj 105 155 prepend set;
#X obj 105 229 outlet;
#X obj 105 185 t b a;
#X obj 105 23 inlet;
#X obj 175 229 outlet;
#X msg 175 202;
#N canvas 472 234 416 201 LEIA-ME 0;
#X text 35 36 -- organic_abs 0.1 - abstrações orgânicas - 2012;
#X text 35 136 - licença GPLv3 - http://www.gnu.org/copyleft/gpl.txt
;
#X text 35 66 - conjunto de abstrações para controle de áudio e vídeo
\, desenvolvido por brunorohde (brunorohde.wordpress.com / brunorohde@gmail.com)
\, membro do Grupo de Pesquisa Poéticas Tecnológicas - IHAC/UFBA;
#X restore 227 23 pd LEIA-ME;
#X connect 0 0 2 0;
#X connect 1 0 0 0;
#X connect 2 0 4 0;
#X connect 4 0 3 0;
#X connect 4 0 7 0;
#X connect 4 1 3 0;
#X connect 4 1 7 0;
#X connect 5 0 1 0;
#X connect 7 0 6 0;
#X coords 0 -1 1 1 25 25 2 100 100;
