#N canvas 98 67 552 617 10;
#X floatatom 145 105 5 0 0 0 - - -;
#X msg 335 272 bang;
#X obj 335 307 until;
#X obj 335 329 f;
#X obj 364 329 + 1;
#X obj 410 331 sel 0;
#X obj 364 372 mod 16;
#X obj 26 269 f 1;
#X obj 130 310 -;
#X obj 242 241 t f b;
#X obj 41 201 expr if ($f1 < $f2 \, $f1 \, $f2 - 1) \; $f2;
#X obj 130 332 max 0;
#X floatatom 106 105 5 0 0 0 - - -;
#X obj 233 416 +;
#X msg 260 467 add2 \$1;
#X msg 184 467 set;
#X msg 233 496 53 54 55 56 57 58 59 60 61 62 63 64 65 66 67 68;
#X obj 130 355 + 1;
#X obj 145 137 t b f b;
#X obj 233 439 t b f;
#X obj 233 548 outlet;
#X obj 106 -14 inlet;
#X obj 106 48 unpack f f;
#X obj 163 68 pipe 50;
#X obj 133 22 delay 60;
#X obj 106 22 l;
#N canvas 472 234 416 201 LEIA-ME 0;
#X text 35 36 -- organic_abs 0.1 - abstrações orgânicas - 2012;
#X text 35 136 - licença GPLv3 - http://www.gnu.org/copyleft/gpl.txt
;
#X text 35 66 - conjunto de abstrações para controle de áudio e vídeo
\, desenvolvido por brunorohde (brunorohde.wordpress.com / brunorohde@gmail.com)
\, membro do Grupo de Pesquisa Poéticas Tecnológicas - IHAC/UFBA;
#X restore 440 13 pd LEIA-ME;
#X connect 0 0 18 0;
#X connect 1 0 2 0;
#X connect 2 0 3 0;
#X connect 3 0 4 0;
#X connect 3 0 13 0;
#X connect 4 0 6 0;
#X connect 5 0 2 1;
#X connect 6 0 3 1;
#X connect 6 0 5 0;
#X connect 7 0 8 1;
#X connect 8 0 11 0;
#X connect 9 0 8 0;
#X connect 9 1 7 0;
#X connect 10 0 7 1;
#X connect 10 1 9 0;
#X connect 11 0 17 0;
#X connect 12 0 10 0;
#X connect 12 0 13 1;
#X connect 13 0 19 0;
#X connect 14 0 16 0;
#X connect 15 0 16 0;
#X connect 16 0 20 0;
#X connect 17 0 6 1;
#X connect 18 0 10 0;
#X connect 18 0 1 0;
#X connect 18 1 10 1;
#X connect 18 2 15 0;
#X connect 19 0 16 0;
#X connect 19 1 14 0;
#X connect 21 0 25 0;
#X connect 21 0 24 0;
#X connect 22 0 12 0;
#X connect 22 1 23 0;
#X connect 23 0 0 0;
#X connect 24 0 25 0;
#X connect 25 0 22 0;
#X coords 0 -1 1 1 83 27 2 100 100;
