#N canvas 667 133 637 486 10;
#X obj 46 438 outlet a v;
#X obj 341 244 hsl 240 15 0 1 0 0 empty empty empty -2 -8 0 10 -191407
-1 -1 0 1;
#X obj 341 259 hsl 240 15 0 1 0 0 empty empty empty -2 -8 0 10 -191407
-1 -1 23900 1;
#X msg 46 347 play;
#X msg 100 347 inicio \$1;
#X msg 170 347 fim \$1;
#X obj 414 332 pack f f;
#X floatatom 303 259 5 0 0 0 - - -;
#X floatatom 303 243 5 0 0 0 - - -;
#X obj 100 323 f 0;
#X obj 170 323 f 0;
#X obj 23 212 bng 15 250 50 0 empty empty empty 17 7 0 10 -262144 -1
-1;
#X obj 338 207 unpack f f;
#X obj 46 136 route bang list;
#X obj 79 82 t b f;
#X msg 234 345 volume \$1;
#X msg 234 366 transparencia \$1;
#X obj 234 398 spigot;
#X obj 267 427 tgl 20 0 empty empty empty 17 7 0 10 -4032 -1 -1 1 1
;
#X obj 106 105 / 127;
#X obj 227 6 inlet;
#X text 270 5 entrada pra nota;
#X obj 398 5 inlet in;
#X obj 468 5 inlet out;
#X obj 279 398 init 1;
#X floatatom 227 76 5 0 0 0 - - -;
#X obj 414 407 prepend;
#X obj 432 308 t b f;
#X obj 414 357 t a b;
#X obj 46 227 t b b b b b;
#X obj 453 382 f \$1;
#X obj 23 244 bng 15 250 50 0 empty empty empty 17 7 0 10 -262144 -1
-1;
#X obj 234 122 t f;
#X obj 398 55 t f;
#X obj 468 85 t f;
#X obj 414 438 outlet i/o save;
#X obj 338 186 init list 0 1;
#X obj 338 72 t f;
#X obj 338 102 t f;
#X obj 474 357 r \$0-nota;
#X obj 227 29 s \$0-nota;
#N canvas 147 211 367 273 entrada 0;
#X obj 66 229 outlet;
#X obj 126 112 r \$0-nota;
#X obj 30 22 notein;
#X obj 30 56 stripnote;
#X obj 99 139 == \$1;
#X obj 66 170 spigot;
#X obj 36 111 f;
#X obj 66 111 f;
#X obj 30 82 t b b f;
#X text 115 170 só passa dados da nota midi atribuída;
#X connect 1 0 4 1;
#X connect 2 0 3 0;
#X connect 2 1 3 1;
#X connect 3 0 8 0;
#X connect 3 1 7 1;
#X connect 4 0 5 1;
#X connect 5 0 0 0;
#X connect 6 0 4 0;
#X connect 7 0 5 0;
#X connect 8 0 7 0;
#X connect 8 1 6 0;
#X connect 8 2 6 1;
#X restore 79 41 pd entrada MIDI;
#N canvas 129 66 402 248 filtra_lista 0;
#X obj 47 29 inlet;
#X obj 85 193 outlet;
#X obj 85 152 spigot;
#X obj 47 87 list split 1;
#X obj 118 131 == \$1;
#X obj 85 131 list;
#X obj 47 114 t b f;
#X obj 145 106 r \$0-nota;
#X text 69 57 deixa passar apenas dados dessa nota da lista salva;
#X connect 0 0 3 0;
#X connect 2 0 1 0;
#X connect 3 0 6 0;
#X connect 3 1 5 1;
#X connect 4 0 2 1;
#X connect 5 0 2 0;
#X connect 6 0 5 0;
#X connect 6 1 4 0;
#X connect 7 0 4 1;
#X restore 338 153 pd filtra_lista;
#X text 197 450 volume/transparencia on/off;
#X obj 227 50 init \$1;
#X text 162 75 NOTA MIDI;
#X obj 46 6 inlet play e lista_mod;
#N canvas 472 234 416 201 LEIA-ME 0;
#X text 35 36 -- organic_abs 0.1 - abstrações orgânicas - 2012;
#X text 35 136 - licença GPLv3 - http://www.gnu.org/copyleft/gpl.txt
;
#X text 35 66 - conjunto de abstrações para controle de áudio e vídeo
\, desenvolvido por brunorohde (brunorohde.wordpress.com / brunorohde@gmail.com)
\, membro do Grupo de Pesquisa Poéticas Tecnológicas - IHAC/UFBA;
#X restore 552 51 pd LEIA-ME;
#X connect 1 0 6 0;
#X connect 1 0 8 0;
#X connect 1 0 9 1;
#X connect 2 0 7 0;
#X connect 2 0 10 1;
#X connect 2 0 27 0;
#X connect 3 0 0 0;
#X connect 4 0 0 0;
#X connect 5 0 0 0;
#X connect 6 0 28 0;
#X connect 9 0 4 0;
#X connect 10 0 5 0;
#X connect 11 0 29 0;
#X connect 12 0 1 0;
#X connect 12 1 2 0;
#X connect 13 0 29 0;
#X connect 13 1 42 0;
#X connect 14 0 13 0;
#X connect 14 1 19 0;
#X connect 15 0 17 0;
#X connect 16 0 17 0;
#X connect 17 0 0 0;
#X connect 18 0 17 1;
#X connect 19 0 32 0;
#X connect 20 0 25 0;
#X connect 20 0 40 0;
#X connect 22 0 33 0;
#X connect 23 0 34 0;
#X connect 24 0 18 0;
#X connect 26 0 35 0;
#X connect 27 0 6 0;
#X connect 27 1 6 1;
#X connect 28 0 26 0;
#X connect 28 1 30 0;
#X connect 29 0 3 0;
#X connect 29 0 31 0;
#X connect 29 1 9 0;
#X connect 29 2 10 0;
#X connect 29 3 2 0;
#X connect 29 4 1 0;
#X connect 30 0 26 1;
#X connect 32 0 15 0;
#X connect 32 0 16 0;
#X connect 33 0 37 0;
#X connect 34 0 38 0;
#X connect 36 0 12 0;
#X connect 37 0 1 0;
#X connect 38 0 2 0;
#X connect 39 0 30 1;
#X connect 41 0 14 0;
#X connect 42 0 12 0;
#X connect 44 0 25 0;
#X connect 46 0 13 0;
