#N canvas 10 54 1397 393 10;
#X obj 80 50 cnv 15 250 48 empty empty empty 20 12 0 14 -261682 -66577
0;
#X obj 1079 182 inlet~ MASTER_LEFT;
#X obj 1201 182 inlet~ MASTER_RIGHT;
#X obj 109 182 inlet~ 1_R;
#X obj 209 182 inlet~ 2_L;
#X obj 279 182 inlet~ 2_R;
#X obj 379 182 inlet~ 3_L;
#X obj 449 182 inlet~ 3_R;
#X obj 549 182 inlet~ 4_L;
#X obj 619 182 inlet~ 4_R;
#X obj 719 182 inlet~ 5_L;
#X obj 789 182 inlet~ 5_R;
#X obj 889 182 inlet~ 6_L;
#X obj 959 182 inlet~ 6_R;
#X obj 39 340 writesf~;
#X obj 109 340 writesf~;
#X obj 209 340 writesf~;
#X obj 279 340 writesf~;
#X obj 379 340 writesf~;
#X obj 449 340 writesf~;
#X obj 549 340 writesf~;
#X obj 619 340 writesf~;
#X obj 719 340 writesf~;
#X obj 789 340 writesf~;
#X obj 889 340 writesf~;
#X obj 959 340 writesf~;
#X obj 1141 340 writesf~;
#X obj 1201 340 writesf~;
#N canvas 644 148 673 410 controle 0;
#X obj 54 373 outlet;
#X obj 92 326 r \$0-controle_master;
#X obj 453 373 outlet;
#X obj 491 326 r \$0-controle_master;
#X obj 153 112 r \$0-nome;
#X obj 54 259 list append;
#X obj 453 259 list append;
#X obj 483 126 unpack;
#X obj 504 28 inlet numero_camadas;
#X obj 54 30 r \$0-name_trigger;
#X obj 54 84 symbol /Users/brunorohde/Desktop/sessions/camadas/;
#X obj 54 53 t b b;
#X obj 483 80 list;
#X obj 54 135 list append audio;
#X msg 54 289 open \$1\$2_\$3_\$4.wav;
#X obj 54 187 list append 1;
#X obj 129 164 r \$0-pista;
#X msg 453 289 open \$1\$2_\$3_\$4.wav;
#X obj 351 53 r \$0-dir;
#X connect 1 0 0 0;
#X connect 3 0 2 0;
#X connect 4 0 13 1;
#X connect 5 0 14 0;
#X connect 6 0 17 0;
#X connect 7 0 5 1;
#X connect 7 1 6 1;
#X connect 8 0 12 1;
#X connect 9 0 11 0;
#X connect 10 0 13 0;
#X connect 11 0 10 0;
#X connect 11 1 12 0;
#X connect 12 0 7 0;
#X connect 13 0 15 0;
#X connect 14 0 0 0;
#X connect 15 0 5 0;
#X connect 15 0 6 0;
#X connect 16 0 15 1;
#X connect 17 0 2 0;
#X connect 18 0 10 1;
#X restore 79 297 pd controle;
#X obj 39 182 inlet~ 1_L;
#X obj 208 72 bng 20 250 50 0 \$0-start \$0-startin REC 25 11 0 10
-258113 -262144 -1;
#X symbolatom 86 73 15 0 0 0 - #0-nomein #0-nome;
#X obj 257 72 bng 20 250 50 0 \$0-stop \$0-stopin STOP 25 11 0 10 -86277
-262144 -1;
#X obj 314 82 tgl 10 0 \$0-teclado \$0-tecladoin k 3 -7 0 10 -262144
-1 -1 0 1;
#X obj 374 19 r \$0-start;
#X obj 634 19 r \$0-stop;
#N canvas 759 219 217 203 init 0;
#X obj 28 163 s \$0-nomein;
#X obj 28 20 loadbang;
#X obj 28 42 s \$0-lb;
#X obj 28 93 r \$0-lb;
#X msg 28 140 symbol audio;
#X obj 118 163 s \$0-pistain;
#X msg 118 140 1;
#X obj 28 116 t b b;
#X connect 1 0 2 0;
#X connect 3 0 7 0;
#X connect 4 0 0 0;
#X connect 6 0 5 0;
#X connect 7 0 4 0;
#X connect 7 1 6 0;
#X restore 982 45 pd init;
#N canvas 227 243 243 191 teclado 0;
#X obj 80 57 r \$0-teclado;
#X obj 47 80 spigot;
#X obj 47 26 key;
#X obj 47 128 s \$0-startin;
#X obj 127 128 s \$0-stopin;
#X obj 47 104 sel 114 115;
#X connect 0 0 1 1;
#X connect 1 0 5 0;
#X connect 2 0 1 0;
#X connect 5 0 3 0;
#X connect 5 1 4 0;
#X restore 1044 45 pd teclado;
#X obj 1218 25 inlet controles_externos;
#N canvas 739 423 350 283 controles_externos 0;
#X obj 63 41 inlet;
#X obj 63 118 s \$0-nomein;
#X obj 141 170 s \$0-startin;
#X obj 180 197 s \$0-stopin;
#X obj 219 224 s \$0-tecladoin;
#X obj 63 79 route nome dir start stop teclado;
#X obj 102 144 s \$0-dir;
#X connect 0 0 5 0;
#X connect 5 0 1 0;
#X connect 5 1 6 0;
#X connect 5 2 2 0;
#X connect 5 3 3 0;
#X connect 5 4 4 0;
#X restore 1218 56 pd controles_externos;
#X obj 374 43 t b b;
#X obj 401 66 s \$0-name_trigger;
#X obj 374 124 s \$0-controle_master;
#X msg 374 94 start;
#X msg 661 94 stop;
#X obj 634 43 t b b;
#X floatatom 181 73 2 0 0 0 - #0-pistain #0-pista;
#X obj 555 37 r \$0-pista;
#X obj 540 60 f;
#X obj 540 105 s \$0-pistain;
#X obj 540 82 + 1;
#X obj 661 124 s \$0-controle_master;
#N canvas 644 148 705 418 controle 0;
#X obj 54 373 outlet;
#X obj 92 326 r \$0-controle_master;
#X obj 453 373 outlet;
#X obj 491 326 r \$0-controle_master;
#X obj 153 112 r \$0-nome;
#X obj 54 259 list append;
#X obj 453 259 list append;
#X obj 483 126 unpack;
#X obj 504 28 inlet numero_camadas;
#X obj 54 30 r \$0-name_trigger;
#X obj 54 84 symbol /Users/brunorohde/Desktop/sessions/camadas/;
#X obj 54 53 t b b;
#X obj 483 80 list;
#X obj 54 135 list append audio;
#X msg 54 289 open \$1\$2_\$3_\$4.wav;
#X obj 54 187 list append 1;
#X obj 129 164 r \$0-pista;
#X msg 453 289 open \$1\$2_\$3_\$4.wav;
#X obj 351 53 r \$0-dir;
#X connect 1 0 0 0;
#X connect 3 0 2 0;
#X connect 4 0 13 1;
#X connect 5 0 14 0;
#X connect 6 0 17 0;
#X connect 7 0 5 1;
#X connect 7 1 6 1;
#X connect 8 0 12 1;
#X connect 9 0 11 0;
#X connect 10 0 13 0;
#X connect 11 0 10 0;
#X connect 11 1 12 0;
#X connect 12 0 7 0;
#X connect 13 0 15 0;
#X connect 14 0 0 0;
#X connect 15 0 5 0;
#X connect 15 0 6 0;
#X connect 16 0 15 1;
#X connect 17 0 2 0;
#X connect 18 0 10 1;
#X restore 249 297 pd controle;
#N canvas 644 148 705 418 controle 0;
#X obj 54 373 outlet;
#X obj 92 326 r \$0-controle_master;
#X obj 453 373 outlet;
#X obj 491 326 r \$0-controle_master;
#X obj 153 112 r \$0-nome;
#X obj 54 259 list append;
#X obj 453 259 list append;
#X obj 483 126 unpack;
#X obj 504 28 inlet numero_camadas;
#X obj 54 30 r \$0-name_trigger;
#X obj 54 84 symbol /Users/brunorohde/Desktop/sessions/camadas/;
#X obj 54 53 t b b;
#X obj 483 80 list;
#X obj 54 135 list append audio;
#X msg 54 289 open \$1\$2_\$3_\$4.wav;
#X obj 54 187 list append 1;
#X obj 129 164 r \$0-pista;
#X msg 453 289 open \$1\$2_\$3_\$4.wav;
#X obj 351 53 r \$0-dir;
#X connect 1 0 0 0;
#X connect 3 0 2 0;
#X connect 4 0 13 1;
#X connect 5 0 14 0;
#X connect 6 0 17 0;
#X connect 7 0 5 1;
#X connect 7 1 6 1;
#X connect 8 0 12 1;
#X connect 9 0 11 0;
#X connect 10 0 13 0;
#X connect 11 0 10 0;
#X connect 11 1 12 0;
#X connect 12 0 7 0;
#X connect 13 0 15 0;
#X connect 14 0 0 0;
#X connect 15 0 5 0;
#X connect 15 0 6 0;
#X connect 16 0 15 1;
#X connect 17 0 2 0;
#X connect 18 0 10 1;
#X restore 419 297 pd controle;
#N canvas 644 148 705 418 controle 0;
#X obj 54 373 outlet;
#X obj 92 326 r \$0-controle_master;
#X obj 453 373 outlet;
#X obj 491 326 r \$0-controle_master;
#X obj 153 112 r \$0-nome;
#X obj 54 259 list append;
#X obj 453 259 list append;
#X obj 483 126 unpack;
#X obj 504 28 inlet numero_camadas;
#X obj 54 30 r \$0-name_trigger;
#X obj 54 84 symbol /Users/brunorohde/Desktop/sessions/camadas/;
#X obj 54 53 t b b;
#X obj 483 80 list;
#X obj 54 135 list append audio;
#X msg 54 289 open \$1\$2_\$3_\$4.wav;
#X obj 54 187 list append 1;
#X obj 129 164 r \$0-pista;
#X msg 453 289 open \$1\$2_\$3_\$4.wav;
#X obj 351 53 r \$0-dir;
#X connect 1 0 0 0;
#X connect 3 0 2 0;
#X connect 4 0 13 1;
#X connect 5 0 14 0;
#X connect 6 0 17 0;
#X connect 7 0 5 1;
#X connect 7 1 6 1;
#X connect 8 0 12 1;
#X connect 9 0 11 0;
#X connect 10 0 13 0;
#X connect 11 0 10 0;
#X connect 11 1 12 0;
#X connect 12 0 7 0;
#X connect 13 0 15 0;
#X connect 14 0 0 0;
#X connect 15 0 5 0;
#X connect 15 0 6 0;
#X connect 16 0 15 1;
#X connect 17 0 2 0;
#X connect 18 0 10 1;
#X restore 589 297 pd controle;
#N canvas 644 148 705 418 controle 0;
#X obj 54 373 outlet;
#X obj 92 326 r \$0-controle_master;
#X obj 453 373 outlet;
#X obj 491 326 r \$0-controle_master;
#X obj 153 112 r \$0-nome;
#X obj 54 259 list append;
#X obj 453 259 list append;
#X obj 483 126 unpack;
#X obj 504 28 inlet numero_camadas;
#X obj 54 30 r \$0-name_trigger;
#X obj 54 84 symbol /Users/brunorohde/Desktop/sessions/camadas/;
#X obj 54 53 t b b;
#X obj 483 80 list;
#X obj 54 135 list append audio;
#X msg 54 289 open \$1\$2_\$3_\$4.wav;
#X obj 54 187 list append 1;
#X obj 129 164 r \$0-pista;
#X msg 453 289 open \$1\$2_\$3_\$4.wav;
#X obj 351 53 r \$0-dir;
#X connect 1 0 0 0;
#X connect 3 0 2 0;
#X connect 4 0 13 1;
#X connect 5 0 14 0;
#X connect 6 0 17 0;
#X connect 7 0 5 1;
#X connect 7 1 6 1;
#X connect 8 0 12 1;
#X connect 9 0 11 0;
#X connect 10 0 13 0;
#X connect 11 0 10 0;
#X connect 11 1 12 0;
#X connect 12 0 7 0;
#X connect 13 0 15 0;
#X connect 14 0 0 0;
#X connect 15 0 5 0;
#X connect 15 0 6 0;
#X connect 16 0 15 1;
#X connect 17 0 2 0;
#X connect 18 0 10 1;
#X restore 759 297 pd controle;
#N canvas 644 148 705 418 controle 0;
#X obj 54 373 outlet;
#X obj 92 326 r \$0-controle_master;
#X obj 453 373 outlet;
#X obj 491 326 r \$0-controle_master;
#X obj 153 112 r \$0-nome;
#X obj 54 259 list append;
#X obj 453 259 list append;
#X obj 483 126 unpack;
#X obj 504 28 inlet numero_camadas;
#X obj 54 30 r \$0-name_trigger;
#X obj 54 84 symbol /Users/brunorohde/Desktop/sessions/camadas/;
#X obj 54 53 t b b;
#X obj 483 80 list;
#X obj 54 135 list append audio;
#X msg 54 289 open \$1\$2_\$3_\$4.wav;
#X obj 54 187 list append 1;
#X obj 129 164 r \$0-pista;
#X msg 453 289 open \$1\$2_\$3_\$4.wav;
#X obj 351 53 r \$0-dir;
#X connect 1 0 0 0;
#X connect 3 0 2 0;
#X connect 4 0 13 1;
#X connect 5 0 14 0;
#X connect 6 0 17 0;
#X connect 7 0 5 1;
#X connect 7 1 6 1;
#X connect 8 0 12 1;
#X connect 9 0 11 0;
#X connect 10 0 13 0;
#X connect 11 0 10 0;
#X connect 11 1 12 0;
#X connect 12 0 7 0;
#X connect 13 0 15 0;
#X connect 14 0 0 0;
#X connect 15 0 5 0;
#X connect 15 0 6 0;
#X connect 16 0 15 1;
#X connect 17 0 2 0;
#X connect 18 0 10 1;
#X restore 929 297 pd controle;
#N canvas 644 148 511 427 controle_master_mix 0;
#X obj 54 373 outlet;
#X obj 92 326 r \$0-controle_master;
#X obj 273 373 outlet;
#X obj 311 326 r \$0-controle_master;
#X obj 153 112 r \$0-nome;
#X obj 54 30 r \$0-name_trigger;
#X obj 54 84 symbol /Users/brunorohde/Desktop/sessions/camadas/;
#X obj 54 135 list append audio;
#X obj 54 187 list append 1;
#X obj 129 164 r \$0-pista;
#X msg 54 289 open \$1\$2_\$3.wav;
#X msg 274 289 open \$1\$2_\$3.wav;
#X obj 351 53 r \$0-dir;
#X connect 1 0 0 0;
#X connect 3 0 2 0;
#X connect 4 0 7 1;
#X connect 5 0 6 0;
#X connect 6 0 7 0;
#X connect 7 0 8 0;
#X connect 8 0 10 0;
#X connect 8 0 11 0;
#X connect 9 0 8 1;
#X connect 10 0 0 0;
#X connect 11 0 2 0;
#X connect 12 0 6 1;
#X restore 1141 297 pd controle_master_mix;
#X text 83 52 -1-;
#X text 116 52 -2-;
#X text 151 53 -3-;
#X text 185 53 -4-;
#X text 220 53 -5-;
#X text 255 53 -6-;
#X text 290 53 -M-;
#X msg 79 273 1 2;
#X obj 79 253 r \$0-lb;
#X obj 249 253 r \$0-lb;
#X obj 419 253 r \$0-lb;
#X obj 589 253 r \$0-lb;
#X obj 759 253 r \$0-lb;
#X obj 929 253 r \$0-lb;
#X msg 249 273 3 4;
#X msg 419 273 5 6;
#X msg 589 273 7 8;
#X msg 759 273 9 10;
#X msg 929 273 11 12;
#X obj 81 51 cnv 2 10 2 empty empty empty 20 12 0 14 -128992 -66577
0;
#X obj 96 51 cnv 2 10 2 empty empty empty 20 12 0 14 -128992 -66577
0;
#X obj 114 51 cnv 2 10 2 empty empty empty 20 12 0 14 -128992 -66577
0;
#X obj 129 51 cnv 2 10 2 empty empty empty 20 12 0 14 -128992 -66577
0;
#X obj 149 51 cnv 2 10 2 empty empty empty 20 12 0 14 -128992 -66577
0;
#X obj 164 51 cnv 2 10 2 empty empty empty 20 12 0 14 -128992 -66577
0;
#X obj 183 51 cnv 2 10 2 empty empty empty 20 12 0 14 -128992 -66577
0;
#X obj 198 51 cnv 2 10 2 empty empty empty 20 12 0 14 -128992 -66577
0;
#X obj 218 51 cnv 2 10 2 empty empty empty 20 12 0 14 -128992 -66577
0;
#X obj 233 51 cnv 2 10 2 empty empty empty 20 12 0 14 -128992 -66577
0;
#X obj 253 51 cnv 2 10 2 empty empty empty 20 12 0 14 -128992 -66577
0;
#X obj 268 51 cnv 2 10 2 empty empty empty 20 12 0 14 -128992 -66577
0;
#X obj 287 51 cnv 2 10 2 empty empty empty 20 12 0 14 -128992 -66577
0;
#X obj 302 51 cnv 2 10 2 empty empty empty 20 12 0 14 -128992 -66577
0;
#X obj 319 51 cnv 2 10 2 empty empty empty 20 12 0 14 -262144 -66577
0;
#N canvas 472 234 393 158 LEIA-ME 0;
#X text 29 106 - licença GPLv3 - http://www.gnu.org/copyleft/gpl.txt
;
#X text 29 26 -- org_abs 0.2 - abstrações orgânicas - 2014;
#X text 29 56 - conjunto de abstrações para controle de áudio e vídeo
\, desenvolvido por brunorohde (brunorohde.wordpress.com / brunorohde@gmail.com)
;
#X restore 850 45 pd LEIA-ME;
#X connect 1 0 26 0;
#X connect 2 0 27 0;
#X connect 3 0 15 0;
#X connect 4 0 16 0;
#X connect 5 0 17 0;
#X connect 6 0 18 0;
#X connect 7 0 19 0;
#X connect 8 0 20 0;
#X connect 9 0 21 0;
#X connect 10 0 22 0;
#X connect 11 0 23 0;
#X connect 12 0 24 0;
#X connect 13 0 25 0;
#X connect 28 0 14 0;
#X connect 28 1 15 0;
#X connect 29 0 14 0;
#X connect 34 0 40 0;
#X connect 35 0 45 0;
#X connect 38 0 39 0;
#X connect 40 0 43 0;
#X connect 40 1 41 0;
#X connect 43 0 42 0;
#X connect 44 0 51 0;
#X connect 45 0 48 0;
#X connect 45 1 44 0;
#X connect 47 0 48 1;
#X connect 48 0 50 0;
#X connect 50 0 49 0;
#X connect 52 0 16 0;
#X connect 52 1 17 0;
#X connect 53 0 18 0;
#X connect 53 1 19 0;
#X connect 54 0 20 0;
#X connect 54 1 21 0;
#X connect 55 0 22 0;
#X connect 55 1 23 0;
#X connect 56 0 24 0;
#X connect 56 1 25 0;
#X connect 57 0 26 0;
#X connect 57 1 27 0;
#X connect 65 0 28 0;
#X connect 66 0 65 0;
#X connect 67 0 72 0;
#X connect 68 0 73 0;
#X connect 69 0 74 0;
#X connect 70 0 75 0;
#X connect 71 0 76 0;
#X connect 72 0 52 0;
#X connect 73 0 53 0;
#X connect 74 0 54 0;
#X connect 75 0 55 0;
#X connect 76 0 56 0;
#X coords 0 -1 1 1 250 48 2 80 50;
