#N canvas 149 233 385 243 10;
#X obj 70 30 cnv 15 150 46 empty empty empty 20 12 0 14 -191407 -66577
0;
#N canvas 385 66 570 696 NOTAS 0;
#X obj 94 353 s \$1-N1;
#X obj 144 353 s \$1-N2;
#X obj 194 353 s \$1-N3;
#X obj 244 353 s \$1-N4;
#X obj 294 353 s \$1-N5;
#X obj 344 353 s \$1-N6;
#X obj 394 353 s \$1-N7;
#X obj 444 353 s \$1-N8;
#X obj 494 353 s \$1-N9;
#X obj 44 378 s \$1-N10;
#X obj 94 378 s \$1-N11;
#X obj 144 378 s \$1-N12;
#X obj 194 378 s \$1-N13;
#X obj 244 378 s \$1-N14;
#X obj 294 378 s \$1-N15;
#X obj 344 378 s \$1-N16;
#X obj 394 378 s \$1-N17;
#X obj 444 378 s \$1-N18;
#X obj 494 378 s \$1-N19;
#X obj 44 403 s \$1-N20;
#X obj 94 403 s \$1-N21;
#X obj 144 403 s \$1-N22;
#X obj 194 403 s \$1-N23;
#X obj 244 403 s \$1-N24;
#X obj 294 403 s \$1-N25;
#X obj 344 403 s \$1-N26;
#X obj 394 403 s \$1-N27;
#X obj 444 403 s \$1-N28;
#X obj 494 403 s \$1-N29;
#X obj 44 428 s \$1-N30;
#X obj 94 428 s \$1-N31;
#X obj 144 428 s \$1-N32;
#X obj 194 428 s \$1-N33;
#X obj 244 428 s \$1-N34;
#X obj 294 428 s \$1-N35;
#X obj 344 428 s \$1-N36;
#X obj 394 428 s \$1-N37;
#X obj 444 428 s \$1-N38;
#X obj 494 428 s \$1-N39;
#X obj 44 453 s \$1-N40;
#X obj 94 453 s \$1-N41;
#X obj 144 453 s \$1-N42;
#X obj 194 453 s \$1-N43;
#X obj 244 453 s \$1-N44;
#X obj 294 453 s \$1-N45;
#X obj 344 453 s \$1-N46;
#X obj 394 453 s \$1-N47;
#X obj 444 453 s \$1-N48;
#X obj 494 453 s \$1-N49;
#X obj 44 478 s \$1-N50;
#X obj 94 478 s \$1-N51;
#X obj 144 478 s \$1-N52;
#X obj 194 478 s \$1-N53;
#X obj 244 478 s \$1-N54;
#X obj 294 478 s \$1-N55;
#X obj 344 478 s \$1-N56;
#X obj 394 478 s \$1-N57;
#X obj 444 478 s \$1-N58;
#X obj 494 478 s \$1-N59;
#X obj 44 503 s \$1-N60;
#X obj 94 503 s \$1-N61;
#X obj 144 503 s \$1-N62;
#X obj 194 503 s \$1-N63;
#X obj 244 503 s \$1-N64;
#X obj 294 503 s \$1-N65;
#X obj 344 503 s \$1-N66;
#X obj 394 503 s \$1-N67;
#X obj 444 503 s \$1-N68;
#X obj 494 503 s \$1-N69;
#X obj 44 528 s \$1-N70;
#X obj 94 528 s \$1-N71;
#X obj 144 528 s \$1-N72;
#X obj 194 528 s \$1-N73;
#X obj 244 528 s \$1-N74;
#X obj 294 528 s \$1-N75;
#X obj 344 528 s \$1-N76;
#X obj 394 528 s \$1-N77;
#X obj 444 528 s \$1-N78;
#X obj 494 528 s \$1-N79;
#X obj 44 553 s \$1-N80;
#X obj 94 553 s \$1-N81;
#X obj 144 553 s \$1-N82;
#X obj 194 553 s \$1-N83;
#X obj 244 553 s \$1-N84;
#X obj 294 553 s \$1-N85;
#X obj 344 553 s \$1-N86;
#X obj 394 553 s \$1-N87;
#X obj 444 553 s \$1-N88;
#X obj 494 553 s \$1-N89;
#X obj 44 578 s \$1-N90;
#X obj 94 578 s \$1-N91;
#X obj 144 578 s \$1-N92;
#X obj 194 578 s \$1-N93;
#X obj 244 578 s \$1-N94;
#X obj 294 578 s \$1-N95;
#X obj 344 578 s \$1-N96;
#X obj 394 578 s \$1-N97;
#X obj 444 578 s \$1-N98;
#X obj 494 578 s \$1-N99;
#X obj 44 603 s \$1-N100;
#X obj 94 603 s \$1-N101;
#X obj 144 603 s \$1-N102;
#X obj 194 603 s \$1-N103;
#X obj 244 603 s \$1-N104;
#X obj 294 603 s \$1-N105;
#X obj 344 603 s \$1-N106;
#X obj 394 603 s \$1-N107;
#X obj 444 603 s \$1-N108;
#X obj 494 603 s \$1-N109;
#X obj 44 628 s \$1-N110;
#X obj 94 628 s \$1-N111;
#X obj 144 628 s \$1-N112;
#X obj 194 628 s \$1-N113;
#X obj 244 628 s \$1-N114;
#X obj 294 628 s \$1-N115;
#X obj 344 628 s \$1-N116;
#X obj 394 628 s \$1-N117;
#X obj 444 628 s \$1-N118;
#X obj 494 628 s \$1-N119;
#X obj 44 653 s \$1-N120;
#X obj 94 653 s \$1-N121;
#X obj 144 653 s \$1-N122;
#X obj 194 653 s \$1-N123;
#X obj 244 653 s \$1-N124;
#X obj 294 653 s \$1-N125;
#X obj 344 653 s \$1-N126;
#X obj 394 653 s \$1-N127;
#X obj 44 61 route 1 2 3 4 5 6 7 8 9;
#X obj 44 81 route 10 11 12 13 14 15 16 17 18 19;
#X obj 44 101 route 20 21 22 23 24 25 26 27 28 29;
#X obj 44 121 route 30 31 32 33 34 35 36 37 38 39;
#X obj 44 141 route 40 41 42 43 44 45 46 47 48 49;
#X obj 44 161 route 50 51 52 53 54 55 56 57 58 59;
#X obj 44 181 route 60 61 62 63 64 65 66 67 68 69;
#X obj 44 201 route 70 71 72 73 74 75 76 77 78 79;
#X obj 44 221 route 80 81 82 83 84 85 86 87 88 89;
#X obj 44 241 route 90 91 92 93 94 95 96 97 98 99;
#X obj 44 261 route 100 101 102 103 104 105 106 107 108 109;
#X obj 44 281 route 110 111 112 113 114 115 116 117 118 119;
#X obj 44 301 route 120 121 122 123 124 125 126 127;
#X obj 44 29 r \$0-packnotes;
#X connect 127 0 0 0;
#X connect 127 1 1 0;
#X connect 127 2 2 0;
#X connect 127 3 3 0;
#X connect 127 4 4 0;
#X connect 127 5 5 0;
#X connect 127 6 6 0;
#X connect 127 7 7 0;
#X connect 127 8 8 0;
#X connect 128 0 9 0;
#X connect 128 1 10 0;
#X connect 128 2 11 0;
#X connect 128 3 12 0;
#X connect 128 4 13 0;
#X connect 128 5 14 0;
#X connect 128 6 15 0;
#X connect 128 7 16 0;
#X connect 128 8 17 0;
#X connect 128 9 18 0;
#X connect 129 0 19 0;
#X connect 129 1 20 0;
#X connect 129 2 21 0;
#X connect 129 3 22 0;
#X connect 129 4 23 0;
#X connect 129 5 24 0;
#X connect 129 6 25 0;
#X connect 129 7 26 0;
#X connect 129 8 27 0;
#X connect 129 9 28 0;
#X connect 130 0 29 0;
#X connect 130 1 30 0;
#X connect 130 2 31 0;
#X connect 130 3 32 0;
#X connect 130 4 33 0;
#X connect 130 5 34 0;
#X connect 130 6 35 0;
#X connect 130 7 36 0;
#X connect 130 8 37 0;
#X connect 130 9 38 0;
#X connect 131 0 39 0;
#X connect 131 1 40 0;
#X connect 131 2 41 0;
#X connect 131 3 42 0;
#X connect 131 4 43 0;
#X connect 131 5 44 0;
#X connect 131 6 45 0;
#X connect 131 7 46 0;
#X connect 131 8 47 0;
#X connect 131 9 48 0;
#X connect 132 0 49 0;
#X connect 132 1 50 0;
#X connect 132 2 51 0;
#X connect 132 3 52 0;
#X connect 132 4 53 0;
#X connect 132 5 54 0;
#X connect 132 6 55 0;
#X connect 132 7 56 0;
#X connect 132 8 57 0;
#X connect 132 9 58 0;
#X connect 133 0 59 0;
#X connect 133 1 60 0;
#X connect 133 2 61 0;
#X connect 133 3 62 0;
#X connect 133 4 63 0;
#X connect 133 5 64 0;
#X connect 133 6 65 0;
#X connect 133 7 66 0;
#X connect 133 8 67 0;
#X connect 133 9 68 0;
#X connect 134 0 69 0;
#X connect 134 1 70 0;
#X connect 134 2 71 0;
#X connect 134 3 72 0;
#X connect 134 4 73 0;
#X connect 134 5 74 0;
#X connect 134 6 75 0;
#X connect 134 7 76 0;
#X connect 134 8 77 0;
#X connect 134 9 78 0;
#X connect 135 0 79 0;
#X connect 135 1 80 0;
#X connect 135 2 81 0;
#X connect 135 3 82 0;
#X connect 135 4 83 0;
#X connect 135 5 84 0;
#X connect 135 6 85 0;
#X connect 135 7 86 0;
#X connect 135 8 87 0;
#X connect 135 9 88 0;
#X connect 136 0 89 0;
#X connect 136 1 90 0;
#X connect 136 2 91 0;
#X connect 136 3 92 0;
#X connect 136 4 93 0;
#X connect 136 5 94 0;
#X connect 136 6 95 0;
#X connect 136 7 96 0;
#X connect 136 8 97 0;
#X connect 136 9 98 0;
#X connect 137 0 99 0;
#X connect 137 1 100 0;
#X connect 137 2 101 0;
#X connect 137 3 102 0;
#X connect 137 4 103 0;
#X connect 137 5 104 0;
#X connect 137 6 105 0;
#X connect 137 7 106 0;
#X connect 137 8 107 0;
#X connect 137 9 108 0;
#X connect 138 0 109 0;
#X connect 138 1 110 0;
#X connect 138 2 111 0;
#X connect 138 3 112 0;
#X connect 138 4 113 0;
#X connect 138 5 114 0;
#X connect 138 6 115 0;
#X connect 138 7 116 0;
#X connect 138 8 117 0;
#X connect 138 9 118 0;
#X connect 139 0 119 0;
#X connect 139 1 120 0;
#X connect 139 2 121 0;
#X connect 139 3 122 0;
#X connect 139 4 123 0;
#X connect 139 5 124 0;
#X connect 139 6 125 0;
#X connect 139 7 126 0;
#X connect 140 0 127 0;
#X connect 140 0 128 0;
#X connect 140 0 129 0;
#X connect 140 0 130 0;
#X connect 140 0 131 0;
#X connect 140 0 132 0;
#X connect 140 0 133 0;
#X connect 140 0 134 0;
#X connect 140 0 135 0;
#X connect 140 0 136 0;
#X connect 140 0 137 0;
#X connect 140 0 138 0;
#X connect 140 0 139 0;
#X restore 69 190 pd NOTAS;
#N canvas 377 83 611 731 CONTROLES 0;
#X obj 110 375 s \$1-C1;
#X obj 160 375 s \$1-C2;
#X obj 210 375 s \$1-C3;
#X obj 260 375 s \$1-C4;
#X obj 310 375 s \$1-C5;
#X obj 360 375 s \$1-C6;
#X obj 410 375 s \$1-C7;
#X obj 460 375 s \$1-C8;
#X obj 510 375 s \$1-C9;
#X obj 60 400 s \$1-C10;
#X obj 110 400 s \$1-C11;
#X obj 160 400 s \$1-C12;
#X obj 210 400 s \$1-C13;
#X obj 260 400 s \$1-C14;
#X obj 310 400 s \$1-C15;
#X obj 360 400 s \$1-C16;
#X obj 410 400 s \$1-C17;
#X obj 460 400 s \$1-C18;
#X obj 510 400 s \$1-C19;
#X obj 60 425 s \$1-C20;
#X obj 110 425 s \$1-C21;
#X obj 160 425 s \$1-C22;
#X obj 210 425 s \$1-C23;
#X obj 260 425 s \$1-C24;
#X obj 310 425 s \$1-C25;
#X obj 360 425 s \$1-C26;
#X obj 410 425 s \$1-C27;
#X obj 460 425 s \$1-C28;
#X obj 510 425 s \$1-C29;
#X obj 60 450 s \$1-C30;
#X obj 110 450 s \$1-C31;
#X obj 160 450 s \$1-C32;
#X obj 210 450 s \$1-C33;
#X obj 260 450 s \$1-C34;
#X obj 310 450 s \$1-C35;
#X obj 360 450 s \$1-C36;
#X obj 410 450 s \$1-C37;
#X obj 460 450 s \$1-C38;
#X obj 510 450 s \$1-C39;
#X obj 60 475 s \$1-C40;
#X obj 110 475 s \$1-C41;
#X obj 160 475 s \$1-C42;
#X obj 210 475 s \$1-C43;
#X obj 260 475 s \$1-C44;
#X obj 310 475 s \$1-C45;
#X obj 360 475 s \$1-C46;
#X obj 410 475 s \$1-C47;
#X obj 460 475 s \$1-C48;
#X obj 510 475 s \$1-C49;
#X obj 60 500 s \$1-C50;
#X obj 110 500 s \$1-C51;
#X obj 160 500 s \$1-C52;
#X obj 210 500 s \$1-C53;
#X obj 260 500 s \$1-C54;
#X obj 310 500 s \$1-C55;
#X obj 360 500 s \$1-C56;
#X obj 410 500 s \$1-C57;
#X obj 460 500 s \$1-C58;
#X obj 510 500 s \$1-C59;
#X obj 60 525 s \$1-C60;
#X obj 110 525 s \$1-C61;
#X obj 160 525 s \$1-C62;
#X obj 210 525 s \$1-C63;
#X obj 260 525 s \$1-C64;
#X obj 310 525 s \$1-C65;
#X obj 360 525 s \$1-C66;
#X obj 410 525 s \$1-C67;
#X obj 460 525 s \$1-C68;
#X obj 510 525 s \$1-C69;
#X obj 60 550 s \$1-C70;
#X obj 110 550 s \$1-C71;
#X obj 160 550 s \$1-C72;
#X obj 210 550 s \$1-C73;
#X obj 260 550 s \$1-C74;
#X obj 310 550 s \$1-C75;
#X obj 360 550 s \$1-C76;
#X obj 410 550 s \$1-C77;
#X obj 460 550 s \$1-C78;
#X obj 510 550 s \$1-C79;
#X obj 60 575 s \$1-C80;
#X obj 110 575 s \$1-C81;
#X obj 160 575 s \$1-C82;
#X obj 210 575 s \$1-C83;
#X obj 260 575 s \$1-C84;
#X obj 310 575 s \$1-C85;
#X obj 360 575 s \$1-C86;
#X obj 410 575 s \$1-C87;
#X obj 460 575 s \$1-C88;
#X obj 510 575 s \$1-C89;
#X obj 60 600 s \$1-C90;
#X obj 110 600 s \$1-C91;
#X obj 160 600 s \$1-C92;
#X obj 210 600 s \$1-C93;
#X obj 260 600 s \$1-C94;
#X obj 310 600 s \$1-C95;
#X obj 360 600 s \$1-C96;
#X obj 410 600 s \$1-C97;
#X obj 460 600 s \$1-C98;
#X obj 510 600 s \$1-C99;
#X obj 60 625 s \$1-C100;
#X obj 110 625 s \$1-C101;
#X obj 160 625 s \$1-C102;
#X obj 210 625 s \$1-C103;
#X obj 260 625 s \$1-C104;
#X obj 310 625 s \$1-C105;
#X obj 360 625 s \$1-C106;
#X obj 410 625 s \$1-C107;
#X obj 460 625 s \$1-C108;
#X obj 510 625 s \$1-C109;
#X obj 60 650 s \$1-C110;
#X obj 110 650 s \$1-C111;
#X obj 160 650 s \$1-C112;
#X obj 210 650 s \$1-C113;
#X obj 260 650 s \$1-C114;
#X obj 310 650 s \$1-C115;
#X obj 360 650 s \$1-C116;
#X obj 410 650 s \$1-C117;
#X obj 460 650 s \$1-C118;
#X obj 510 650 s \$1-C119;
#X obj 60 675 s \$1-C120;
#X obj 110 675 s \$1-C121;
#X obj 160 675 s \$1-C122;
#X obj 210 675 s \$1-C123;
#X obj 260 675 s \$1-C124;
#X obj 310 675 s \$1-C125;
#X obj 360 675 s \$1-C126;
#X obj 410 675 s \$1-C127;
#X obj 60 35 r \$0-packctls;
#X obj 60 76 route 1 2 3 4 5 6 7 8 9;
#X obj 60 96 route 10 11 12 13 14 15 16 17 18 19;
#X obj 60 116 route 20 21 22 23 24 25 26 27 28 29;
#X obj 60 136 route 30 31 32 33 34 35 36 37 38 39;
#X obj 60 156 route 40 41 42 43 44 45 46 47 48 49;
#X obj 60 176 route 50 51 52 53 54 55 56 57 58 59;
#X obj 60 196 route 60 61 62 63 64 65 66 67 68 69;
#X obj 60 216 route 70 71 72 73 74 75 76 77 78 79;
#X obj 60 236 route 80 81 82 83 84 85 86 87 88 89;
#X obj 60 256 route 90 91 92 93 94 95 96 97 98 99;
#X obj 60 276 route 100 101 102 103 104 105 106 107 108 109;
#X obj 60 296 route 110 111 112 113 114 115 116 117 118 119;
#X obj 60 316 route 120 121 122 123 124 125 126 127;
#X connect 127 0 128 0;
#X connect 127 0 129 0;
#X connect 127 0 130 0;
#X connect 127 0 131 0;
#X connect 127 0 132 0;
#X connect 127 0 133 0;
#X connect 127 0 134 0;
#X connect 127 0 135 0;
#X connect 127 0 136 0;
#X connect 127 0 137 0;
#X connect 127 0 138 0;
#X connect 127 0 139 0;
#X connect 127 0 140 0;
#X connect 128 0 0 0;
#X connect 128 1 1 0;
#X connect 128 2 2 0;
#X connect 128 3 3 0;
#X connect 128 4 4 0;
#X connect 128 5 5 0;
#X connect 128 6 6 0;
#X connect 128 7 7 0;
#X connect 128 8 8 0;
#X connect 129 0 9 0;
#X connect 129 1 10 0;
#X connect 129 2 11 0;
#X connect 129 3 12 0;
#X connect 129 4 13 0;
#X connect 129 5 14 0;
#X connect 129 6 15 0;
#X connect 129 7 16 0;
#X connect 129 8 17 0;
#X connect 129 9 18 0;
#X connect 130 0 19 0;
#X connect 130 1 20 0;
#X connect 130 2 21 0;
#X connect 130 3 22 0;
#X connect 130 4 23 0;
#X connect 130 5 24 0;
#X connect 130 6 25 0;
#X connect 130 7 26 0;
#X connect 130 8 27 0;
#X connect 130 9 28 0;
#X connect 131 0 29 0;
#X connect 131 1 30 0;
#X connect 131 2 31 0;
#X connect 131 3 32 0;
#X connect 131 4 33 0;
#X connect 131 5 34 0;
#X connect 131 6 35 0;
#X connect 131 7 36 0;
#X connect 131 8 37 0;
#X connect 131 9 38 0;
#X connect 132 0 39 0;
#X connect 132 1 40 0;
#X connect 132 2 41 0;
#X connect 132 3 42 0;
#X connect 132 4 43 0;
#X connect 132 5 44 0;
#X connect 132 6 45 0;
#X connect 132 7 46 0;
#X connect 132 8 47 0;
#X connect 132 9 48 0;
#X connect 133 0 49 0;
#X connect 133 1 50 0;
#X connect 133 2 51 0;
#X connect 133 3 52 0;
#X connect 133 4 53 0;
#X connect 133 5 54 0;
#X connect 133 6 55 0;
#X connect 133 7 56 0;
#X connect 133 8 57 0;
#X connect 133 9 58 0;
#X connect 134 0 59 0;
#X connect 134 1 60 0;
#X connect 134 2 61 0;
#X connect 134 3 62 0;
#X connect 134 4 63 0;
#X connect 134 5 64 0;
#X connect 134 6 65 0;
#X connect 134 7 66 0;
#X connect 134 8 67 0;
#X connect 134 9 68 0;
#X connect 135 0 69 0;
#X connect 135 1 70 0;
#X connect 135 2 71 0;
#X connect 135 3 72 0;
#X connect 135 4 73 0;
#X connect 135 5 74 0;
#X connect 135 6 75 0;
#X connect 135 7 76 0;
#X connect 135 8 77 0;
#X connect 135 9 78 0;
#X connect 136 0 79 0;
#X connect 136 1 80 0;
#X connect 136 2 81 0;
#X connect 136 3 82 0;
#X connect 136 4 83 0;
#X connect 136 5 84 0;
#X connect 136 6 85 0;
#X connect 136 7 86 0;
#X connect 136 8 87 0;
#X connect 136 9 88 0;
#X connect 137 0 89 0;
#X connect 137 1 90 0;
#X connect 137 2 91 0;
#X connect 137 3 92 0;
#X connect 137 4 93 0;
#X connect 137 5 94 0;
#X connect 137 6 95 0;
#X connect 137 7 96 0;
#X connect 137 8 97 0;
#X connect 137 9 98 0;
#X connect 138 0 99 0;
#X connect 138 1 100 0;
#X connect 138 2 101 0;
#X connect 138 3 102 0;
#X connect 138 4 103 0;
#X connect 138 5 104 0;
#X connect 138 6 105 0;
#X connect 138 7 106 0;
#X connect 138 8 107 0;
#X connect 138 9 108 0;
#X connect 139 0 109 0;
#X connect 139 1 110 0;
#X connect 139 2 111 0;
#X connect 139 3 112 0;
#X connect 139 4 113 0;
#X connect 139 5 114 0;
#X connect 139 6 115 0;
#X connect 139 7 116 0;
#X connect 139 8 117 0;
#X connect 139 9 118 0;
#X connect 140 0 119 0;
#X connect 140 1 120 0;
#X connect 140 2 121 0;
#X connect 140 3 122 0;
#X connect 140 4 123 0;
#X connect 140 5 124 0;
#X connect 140 6 125 0;
#X connect 140 7 126 0;
#X restore 69 221 pd CONTROLES;
#N canvas 513 95 381 562 ENTRADA_MIDI 0;
#X floatatom 31 401 5 0 0 0 - - -, f 5;
#X floatatom 82 401 5 0 0 0 - - -, f 5;
#X text 29 417 pitch;
#X text 80 417 velocity;
#X obj 223 254 unpack f f;
#X floatatom 223 277 5 0 0 0 - - -, f 5;
#X floatatom 280 277 5 0 0 0 - - -, f 5;
#X text 221 292 value;
#X text 278 292 ctrl nr;
#X obj 31 372 stripnote;
#X obj 75 452 pack f f;
#X obj 223 362 pack f f;
#X obj 223 342 f;
#X obj 223 322 t b f;
#X obj 223 382 s \$0-packctls;
#X obj 75 474 s \$0-packnotes;
#X floatatom 125 137 5 0 0 0 - - -, f 5;
#X obj 31 174 spigot;
#X obj 78 174 spigot;
#X obj 125 157 == 1;
#X obj 261 128 clip 1 127;
#X obj 161 137 r \$0-midi_ch;
#X floatatom 161 158 5 0 0 0 - - -, f 5;
#X obj 261 148 s \$0-midi_ch_in;
#X obj 31 250 t a a;
#X obj 31 330 spigot;
#X obj 75 330 spigot;
#X obj 108 277 r \$0-stripnote;
#X obj 64 304 == 1;
#X obj 108 304 == 0;
#X obj 261 219 s \$0-stripnote_in;
#X obj 223 403 s \$1-midictls;
#X obj 75 527 outlet notes;
#X obj 75 494 s \$1-midinotes;
#X obj 223 527 outlet notes;
#X obj 244 41 inlet;
#X obj 31 58 spigot;
#X obj 261 82 loadbang;
#X obj 261 106 f \$2;
#X obj 261 176 loadbang;
#X msg 261 197 1;
#X obj 31 11 notein;
#X obj 121 58 spigot;
#X obj 121 11 ctlin;
#X obj 31 36 pack f f f;
#X obj 121 36 pack f f f;
#X obj 31 87 list split 2;
#X obj 121 87 list split 2;
#X connect 0 0 10 0;
#X connect 1 0 10 1;
#X connect 4 0 5 0;
#X connect 4 1 6 0;
#X connect 5 0 13 0;
#X connect 6 0 12 1;
#X connect 9 0 0 0;
#X connect 9 1 1 0;
#X connect 10 0 15 0;
#X connect 10 0 32 0;
#X connect 10 0 33 0;
#X connect 11 0 14 0;
#X connect 11 0 31 0;
#X connect 11 0 34 0;
#X connect 12 0 11 0;
#X connect 13 0 12 0;
#X connect 13 1 11 1;
#X connect 16 0 19 0;
#X connect 17 0 24 0;
#X connect 18 0 4 0;
#X connect 19 0 18 1;
#X connect 19 0 17 1;
#X connect 20 0 23 0;
#X connect 21 0 22 0;
#X connect 22 0 19 1;
#X connect 24 0 25 0;
#X connect 24 1 26 0;
#X connect 25 0 9 0;
#X connect 26 0 15 0;
#X connect 26 0 33 0;
#X connect 27 0 28 0;
#X connect 27 0 29 0;
#X connect 28 0 25 1;
#X connect 29 0 26 1;
#X connect 35 0 36 1;
#X connect 35 0 42 1;
#X connect 36 0 46 0;
#X connect 37 0 38 0;
#X connect 38 0 20 0;
#X connect 39 0 40 0;
#X connect 40 0 30 0;
#X connect 41 0 44 0;
#X connect 41 1 44 1;
#X connect 41 2 44 2;
#X connect 42 0 47 0;
#X connect 43 0 45 0;
#X connect 43 1 45 1;
#X connect 43 2 45 2;
#X connect 44 0 36 0;
#X connect 45 0 42 0;
#X connect 46 0 17 0;
#X connect 46 1 16 0;
#X connect 47 0 18 0;
#X connect 47 1 16 0;
#X restore 70 106 pd ENTRADA_MIDI;
#X floatatom 143 36 5 0 0 0 - #0-midi_ch_in #0-midi_ch, f 5;
#X text 75 35 CANAL MIDI;
#X text 81 55 STRIPNOTE;
#X obj 143 56 tgl 15 0 \$0-stripnote \$0-stripnote_in empty 17 7 0
10 -262144 -1 -1 1 1;
#X obj 70 145 outlet notes;
#X obj 157 145 outlet ctls;
#X obj 182 2 inlet;
#N canvas 472 234 393 158 LEIA-ME 0;
#X text 29 106 - licença GPLv3 - http://www.gnu.org/copyleft/gpl.txt
;
#X text 29 26 -- org_abs 0.2 - abstrações orgânicas - 2014;
#X text 29 56 - conjunto de abstrações para controle de áudio e vídeo
\, desenvolvido por brunorohde (brunorohde.wordpress.com / brunorohde@gmail.com)
;
#X restore 212 201 pd LEIA-ME;
#X obj 182 38 tgl 30 0 empty empty empty 17 7 0 10 -24198 -1 -262144
1 1;
#X obj 229 2 loadbang;
#X msg 229 21 1;
#X obj 182 82 t f f;
#X obj 252 99 sel 0 1;
#X msg 252 120 color 13;
#X msg 271 140 color 16;
#X obj 71 31 cnv 2 10 2 empty empty empty 20 12 0 14 -262144 -66577
0;
#X connect 3 0 8 0;
#X connect 3 1 9 0;
#X connect 10 0 12 0;
#X connect 12 0 15 0;
#X connect 13 0 14 0;
#X connect 14 0 12 0;
#X connect 15 0 3 0;
#X connect 15 1 16 0;
#X connect 16 0 17 0;
#X connect 16 1 18 0;
#X connect 17 0 12 0;
#X connect 18 0 12 0;
#X coords 0 -1 1 1 150 46 2 70 30;
