#N canvas 62 410 1259 234 10;
#X obj 40 80 cnv 15 1000 51 empty empty empty 20 12 0 14 -261234 -66577
0;
#X obj 157 87 tgl 17 0 \$0-play \$0-play_in empty 17 7 0 10 -4034 -1
-1 0 1;
#X obj 46 111 hradio 15 1 0 64 \$0-passo \$0-cursor empty 0 -8 0 10
-162280 -262144 -1 0;
#X obj 1013 51 + 1;
#X floatatom 1013 110 3 0 0 0 - - -;
#X obj 80 187 outlet;
#X obj 103 18 inlet;
#X obj 209 18 inlet;
#X text 176 86 -/o;
#X obj 97 87 bng 17 250 50 0 \$0-reset \$0-reset_in <-- 22 8 0 10 -204800
-1 -1;
#X obj 881 88 tgl 15 0 \$0-click \$0-click_in CLICK 21 8 0 10 -261682
-1 -1 0 1;
#X obj 944 89 hsl 25 13 0 1 0 0 \$0-clickvol \$0-clickvol_in VOL 32
7 0 10 -261682 -1 -1 480 1;
#X obj 1072 187 outlet;
#X obj 1129 187 outlet;
#X obj 1072 100 t f f;
#X obj 103 40 s \$0-play_in;
#X obj 209 40 s \$0-bpm_in;
#X obj 255 87 nbx 3 17 0 999 0 0 \$0-bpm \$0-bpm_in BPM 42 9 0 10 -1
-262144 -1 100 256;
#X obj 422 87 nbx 2 17 0 99 0 0 \$0-div \$0-div_in DIV 34 9 0 10 -191407
-262144 -1 4 256;
#N canvas 126 357 663 142 init 0;
#X obj 118 108 s \$0-div_in;
#X obj 33 108 s \$0-bpm_in;
#X obj 203 108 s \$0-modsel_in;
#X obj 513 87 s \$0-click_in;
#X obj 305 108 s \$0-clickvol_in;
#X obj 513 108 s \$0-midiclockout_in;
#X obj 418 108 s \$0-swing_in;
#X obj 33 11 loadbang;
#X obj 33 32 s \$0-lb;
#X obj 33 68 r \$0-lb;
#X msg 33 88 100;
#X obj 118 68 r \$0-lb;
#X msg 118 88 4;
#X obj 203 68 r \$0-lb;
#X msg 203 88 5;
#X obj 513 46 r \$0-lb;
#X msg 513 66 0;
#X obj 305 68 r \$0-lb;
#X msg 305 88 0.2;
#X obj 418 68 r \$0-lb;
#X msg 418 88 0.5;
#X connect 7 0 8 0;
#X connect 9 0 10 0;
#X connect 10 0 1 0;
#X connect 11 0 12 0;
#X connect 12 0 0 0;
#X connect 13 0 14 0;
#X connect 14 0 2 0;
#X connect 15 0 16 0;
#X connect 16 0 3 0;
#X connect 16 0 5 0;
#X connect 17 0 18 0;
#X connect 18 0 4 0;
#X connect 19 0 20 0;
#X connect 20 0 6 0;
#X restore 589 38 pd init;
#X obj 491 87 hradio 17 1 0 6 \$0-modsel \$0-modsel_in MODULO 108 9
0 10 -262144 -1 -1 5;
#X obj 491 87 cnv 3 17 17 empty \$0-mod2 2 6 9 0 10 -166441 -262144
0;
#X obj 508 87 cnv 3 17 17 empty \$0-mod4 4 6 9 0 10 -166441 -262144
0;
#X obj 525 87 cnv 3 17 17 empty \$0-mod8 8 6 9 0 10 -166441 -262144
0;
#X obj 542 87 cnv 3 17 17 empty \$0-mod16 16 3 9 0 10 -166441 -262144
0;
#X obj 559 87 cnv 3 17 17 empty \$0-mod32 32 3 9 0 10 -166441 -262144
0;
#X obj 576 87 cnv 3 17 17 empty \$0-mod64 64 3 9 0 10 -33289 -262144
0;
#N canvas 96 41 601 189 mod_sel 0;
#X obj 42 61 sel 0 1 2 3 4 5;
#X msg 42 84 2;
#X msg 72 84 4;
#X msg 102 84 8;
#X msg 132 84 16;
#X msg 162 84 32;
#X msg 192 84 64;
#X obj 42 40 r \$0-modsel;
#X obj 42 107 s \$0-mod;
#X text 39 127 converte [hradio] em modulo;
#X obj 271 79 pack f \$0;
#X msg 271 100 \; \$2-mod\$1 color 12 0;
#X obj 401 79 pack f \$0;
#X msg 401 100 \; \$2-mod\$1 color 1 0;
#X obj 271 36 r \$0-mod;
#X obj 271 57 t f b;
#X msg 401 57 2 \, 4 \, 8 \, 16 \, 32 \, 64;
#X text 268 134 altera cores do seletor de modulo;
#X connect 0 0 1 0;
#X connect 0 1 2 0;
#X connect 0 2 3 0;
#X connect 0 3 4 0;
#X connect 0 4 5 0;
#X connect 0 5 6 0;
#X connect 1 0 8 0;
#X connect 2 0 8 0;
#X connect 3 0 8 0;
#X connect 4 0 8 0;
#X connect 5 0 8 0;
#X connect 6 0 8 0;
#X connect 7 0 0 0;
#X connect 10 0 11 0;
#X connect 12 0 13 0;
#X connect 14 0 15 0;
#X connect 15 0 10 0;
#X connect 15 1 16 0;
#X connect 16 0 12 0;
#X restore 648 38 pd mod_sel;
#X obj 1162 100 r \$0-mod;
#X text 1071 206 inicio;
#X text 1136 206 fim;
#X obj 1072 122 sel 1;
#X obj 1129 122 sel 64;
#X obj 1072 79 + 1;
#X obj 1072 57 r \$0-cursor;
#X obj 1013 28 r \$0-passo;
#N canvas 117 178 744 617 maquina 0;
#X obj 286 229 metro 250;
#X obj 310 139 / 4;
#X obj 344 122 t b f;
#X obj 189 50 r \$0-play;
#X obj 344 141 s \$0-bpm_in;
#X obj 310 50 r \$0-bpm;
#X obj 344 103 r \$0-div;
#X obj 448 67 s \$1-atrasador_master;
#X obj 118 552 s \$0-cursor;
#X text 446 106 com o mesmo \$0 do pai;
#X text 446 90 envia BPM master para todos [atrasador];
#X obj 580 414 r \$0-bpm;
#X obj 526 381 r \$0-midiclockout;
#X text 519 330 MIDI CLOCK OUT;
#X obj 493 408 spigot;
#X obj 493 353 r \$0-play;
#X text 301 324 PASSO CRU;
#X obj 189 80 t f f;
#X obj 169 203 * 2;
#X obj 310 163 t f f;
#X obj 118 229 metro 500;
#X obj 118 391 del 250;
#X obj 174 254 r \$0-swing;
#X obj 174 274 * 2;
#X obj 157 368 *;
#X obj 169 180 t f f;
#X obj 174 339 s \$0-bpm_in;
#X obj 174 318 t b f;
#X obj 118 342 t b b;
#X obj 118 463 f;
#X obj 147 463 + 1;
#X msg 134 436 0;
#X obj 118 486 % 64;
#N canvas 286 157 228 488 click 0;
#X obj 59 23 inlet;
#X obj 44 237 *~;
#X obj 59 217 vline~;
#X obj 44 437 dac~;
#X obj 44 122 osc~ 660;
#X obj 78 267 sel 0 1;
#X msg 78 288 0;
#X msg 59 195 0 \, 1 20 0 \, 0 20 20;
#X msg 108 288 1;
#X msg 168 105 660;
#X msg 139 105 770;
#X obj 59 153 % 4;
#X obj 59 173 sel 0;
#X obj 139 63 % 16;
#X obj 139 83 sel 0;
#X obj 59 46 t f f;
#X obj 78 247 r \$0-click;
#X obj 78 357 r \$0-clickvol;
#X obj 44 396 *~;
#X obj 44 327 *~;
#X obj 78 327 line~;
#X msg 78 308 \$1 100;
#X obj 78 396 line~;
#X msg 78 377 \$1 100;
#X connect 0 0 15 0;
#X connect 1 0 19 0;
#X connect 2 0 1 1;
#X connect 4 0 1 0;
#X connect 5 0 6 0;
#X connect 5 1 8 0;
#X connect 6 0 21 0;
#X connect 7 0 2 0;
#X connect 8 0 21 0;
#X connect 9 0 4 0;
#X connect 10 0 4 0;
#X connect 11 0 12 0;
#X connect 12 0 7 0;
#X connect 13 0 14 0;
#X connect 14 0 10 0;
#X connect 14 1 9 0;
#X connect 15 0 11 0;
#X connect 15 1 13 0;
#X connect 16 0 5 0;
#X connect 17 0 23 0;
#X connect 18 0 3 0;
#X connect 18 0 3 1;
#X connect 19 0 18 0;
#X connect 20 0 19 1;
#X connect 21 0 20 0;
#X connect 22 0 18 1;
#X connect 23 0 22 0;
#X restore 41 480 pd click;
#X obj 152 486 r \$0-mod;
#X obj 444 165 r \$0-reset;
#X obj 483 212 spigot;
#X obj 516 189 r \$0-play;
#X obj 286 463 f;
#X obj 315 463 + 1;
#X msg 302 436 0;
#X obj 286 486 % 64;
#X obj 320 486 r \$0-mod;
#X obj 286 523 + 1;
#X obj 286 552 s \$0-passo_cru;
#X obj 444 189 t b b b;
#X text 41 324 PASSO SWING;
#X obj 174 296 clip 0.1 1.9;
#N canvas 0 22 179 201 bpm2ms 0;
#X obj 47 25 inlet;
#X obj 47 75 /;
#X obj 47 100 * 60;
#X obj 47 135 outlet;
#X msg 47 52 1000 \$1;
#X connect 0 0 4 0;
#X connect 1 0 2 0;
#X connect 2 0 3 0;
#X connect 4 0 1 0;
#X restore 310 77 pd bpm2ms;
#X obj 312 197 s \$0-passo_tempo;
#N canvas 209 89 271 279 midiclockout 0;
#X obj 107 142 metro;
#X obj 53 83 tgl 15 0 empty empty empty 17 7 0 10 -262144 -1 -1 0 1
;
#X msg 107 175 248;
#X msg 41 175 250;
#X msg 72 175 252;
#X obj 53 143 sel 1 0;
#X floatatom 134 41 5 0 0 0 - - -;
#X floatatom 134 103 5 0 0 0 - - -;
#X obj 134 82 / 24;
#X obj 190 129 metro;
#X obj 53 112 t f f f;
#X obj 190 153 bng 30 250 50 0 empty empty empty 17 7 0 10 -1 -257985
-1;
#X obj 53 18 inlet;
#X obj 134 18 inlet;
#N canvas 0 22 175 212 bpm2ms 0;
#X obj 59 17 inlet;
#X obj 59 157 outlet;
#X msg 59 48 1000 \$1;
#X obj 59 75 /;
#X obj 59 102 * 60;
#X connect 0 0 2 0;
#X connect 2 0 3 0;
#X connect 3 0 4 0;
#X connect 4 0 1 0;
#X restore 134 61 pd bpm2ms;
#X obj 139 235 midiout 17;
#X obj 72 235 midiout 1;
#X obj 72 203 t f f;
#X connect 0 0 2 0;
#X connect 1 0 10 0;
#X connect 2 0 17 0;
#X connect 3 0 17 0;
#X connect 4 0 17 0;
#X connect 5 0 3 0;
#X connect 5 1 4 0;
#X connect 6 0 14 0;
#X connect 7 0 0 1;
#X connect 8 0 7 0;
#X connect 9 0 11 0;
#X connect 10 0 0 0;
#X connect 10 1 5 0;
#X connect 10 2 9 0;
#X connect 12 0 1 0;
#X connect 13 0 6 0;
#X connect 14 0 9 1;
#X connect 14 0 8 0;
#X connect 17 0 16 0;
#X connect 17 1 15 0;
#X restore 493 440 pd midiclockout;
#X connect 0 0 38 0;
#X connect 1 0 19 0;
#X connect 2 0 4 0;
#X connect 2 1 1 1;
#X connect 3 0 17 0;
#X connect 5 0 7 0;
#X connect 5 0 48 0;
#X connect 6 0 2 0;
#X connect 11 0 50 1;
#X connect 12 0 14 1;
#X connect 14 0 50 0;
#X connect 15 0 14 0;
#X connect 17 0 20 0;
#X connect 17 1 0 0;
#X connect 18 0 20 1;
#X connect 19 0 25 0;
#X connect 19 1 0 1;
#X connect 19 1 49 0;
#X connect 20 0 28 0;
#X connect 21 0 29 0;
#X connect 22 0 23 0;
#X connect 23 0 47 0;
#X connect 24 0 21 1;
#X connect 25 0 18 0;
#X connect 25 1 24 0;
#X connect 27 0 26 0;
#X connect 27 1 24 1;
#X connect 28 0 21 0;
#X connect 28 1 29 0;
#X connect 29 0 32 0;
#X connect 29 0 33 0;
#X connect 30 0 29 1;
#X connect 31 0 29 0;
#X connect 32 0 8 0;
#X connect 32 0 30 0;
#X connect 34 0 32 1;
#X connect 35 0 45 0;
#X connect 36 0 20 0;
#X connect 36 0 0 0;
#X connect 37 0 36 1;
#X connect 38 0 41 0;
#X connect 39 0 38 1;
#X connect 40 0 38 0;
#X connect 41 0 43 0;
#X connect 41 0 39 0;
#X connect 42 0 41 1;
#X connect 43 0 44 0;
#X connect 45 0 31 0;
#X connect 45 1 40 0;
#X connect 45 2 36 0;
#X connect 47 0 27 0;
#X connect 48 0 1 0;
#X restore 497 38 pd maquina;
#X obj 891 191 s \$1-passo_master;
#X obj 1013 143 t f f;
#X text 561 190 envia passo para todos [org_step] com mesmo \$0 do
pai;
#X obj 741 88 tgl 15 0 \$0-midiclockout \$0-midiclockout_in MIDI_CLOCK_OUT
21 8 0 10 -260097 -262144 -1 0 1;
#X obj 230 187 outlet;
#X obj 336 89 hsl 50 13 0 1 0 0 \$0-swing \$0-swing_in SW 56 7 0 10
-1 -262144 -1 2450 1;
#X text 73 206 passo swing;
#X text 223 206 passo cru;
#X obj 230 149 r \$0-passo_cru;
#X obj 419 191 s \$1-passo_master_cru;
#N canvas 102 40 511 182 teclado_control 0;
#X obj 103 19 r \$1-teclado_control;
#X obj 103 138 s \$0-reset_in;
#X obj 103 118 bng 15 250 50 0 empty empty empty 17 7 0 10 -262144
-1 -1;
#X obj 191 118 bng 15 250 50 0 empty empty empty 17 7 0 10 -262144
-1 -1;
#X obj 191 138 s \$0-play_in;
#X obj 281 138 s \$0-modsel_in;
#X obj 103 51 route cursor_reset cursor_play cursor_mod;
#X text 310 119 0 a 5;
#X connect 0 0 6 0;
#X connect 2 0 1 0;
#X connect 3 0 4 0;
#X connect 6 0 2 0;
#X connect 6 1 3 0;
#X connect 6 2 5 0;
#X restore 758 38 pd teclado_control;
#X obj 1129 164 del;
#X floatatom 1156 165 5 0 0 0 - - -;
#X obj 1144 144 r \$0-passo_tempo;
#X obj 41 81 cnv 2 10 2 empty empty empty 20 12 0 14 -262144 -66577
0;
#X obj 1029 81 cnv 2 10 2 empty empty empty 20 12 0 14 -262144 -66577
0;
#X obj 1029 128 cnv 2 10 2 empty empty empty 20 12 0 14 -262144 -66577
0;
#X obj 41 128 cnv 2 10 2 empty empty empty 20 12 0 14 -262144 -66577
0;
#X obj 371 128 cnv 2 10 2 empty empty empty 20 12 0 14 -262144 -66577
0;
#X obj 700 128 cnv 2 10 2 empty empty empty 20 12 0 14 -262144 -66577
0;
#N canvas 472 234 393 158 LEIA-ME 0;
#X text 29 106 - licença GPLv3 - http://www.gnu.org/copyleft/gpl.txt
;
#X text 29 26 -- org_abs 0.2 - abstrações orgânicas - 2014;
#X text 29 56 - conjunto de abstrações para controle de áudio e vídeo
\, desenvolvido por brunorohde (brunorohde.wordpress.com / brunorohde@gmail.com)
;
#X restore 363 18 pd LEIA-ME;
#X connect 3 0 4 0;
#X connect 4 0 38 0;
#X connect 6 0 15 0;
#X connect 7 0 16 0;
#X connect 14 0 31 0;
#X connect 14 1 32 0;
#X connect 28 0 32 1;
#X connect 31 0 12 0;
#X connect 32 0 48 0;
#X connect 33 0 14 0;
#X connect 34 0 33 0;
#X connect 35 0 3 0;
#X connect 38 0 5 0;
#X connect 38 1 37 0;
#X connect 45 0 41 0;
#X connect 45 0 46 0;
#X connect 48 0 13 0;
#X connect 50 0 48 1;
#X connect 50 0 49 0;
#X coords 0 -1 1 1 1000 51 2 40 80;
