#N canvas 61 402 1294 315 10;
#X obj 50 64 cnv 15 1210 23 empty \$0-bg empty 20 12 0 14 -261689 -262144
0;
#X obj 52 68 tgl 15 0 \$0-passo1 \$0-passo1in empty 17 7 0 10 -99865
-262144 -1 0 1;
#X obj 67 68 tgl 15 0 \$0-passo2 \$0-passo2in empty 17 7 0 10 -228856
-1 -1 0 1;
#X obj 82 68 tgl 15 0 \$0-passo3 \$0-passo3in empty 17 7 0 10 -228856
-1 -1 0 1;
#X obj 97 68 tgl 15 0 \$0-passo4 \$0-passo4in empty 17 7 0 10 -228856
-1 -1 0 1;
#X obj 112 68 tgl 15 0 \$0-passo5 \$0-passo5in empty 17 7 0 10 -191407
-1 -1 0 1;
#X obj 127 68 tgl 15 0 \$0-passo6 \$0-passo6in empty 17 7 0 10 -228856
-1 -1 1 1;
#X obj 142 68 tgl 15 0 \$0-passo7 \$0-passo7in empty 17 7 0 10 -228856
-1 -1 0 1;
#X obj 157 68 tgl 15 0 \$0-passo8 \$0-passo8in empty 17 7 0 10 -228856
-1 -1 0 1;
#X obj 172 68 tgl 15 0 \$0-passo9 \$0-passo9in empty 17 7 0 10 -191407
-1 -1 1 1;
#X obj 187 68 tgl 15 0 \$0-passo10 \$0-passo10in empty 17 7 0 10 -228856
-1 -1 0 1;
#X obj 202 68 tgl 15 0 \$0-passo11 \$0-passo11in empty 17 7 0 10 -228856
-1 -1 0 1;
#X obj 217 68 tgl 15 0 \$0-passo12 \$0-passo12in empty 17 7 0 10 -228856
-1 -1 0 1;
#X obj 232 68 tgl 15 0 \$0-passo13 \$0-passo13in empty 17 7 0 10 -191407
-1 -1 0 1;
#X obj 247 68 tgl 15 0 \$0-passo14 \$0-passo14in empty 17 7 0 10 -228856
-1 -1 0 1;
#X obj 262 68 tgl 15 0 \$0-passo15 \$0-passo15in empty 17 7 0 10 -228856
-1 -1 1 1;
#X obj 277 68 tgl 15 0 \$0-passo16 \$0-passo16in empty 17 7 0 10 -228856
-1 -1 0 1;
#X obj 292 68 tgl 15 0 \$0-passo17 \$0-passo17in empty 17 7 0 10 -99865
-262144 -1 0 1;
#X obj 307 68 tgl 15 0 \$0-passo18 \$0-passo18in empty 17 7 0 10 -228856
-1 -1 0 1;
#X obj 322 68 tgl 15 0 \$0-passo19 \$0-passo19in empty 17 7 0 10 -228856
-1 -1 0 1;
#X obj 337 68 tgl 15 0 \$0-passo20 \$0-passo20in empty 17 7 0 10 -228856
-1 -1 0 1;
#X obj 352 68 tgl 15 0 \$0-passo21 \$0-passo21in empty 17 7 0 10 -191407
-1 -1 0 1;
#X obj 367 68 tgl 15 0 \$0-passo22 \$0-passo22in empty 17 7 0 10 -228856
-1 -1 0 1;
#X obj 382 68 tgl 15 0 \$0-passo23 \$0-passo23in empty 17 7 0 10 -228856
-1 -1 0 1;
#X obj 397 68 tgl 15 0 \$0-passo24 \$0-passo24in empty 17 7 0 10 -228856
-1 -1 0 1;
#X obj 412 68 tgl 15 0 \$0-passo25 \$0-passo25in empty 17 7 0 10 -191407
-1 -1 0 1;
#X obj 427 68 tgl 15 0 \$0-passo26 \$0-passo26in empty 17 7 0 10 -228856
-1 -1 1 1;
#X obj 442 68 tgl 15 0 \$0-passo27 \$0-passo27in empty 17 7 0 10 -228856
-1 -1 0 1;
#X obj 457 68 tgl 15 0 \$0-passo28 \$0-passo28in empty 17 7 0 10 -228856
-1 -1 0 1;
#X obj 472 68 tgl 15 0 \$0-passo29 \$0-passo29in empty 17 7 0 10 -191407
-1 -1 0 1;
#X obj 487 68 tgl 15 0 \$0-passo30 \$0-passo30in empty 17 7 0 10 -228856
-1 -1 0 1;
#X obj 502 68 tgl 15 0 \$0-passo31 \$0-passo31in empty 17 7 0 10 -228856
-1 -1 0 1;
#X obj 517 68 tgl 15 0 \$0-passo32 \$0-passo32in empty 17 7 0 10 -228856
-1 -1 0 1;
#X obj 532 68 tgl 15 0 \$0-passo33 \$0-passo33in empty 17 7 0 10 -99865
-262144 -1 0 1;
#X obj 547 68 tgl 15 0 \$0-passo34 \$0-passo34in empty 17 7 0 10 -228856
-1 -1 0 1;
#X obj 562 68 tgl 15 0 \$0-passo35 \$0-passo35in empty 17 7 0 10 -228856
-1 -1 0 1;
#X obj 577 68 tgl 15 0 \$0-passo36 \$0-passo36in empty 17 7 0 10 -228856
-1 -1 0 1;
#X obj 592 68 tgl 15 0 \$0-passo37 \$0-passo37in empty 17 7 0 10 -191407
-1 -1 0 1;
#X obj 607 68 tgl 15 0 \$0-passo38 \$0-passo38in empty 17 7 0 10 -228856
-1 -1 0 1;
#X obj 622 68 tgl 15 0 \$0-passo39 \$0-passo39in empty 17 7 0 10 -228856
-1 -1 0 1;
#X obj 637 68 tgl 15 0 \$0-passo40 \$0-passo40in empty 17 7 0 10 -228856
-1 -1 0 1;
#X obj 652 68 tgl 15 0 \$0-passo41 \$0-passo41in empty 17 7 0 10 -191407
-1 -1 0 1;
#X obj 667 68 tgl 15 0 \$0-passo42 \$0-passo42in empty 17 7 0 10 -228856
-1 -1 0 1;
#X obj 682 68 tgl 15 0 \$0-passo43 \$0-passo43in empty 17 7 0 10 -228856
-1 -1 0 1;
#X obj 697 68 tgl 15 0 \$0-passo44 \$0-passo44in empty 17 7 0 10 -228856
-1 -1 0 1;
#X obj 712 68 tgl 15 0 \$0-passo45 \$0-passo45in empty 17 7 0 10 -191407
-1 -1 0 1;
#X obj 727 68 tgl 15 0 \$0-passo46 \$0-passo46in empty 17 7 0 10 -228856
-1 -1 0 1;
#X obj 742 68 tgl 15 0 \$0-passo47 \$0-passo47in empty 17 7 0 10 -228856
-1 -1 0 1;
#X obj 757 68 tgl 15 0 \$0-passo48 \$0-passo48in empty 17 7 0 10 -228856
-1 -1 0 1;
#X obj 772 68 tgl 15 0 \$0-passo49 \$0-passo49in empty 17 7 0 10 -99865
-262144 -1 0 1;
#X obj 787 68 tgl 15 0 \$0-passo50 \$0-passo50in empty 17 7 0 10 -228856
-1 -1 0 1;
#X obj 802 68 tgl 15 0 \$0-passo51 \$0-passo51in empty 17 7 0 10 -228856
-1 -1 0 1;
#X obj 817 68 tgl 15 0 \$0-passo52 \$0-passo52in empty 17 7 0 10 -228856
-1 -1 0 1;
#X obj 832 68 tgl 15 0 \$0-passo53 \$0-passo53in empty 17 7 0 10 -191407
-1 -1 0 1;
#X obj 847 68 tgl 15 0 \$0-passo54 \$0-passo54in empty 17 7 0 10 -228856
-1 -1 0 1;
#X obj 862 68 tgl 15 0 \$0-passo55 \$0-passo55in empty 17 7 0 10 -228856
-1 -1 0 1;
#X obj 877 68 tgl 15 0 \$0-passo56 \$0-passo56in empty 17 7 0 10 -228856
-1 -1 1 1;
#X obj 892 68 tgl 15 0 \$0-passo57 \$0-passo57in empty 17 7 0 10 -191407
-1 -1 0 1;
#X obj 907 68 tgl 15 0 \$0-passo58 \$0-passo58in empty 17 7 0 10 -228856
-1 -1 0 1;
#X obj 922 68 tgl 15 0 \$0-passo59 \$0-passo59in empty 17 7 0 10 -228856
-1 -1 0 1;
#X obj 937 68 tgl 15 0 \$0-passo60 \$0-passo60in empty 17 7 0 10 -228856
-1 -1 0 1;
#X obj 952 68 tgl 15 0 \$0-passo61 \$0-passo61in empty 17 7 0 10 -191407
-1 -1 0 1;
#X obj 967 68 tgl 15 0 \$0-passo62 \$0-passo62in empty 17 7 0 10 -228856
-1 -1 0 1;
#X obj 982 68 tgl 15 0 \$0-passo63 \$0-passo63in empty 17 7 0 10 -228856
-1 -1 0 1;
#X obj 997 68 tgl 15 0 \$0-passo64 \$0-passo64in empty 17 7 0 10 -228856
-1 -1 0 1;
#X floatatom 1071 68 3 0 127 0 - #0-velin #0-vel;
#X floatatom 1031 68 3 0 127 0 - #0-notain #0-nota;
#X obj 85 267 outlet;
#N canvas 20 164 1363 519 score 0;
#X obj 34 24 r \$0-passo1;
#X obj 114 24 r \$0-passo2;
#X obj 194 24 r \$0-passo3;
#X obj 274 24 r \$0-passo4;
#X obj 354 24 r \$0-passo5;
#X obj 434 24 r \$0-passo6;
#X obj 514 24 r \$0-passo7;
#X obj 594 24 r \$0-passo8;
#X obj 674 24 r \$0-passo9;
#X obj 754 24 r \$0-passo10;
#X obj 834 24 r \$0-passo11;
#X obj 914 24 r \$0-passo12;
#X obj 994 24 r \$0-passo13;
#X obj 1074 24 r \$0-passo14;
#X obj 1154 24 r \$0-passo15;
#X obj 1234 24 r \$0-passo16;
#X obj 559 481 tabwrite \$0-score;
#X obj 34 68 s \$0-canalscore;
#X obj 559 360 r \$0-canalscore;
#X obj 114 46 pack f 1;
#X obj 114 68 s \$0-canalscore;
#X obj 194 68 s \$0-canalscore;
#X obj 274 68 s \$0-canalscore;
#X obj 354 68 s \$0-canalscore;
#X obj 434 68 s \$0-canalscore;
#X obj 514 68 s \$0-canalscore;
#X obj 594 68 s \$0-canalscore;
#X obj 674 68 s \$0-canalscore;
#X obj 754 68 s \$0-canalscore;
#X obj 834 68 s \$0-canalscore;
#X obj 914 68 s \$0-canalscore;
#X obj 994 68 s \$0-canalscore;
#X obj 1074 68 s \$0-canalscore;
#X obj 1154 68 s \$0-canalscore;
#X obj 1234 68 s \$0-canalscore;
#X obj 34 46 pack f 0;
#X obj 194 46 pack f 2;
#X obj 274 46 pack f 3;
#X obj 354 46 pack f 4;
#X obj 434 46 pack f 5;
#X obj 514 46 pack f 6;
#X obj 594 46 pack f 7;
#X obj 674 46 pack f 8;
#X obj 754 46 pack f 9;
#X obj 834 46 pack f 10;
#X obj 914 46 pack f 11;
#X obj 994 46 pack f 12;
#X obj 1074 46 pack f 13;
#X obj 1154 46 pack f 14;
#X obj 1234 46 pack f 15;
#X obj 34 104 r \$0-passo17;
#X obj 114 104 r \$0-passo18;
#X obj 194 104 r \$0-passo19;
#X obj 274 104 r \$0-passo20;
#X obj 354 104 r \$0-passo21;
#X obj 434 104 r \$0-passo22;
#X obj 514 104 r \$0-passo23;
#X obj 594 104 r \$0-passo24;
#X obj 674 104 r \$0-passo25;
#X obj 754 104 r \$0-passo26;
#X obj 834 104 r \$0-passo27;
#X obj 914 104 r \$0-passo28;
#X obj 994 104 r \$0-passo29;
#X obj 1074 104 r \$0-passo30;
#X obj 1154 104 r \$0-passo31;
#X obj 1234 104 r \$0-passo32;
#X obj 34 148 s \$0-canalscore;
#X obj 114 148 s \$0-canalscore;
#X obj 194 148 s \$0-canalscore;
#X obj 274 148 s \$0-canalscore;
#X obj 354 148 s \$0-canalscore;
#X obj 434 148 s \$0-canalscore;
#X obj 514 148 s \$0-canalscore;
#X obj 594 148 s \$0-canalscore;
#X obj 674 148 s \$0-canalscore;
#X obj 754 148 s \$0-canalscore;
#X obj 834 148 s \$0-canalscore;
#X obj 914 148 s \$0-canalscore;
#X obj 994 148 s \$0-canalscore;
#X obj 1074 148 s \$0-canalscore;
#X obj 1154 148 s \$0-canalscore;
#X obj 1234 148 s \$0-canalscore;
#X obj 34 126 pack f 16;
#X obj 114 126 pack f 17;
#X obj 194 126 pack f 18;
#X obj 274 126 pack f 19;
#X obj 354 126 pack f 20;
#X obj 434 126 pack f 21;
#X obj 514 126 pack f 22;
#X obj 594 126 pack f 23;
#X obj 674 126 pack f 24;
#X obj 754 126 pack f 25;
#X obj 834 126 pack f 26;
#X obj 914 126 pack f 27;
#X obj 994 126 pack f 28;
#X obj 1074 126 pack f 29;
#X obj 1154 126 pack f 30;
#X obj 1234 126 pack f 31;
#X obj 34 184 r \$0-passo33;
#X obj 114 184 r \$0-passo34;
#X obj 194 184 r \$0-passo35;
#X obj 274 183 r \$0-passo36;
#X obj 354 184 r \$0-passo37;
#X obj 434 184 r \$0-passo38;
#X obj 514 184 r \$0-passo39;
#X obj 594 184 r \$0-passo40;
#X obj 674 184 r \$0-passo41;
#X obj 754 184 r \$0-passo42;
#X obj 834 184 r \$0-passo43;
#X obj 914 184 r \$0-passo44;
#X obj 994 184 r \$0-passo45;
#X obj 1074 184 r \$0-passo46;
#X obj 1154 184 r \$0-passo47;
#X obj 1234 184 r \$0-passo48;
#X obj 34 228 s \$0-canalscore;
#X obj 114 228 s \$0-canalscore;
#X obj 194 228 s \$0-canalscore;
#X obj 274 228 s \$0-canalscore;
#X obj 354 228 s \$0-canalscore;
#X obj 434 228 s \$0-canalscore;
#X obj 514 228 s \$0-canalscore;
#X obj 594 228 s \$0-canalscore;
#X obj 674 228 s \$0-canalscore;
#X obj 754 228 s \$0-canalscore;
#X obj 834 228 s \$0-canalscore;
#X obj 914 228 s \$0-canalscore;
#X obj 994 228 s \$0-canalscore;
#X obj 1074 228 s \$0-canalscore;
#X obj 1154 228 s \$0-canalscore;
#X obj 1234 228 s \$0-canalscore;
#X obj 34 206 pack f 32;
#X obj 114 206 pack f 33;
#X obj 194 206 pack f 34;
#X obj 274 206 pack f 35;
#X obj 354 206 pack f 36;
#X obj 434 206 pack f 37;
#X obj 514 206 pack f 38;
#X obj 594 206 pack f 39;
#X obj 674 206 pack f 40;
#X obj 754 206 pack f 41;
#X obj 834 206 pack f 42;
#X obj 914 206 pack f 43;
#X obj 994 206 pack f 44;
#X obj 1074 206 pack f 45;
#X obj 1154 206 pack f 46;
#X obj 1234 206 pack f 47;
#X obj 34 264 r \$0-passo49;
#X obj 114 264 r \$0-passo50;
#X obj 194 264 r \$0-passo51;
#X obj 274 264 r \$0-passo52;
#X obj 354 264 r \$0-passo53;
#X obj 434 264 r \$0-passo54;
#X obj 514 264 r \$0-passo55;
#X obj 594 264 r \$0-passo56;
#X obj 674 264 r \$0-passo57;
#X obj 754 264 r \$0-passo58;
#X obj 834 264 r \$0-passo59;
#X obj 914 264 r \$0-passo60;
#X obj 994 264 r \$0-passo61;
#X obj 1074 264 r \$0-passo62;
#X obj 1154 264 r \$0-passo63;
#X obj 1234 264 r \$0-passo64;
#X obj 34 318 s \$0-canalscore;
#X obj 114 318 s \$0-canalscore;
#X obj 194 318 s \$0-canalscore;
#X obj 274 318 s \$0-canalscore;
#X obj 354 318 s \$0-canalscore;
#X obj 434 318 s \$0-canalscore;
#X obj 514 318 s \$0-canalscore;
#X obj 594 318 s \$0-canalscore;
#X obj 674 318 s \$0-canalscore;
#X obj 754 318 s \$0-canalscore;
#X obj 834 318 s \$0-canalscore;
#X obj 914 318 s \$0-canalscore;
#X obj 994 318 s \$0-canalscore;
#X obj 1074 318 s \$0-canalscore;
#X obj 1154 318 s \$0-canalscore;
#X obj 1234 318 s \$0-canalscore;
#X obj 34 296 pack f 48;
#X obj 114 296 pack f 49;
#X obj 194 296 pack f 50;
#X obj 274 296 pack f 51;
#X obj 354 296 pack f 52;
#X obj 434 296 pack f 53;
#X obj 514 296 pack f 54;
#X obj 594 296 pack f 55;
#X obj 674 296 pack f 56;
#X obj 754 296 pack f 57;
#X obj 834 296 pack f 58;
#X obj 914 296 pack f 59;
#X obj 994 296 pack f 60;
#X obj 1074 296 pack f 61;
#X obj 1154 296 pack f 62;
#X obj 1234 296 pack f 63;
#X obj 559 386 t a a;
#X obj 693 403 unpack f f;
#X obj 750 426 + 18;
#X text 783 425 offset array temp;
#X obj 705 481 tabwrite \$0-score_temp;
#X obj 705 449 pack f f;
#X connect 0 0 35 0;
#X connect 1 0 19 0;
#X connect 2 0 36 0;
#X connect 3 0 37 0;
#X connect 4 0 38 0;
#X connect 5 0 39 0;
#X connect 6 0 40 0;
#X connect 7 0 41 0;
#X connect 8 0 42 0;
#X connect 9 0 43 0;
#X connect 10 0 44 0;
#X connect 11 0 45 0;
#X connect 12 0 46 0;
#X connect 13 0 47 0;
#X connect 14 0 48 0;
#X connect 15 0 49 0;
#X connect 18 0 194 0;
#X connect 19 0 20 0;
#X connect 35 0 17 0;
#X connect 36 0 21 0;
#X connect 37 0 22 0;
#X connect 38 0 23 0;
#X connect 39 0 24 0;
#X connect 40 0 25 0;
#X connect 41 0 26 0;
#X connect 42 0 27 0;
#X connect 43 0 28 0;
#X connect 44 0 29 0;
#X connect 45 0 30 0;
#X connect 46 0 31 0;
#X connect 47 0 32 0;
#X connect 48 0 33 0;
#X connect 49 0 34 0;
#X connect 50 0 82 0;
#X connect 51 0 83 0;
#X connect 52 0 84 0;
#X connect 53 0 85 0;
#X connect 54 0 86 0;
#X connect 55 0 87 0;
#X connect 56 0 88 0;
#X connect 57 0 89 0;
#X connect 58 0 90 0;
#X connect 59 0 91 0;
#X connect 60 0 92 0;
#X connect 61 0 93 0;
#X connect 62 0 94 0;
#X connect 63 0 95 0;
#X connect 64 0 96 0;
#X connect 65 0 97 0;
#X connect 82 0 66 0;
#X connect 83 0 67 0;
#X connect 84 0 68 0;
#X connect 85 0 69 0;
#X connect 86 0 70 0;
#X connect 87 0 71 0;
#X connect 88 0 72 0;
#X connect 89 0 73 0;
#X connect 90 0 74 0;
#X connect 91 0 75 0;
#X connect 92 0 76 0;
#X connect 93 0 77 0;
#X connect 94 0 78 0;
#X connect 95 0 79 0;
#X connect 96 0 80 0;
#X connect 97 0 81 0;
#X connect 98 0 130 0;
#X connect 99 0 131 0;
#X connect 100 0 132 0;
#X connect 101 0 133 0;
#X connect 102 0 134 0;
#X connect 103 0 135 0;
#X connect 104 0 136 0;
#X connect 105 0 137 0;
#X connect 106 0 138 0;
#X connect 107 0 139 0;
#X connect 108 0 140 0;
#X connect 109 0 141 0;
#X connect 110 0 142 0;
#X connect 111 0 143 0;
#X connect 112 0 144 0;
#X connect 113 0 145 0;
#X connect 130 0 114 0;
#X connect 131 0 115 0;
#X connect 132 0 116 0;
#X connect 133 0 117 0;
#X connect 134 0 118 0;
#X connect 135 0 119 0;
#X connect 136 0 120 0;
#X connect 137 0 121 0;
#X connect 138 0 122 0;
#X connect 139 0 123 0;
#X connect 140 0 124 0;
#X connect 141 0 125 0;
#X connect 142 0 126 0;
#X connect 143 0 127 0;
#X connect 144 0 128 0;
#X connect 145 0 129 0;
#X connect 146 0 178 0;
#X connect 147 0 179 0;
#X connect 148 0 180 0;
#X connect 149 0 181 0;
#X connect 150 0 182 0;
#X connect 151 0 183 0;
#X connect 152 0 184 0;
#X connect 153 0 185 0;
#X connect 154 0 186 0;
#X connect 155 0 187 0;
#X connect 156 0 188 0;
#X connect 157 0 189 0;
#X connect 158 0 190 0;
#X connect 159 0 191 0;
#X connect 160 0 192 0;
#X connect 161 0 193 0;
#X connect 178 0 162 0;
#X connect 179 0 163 0;
#X connect 180 0 164 0;
#X connect 181 0 165 0;
#X connect 182 0 166 0;
#X connect 183 0 167 0;
#X connect 184 0 168 0;
#X connect 185 0 169 0;
#X connect 186 0 170 0;
#X connect 187 0 171 0;
#X connect 188 0 172 0;
#X connect 189 0 173 0;
#X connect 190 0 174 0;
#X connect 191 0 175 0;
#X connect 192 0 176 0;
#X connect 193 0 177 0;
#X connect 194 0 16 0;
#X connect 194 1 195 0;
#X connect 195 0 199 0;
#X connect 195 1 196 0;
#X connect 196 0 199 1;
#X connect 199 0 198 0;
#X restore 667 156 pd score;
#N canvas 306 274 411 270 init 0;
#X obj 159 56 s \$0-velin;
#X obj 31 56 s \$0-notain;
#X obj 31 132 s \$0-midi_write_in;
#X obj 309 16 loadbang;
#X obj 309 36 s \$0-lb;
#X obj 159 132 s \$0-intervalo_in;
#X obj 159 152 s \$0-intervalo_r_in;
#X obj 31 152 s \$0-swing_in;
#X obj 31 172 s \$0-hold_in;
#X obj 159 228 s \$0-random_sens_in;
#X obj 309 144 == 0;
#X msg 309 204 90;
#X obj 309 228 s \$0-velin;
#X obj 336 204 f;
#X obj 309 124 t f f;
#X obj 309 164 sel 1;
#X obj 336 184 t b;
#X obj 31 90 r \$0-lb;
#X msg 31 111 0;
#X obj 159 90 r \$0-lb;
#X msg 159 111 4;
#X obj 159 186 r \$0-lb;
#X msg 159 207 0.5;
#X obj 309 104 f \$3;
#X obj 309 84 r \$0-lb;
#X obj 159 16 r \$0-lb;
#X msg 159 36 70;
#X obj 31 16 r \$0-lb;
#X obj 31 36 f \$2;
#X connect 3 0 4 0;
#X connect 10 0 15 0;
#X connect 11 0 12 0;
#X connect 13 0 12 0;
#X connect 14 0 10 0;
#X connect 14 1 13 1;
#X connect 15 0 11 0;
#X connect 15 1 16 0;
#X connect 16 0 13 0;
#X connect 17 0 18 0;
#X connect 18 0 2 0;
#X connect 18 0 7 0;
#X connect 18 0 8 0;
#X connect 19 0 20 0;
#X connect 20 0 5 0;
#X connect 20 0 6 0;
#X connect 21 0 22 0;
#X connect 22 0 9 0;
#X connect 23 0 14 0;
#X connect 24 0 23 0;
#X connect 25 0 26 0;
#X connect 26 0 0 0;
#X connect 27 0 28 0;
#X connect 28 0 1 0;
#X restore 667 131 pd init;
#N canvas 0 22 343 473 midi_write 0;
#X obj 67 157 unpack f f;
#X obj 115 186 r \$0-nota;
#X obj 100 207 ==;
#X obj 67 228 spigot;
#X obj 67 207 f;
#X obj 67 186 t b f;
#X obj 67 250 t b f;
#X obj 223 251 r \$0-cursor;
#X obj 223 271 - 1;
#X obj 94 293 tabwrite \$0-velocidade;
#X obj 94 271 / 127;
#X obj 67 131 spigot;
#X obj 67 38 notein;
#X obj 67 60 stripnote;
#X obj 67 81 pack f f;
#X obj 100 106 r \$0-midi_write;
#X obj 67 354 pack f f \$0;
#X msg 67 332 1;
#X msg 67 386 \; \$3-passo\$2in \$1;
#X obj 98 332 r \$0-cursor;
#X connect 0 0 5 0;
#X connect 0 1 4 1;
#X connect 1 0 2 1;
#X connect 2 0 3 1;
#X connect 3 0 6 0;
#X connect 4 0 3 0;
#X connect 5 0 4 0;
#X connect 5 1 2 0;
#X connect 6 0 17 0;
#X connect 6 1 10 0;
#X connect 7 0 8 0;
#X connect 8 0 9 1;
#X connect 10 0 9 0;
#X connect 11 0 0 0;
#X connect 12 0 13 0;
#X connect 12 1 13 1;
#X connect 13 0 14 0;
#X connect 13 1 14 1;
#X connect 14 0 11 0;
#X connect 15 0 11 1;
#X connect 16 0 18 0;
#X connect 17 0 16 0;
#X connect 19 0 16 1;
#X restore 667 206 pd midi_write;
#N canvas 243 22 1060 815 edita_score 0;
#X obj 377 293 pack f f;
#X obj 422 270 + 1;
#X obj 377 322 tabwrite \$0-score_temp2;
#X obj 377 174 f;
#X obj 403 174 + 1;
#X obj 377 150 until;
#X msg 414 150 0;
#X obj 377 128 t f b;
#X msg 377 106 100;
#X obj 377 198 t f f;
#X obj 377 223 tabread \$0-score_temp;
#X msg 459 253 -1;
#X msg 489 253 0;
#X msg 519 253 1;
#X obj 207 212 f;
#X obj 233 212 + 1;
#X obj 207 188 until;
#X msg 244 188 0;
#X obj 207 322 tabwrite \$0-score_temp;
#X obj 207 292 pack f f;
#X obj 207 166 t f b;
#X obj 207 236 t f f;
#X msg 207 144 100;
#X obj 207 263 tabread \$0-score_temp2;
#X obj 343 40 r \$0-fw;
#X msg 53 301 \; \$3-passo\$2in \$1;
#X obj 53 278 pack f f \$0;
#X obj 53 144 f;
#X obj 79 144 + 1;
#X obj 31 122 until;
#X msg 31 79 64;
#X obj 31 100 t f b;
#X obj 84 256 + 1;
#X msg 68 122 0;
#X obj 53 167 t f f;
#X obj 53 224 tabread \$0-score_temp;
#X obj 53 195 + 18;
#X obj 343 62 t b b b b;
#X obj 190 62 t b b b b;
#X obj 190 40 r \$0-rw;
#X msg 493 69 const 0;
#X msg 563 69 const 1;
#X obj 520 117 s \$0-score;
#X obj 493 140 s \$0-flushscore;
#X obj 493 92 t b a;
#X obj 493 46 r \$0-nada;
#X obj 563 46 r \$0-tudo;
#X obj 732 337 pack f f;
#X obj 798 186 f;
#X obj 824 186 + 1;
#X msg 813 162 0;
#X obj 732 146 until;
#X msg 733 98 64;
#X obj 732 169 t b b;
#X obj 733 122 t f b;
#X msg 902 298 \; \$3-passo\$2in \$1;
#X obj 902 275 pack f f \$0;
#X obj 902 167 f;
#X obj 928 167 + 1;
#X obj 880 145 until;
#X msg 880 102 64;
#X obj 880 123 t f b;
#X obj 671 73 t b b;
#X obj 933 253 + 1;
#X msg 917 145 0;
#X obj 902 221 tabread \$0-score;
#X obj 732 364 tabwrite \$0-score;
#X obj 880 60 r \$0-flushscore;
#X obj 633 121 s \$0-flushscore;
#X obj 671 95 del 30;
#X obj 880 81 t b;
#X obj 902 190 t f f;
#X obj 671 50 r \$0-random;
#X text 670 30 RANDOM SCORE;
#X text 879 40 MANDA SCORE PRO VISOR;
#X text 526 25 NADA/TUDO;
#X text 207 20 RW;
#X text 359 20 FW;
#X obj 70 638 pack f f \$0;
#X msg 70 616 1;
#X msg 70 667 \; \$3-passo\$2in \$1;
#X obj 70 486 f;
#X obj 96 486 + 1;
#X obj 48 464 until;
#X msg 48 421 64;
#X obj 48 442 t f b;
#X msg 85 464 0;
#X obj 70 564 % 2;
#X obj 70 509 t f f;
#X obj 130 547 r \$0-intervalo;
#X obj 48 399 r \$0-insert;
#X text 46 379 INSERE NOTAS A CADA INTERVALO;
#X obj 97 533 + 1;
#X obj 70 588 sel 0;
#X obj 300 638 pack f f \$0;
#X msg 300 667 \; \$3-passo\$2in \$1;
#X obj 300 486 f;
#X obj 326 486 + 1;
#X obj 278 464 until;
#X msg 278 421 64;
#X obj 278 442 t f b;
#X msg 315 464 0;
#X obj 300 564 % 2;
#X obj 300 509 t f f;
#X obj 327 533 + 1;
#X obj 300 588 sel 0;
#X text 276 379 REMOVE NOTAS A CADA INTERVALO;
#X obj 278 399 r \$0-remove;
#X obj 360 547 r \$0-intervalo_r;
#X msg 300 616 0;
#X obj 732 214 random 100;
#X obj 732 286 moses 50;
#X obj 777 241 r \$0-random_sens;
#X obj 777 260 * 100;
#X msg 777 310 0;
#X msg 732 310 1;
#X obj 630 485 r \$0-nota;
#X obj 603 506 == \$2;
#X obj 570 528 spigot;
#X obj 570 423 r \$1-teclado_control;
#X obj 570 449 route paste_list control_note quad;
#X obj 679 696 f;
#X text 705 695 quad;
#X obj 610 724 prepend;
#X obj 570 558 list split 1;
#X obj 583 676 list;
#X obj 583 776 s \$0-flushscore;
#X obj 583 701 t b a;
#X obj 649 696 f 0;
#X obj 570 639 t b b;
#X obj 610 639 t b b;
#X obj 610 753 s \$0-score;
#X obj 570 614 sel 64 16 4;
#X obj 604 584 t a a;
#X text 568 402 COLA SCORE A PARTIR DO TECLADO;
#X obj 650 639 t b b b;
#X obj 618 676 list;
#N canvas 0 22 210 293 quadX4 0;
#X obj 59 30 inlet;
#X obj 119 30 inlet;
#X obj 59 249 outlet;
#X obj 59 126 until;
#X msg 59 83 4;
#X obj 59 170 list append;
#X obj 59 148 list;
#X obj 59 191 list;
#X obj 59 104 t f b;
#X obj 59 219 list split 64;
#X connect 0 0 4 0;
#X connect 1 0 6 1;
#X connect 3 0 6 0;
#X connect 4 0 8 0;
#X connect 5 0 7 0;
#X connect 6 0 5 0;
#X connect 7 0 5 1;
#X connect 7 0 9 0;
#X connect 8 0 3 0;
#X connect 8 1 5 1;
#X connect 9 0 2 0;
#X restore 689 659 pd quadX4;
#X connect 0 0 2 0;
#X connect 1 0 0 1;
#X connect 3 0 4 0;
#X connect 3 0 9 0;
#X connect 4 0 3 1;
#X connect 5 0 3 0;
#X connect 6 0 3 1;
#X connect 7 0 5 0;
#X connect 7 1 6 0;
#X connect 8 0 7 0;
#X connect 9 0 10 0;
#X connect 9 1 1 0;
#X connect 10 0 0 0;
#X connect 11 0 1 1;
#X connect 12 0 1 1;
#X connect 13 0 1 1;
#X connect 14 0 15 0;
#X connect 14 0 21 0;
#X connect 15 0 14 1;
#X connect 16 0 14 0;
#X connect 17 0 14 1;
#X connect 19 0 18 0;
#X connect 20 0 16 0;
#X connect 20 1 17 0;
#X connect 21 0 23 0;
#X connect 21 1 19 1;
#X connect 22 0 20 0;
#X connect 23 0 19 0;
#X connect 24 0 37 0;
#X connect 26 0 25 0;
#X connect 27 0 28 0;
#X connect 27 0 34 0;
#X connect 28 0 27 1;
#X connect 29 0 27 0;
#X connect 30 0 31 0;
#X connect 31 0 29 0;
#X connect 31 1 33 0;
#X connect 32 0 26 1;
#X connect 33 0 27 1;
#X connect 34 0 36 0;
#X connect 34 1 32 0;
#X connect 35 0 26 0;
#X connect 36 0 35 0;
#X connect 37 0 30 0;
#X connect 37 1 22 0;
#X connect 37 2 8 0;
#X connect 37 3 13 0;
#X connect 38 0 30 0;
#X connect 38 1 22 0;
#X connect 38 2 8 0;
#X connect 38 3 11 0;
#X connect 39 0 38 0;
#X connect 40 0 44 0;
#X connect 41 0 44 0;
#X connect 44 0 43 0;
#X connect 44 1 42 0;
#X connect 45 0 40 0;
#X connect 46 0 41 0;
#X connect 47 0 66 0;
#X connect 48 0 49 0;
#X connect 48 0 47 1;
#X connect 49 0 48 1;
#X connect 50 0 48 1;
#X connect 51 0 53 0;
#X connect 52 0 54 0;
#X connect 53 0 110 0;
#X connect 53 1 48 0;
#X connect 54 0 51 0;
#X connect 54 1 50 0;
#X connect 56 0 55 0;
#X connect 57 0 58 0;
#X connect 57 0 71 0;
#X connect 58 0 57 1;
#X connect 59 0 57 0;
#X connect 60 0 61 0;
#X connect 61 0 59 0;
#X connect 61 1 64 0;
#X connect 62 0 69 0;
#X connect 62 1 52 0;
#X connect 63 0 56 1;
#X connect 64 0 57 1;
#X connect 65 0 56 0;
#X connect 67 0 70 0;
#X connect 69 0 68 0;
#X connect 70 0 60 0;
#X connect 71 0 65 0;
#X connect 71 1 63 0;
#X connect 72 0 62 0;
#X connect 78 0 80 0;
#X connect 79 0 78 0;
#X connect 81 0 82 0;
#X connect 81 0 88 0;
#X connect 82 0 81 1;
#X connect 83 0 81 0;
#X connect 84 0 85 0;
#X connect 85 0 83 0;
#X connect 85 1 86 0;
#X connect 86 0 81 1;
#X connect 87 0 93 0;
#X connect 88 0 87 0;
#X connect 88 1 92 0;
#X connect 89 0 87 1;
#X connect 90 0 84 0;
#X connect 92 0 78 1;
#X connect 93 0 79 0;
#X connect 94 0 95 0;
#X connect 96 0 97 0;
#X connect 96 0 103 0;
#X connect 97 0 96 1;
#X connect 98 0 96 0;
#X connect 99 0 100 0;
#X connect 100 0 98 0;
#X connect 100 1 101 0;
#X connect 101 0 96 1;
#X connect 102 0 105 0;
#X connect 103 0 102 0;
#X connect 103 1 104 0;
#X connect 104 0 94 1;
#X connect 105 0 109 0;
#X connect 107 0 99 0;
#X connect 108 0 102 1;
#X connect 109 0 94 0;
#X connect 110 0 111 0;
#X connect 111 0 115 0;
#X connect 111 1 114 0;
#X connect 112 0 113 0;
#X connect 113 0 111 1;
#X connect 114 0 47 0;
#X connect 115 0 47 0;
#X connect 116 0 117 1;
#X connect 117 0 118 1;
#X connect 118 0 124 0;
#X connect 119 0 120 0;
#X connect 120 0 118 0;
#X connect 120 1 117 0;
#X connect 120 2 121 1;
#X connect 121 0 123 1;
#X connect 123 0 131 0;
#X connect 124 0 132 0;
#X connect 124 1 133 0;
#X connect 125 0 127 0;
#X connect 127 0 126 0;
#X connect 127 1 123 0;
#X connect 128 0 123 1;
#X connect 129 0 125 0;
#X connect 129 1 128 0;
#X connect 130 0 125 0;
#X connect 130 1 121 0;
#X connect 132 0 129 0;
#X connect 132 1 130 0;
#X connect 132 2 135 0;
#X connect 133 0 125 1;
#X connect 133 1 137 1;
#X connect 135 0 136 0;
#X connect 135 1 128 0;
#X connect 135 2 137 0;
#X connect 136 0 127 0;
#X connect 137 0 136 1;
#X restore 667 181 pd edita_score;
#X obj 1106 68 bng 15 250 50 0 \$0-edit \$0-edit_in S 21 8 0 10 -232576
-262144 -1;
#X obj 1140 68 bng 15 250 50 0 \$0-open_vel \$0-open_vel_in V 21 8
0 10 -204800 -1 -1;
#N canvas 0 22 369 170 janelas 0;
#X msg 69 80 vis 1;
#X obj 69 58 r \$0-open_vel;
#X text 82 39 JANELA VEL;
#X obj 192 58 r \$0-edit;
#X msg 192 79 vis 1;
#X text 182 39 JANELA EDITA SEQ;
#X obj 69 103 s pd-\$0-velocidade;
#X obj 192 101 s pd-\$0-edita_seq;
#X connect 0 0 6 0;
#X connect 1 0 0 0;
#X connect 3 0 4 0;
#X connect 4 0 7 0;
#X restore 785 131 pd janelas;
#N canvas 634 173 247 361 compassos 0;
#X obj 45 35 inlet passo;
#N canvas 0 22 1385 240 compasso1 0;
#X obj 42 128 spigot;
#X obj 122 128 spigot;
#X obj 202 128 spigot;
#X obj 282 128 spigot;
#X obj 362 128 spigot;
#X obj 442 128 spigot;
#X obj 522 128 spigot;
#X obj 602 128 spigot;
#X obj 682 128 spigot;
#X obj 762 128 spigot;
#X obj 842 128 spigot;
#X obj 922 128 spigot;
#X obj 1002 128 spigot;
#X obj 1082 128 spigot;
#X obj 1162 128 spigot;
#X obj 1242 128 spigot;
#X obj 42 27 inlet;
#X obj 42 186 outlet;
#X obj 75 98 r \$0-passo1;
#X obj 155 98 r \$0-passo2;
#X obj 235 98 r \$0-passo3;
#X obj 315 98 r \$0-passo4;
#X obj 395 98 r \$0-passo5;
#X obj 475 98 r \$0-passo6;
#X obj 555 98 r \$0-passo7;
#X obj 635 98 r \$0-passo8;
#X obj 715 98 r \$0-passo9;
#X obj 795 98 r \$0-passo10;
#X obj 875 98 r \$0-passo11;
#X obj 955 98 r \$0-passo12;
#X obj 1035 98 r \$0-passo13;
#X obj 1115 98 r \$0-passo14;
#X obj 1195 98 r \$0-passo15;
#X obj 1275 98 r \$0-passo16;
#X obj 42 50 select 1 2 3 4 5 6 7 8 9 10 11 12 13 14 15 16;
#X connect 0 0 17 0;
#X connect 1 0 17 0;
#X connect 2 0 17 0;
#X connect 3 0 17 0;
#X connect 4 0 17 0;
#X connect 5 0 17 0;
#X connect 6 0 17 0;
#X connect 7 0 17 0;
#X connect 8 0 17 0;
#X connect 9 0 17 0;
#X connect 10 0 17 0;
#X connect 11 0 17 0;
#X connect 12 0 17 0;
#X connect 13 0 17 0;
#X connect 14 0 17 0;
#X connect 15 0 17 0;
#X connect 16 0 34 0;
#X connect 18 0 0 1;
#X connect 19 0 1 1;
#X connect 20 0 2 1;
#X connect 21 0 3 1;
#X connect 22 0 4 1;
#X connect 23 0 5 1;
#X connect 24 0 6 1;
#X connect 25 0 7 1;
#X connect 26 0 8 1;
#X connect 27 0 9 1;
#X connect 28 0 10 1;
#X connect 29 0 11 1;
#X connect 30 0 12 1;
#X connect 31 0 13 1;
#X connect 32 0 14 1;
#X connect 33 0 15 1;
#X connect 34 0 0 0;
#X connect 34 1 1 0;
#X connect 34 2 2 0;
#X connect 34 3 3 0;
#X connect 34 4 4 0;
#X connect 34 5 5 0;
#X connect 34 6 6 0;
#X connect 34 7 7 0;
#X connect 34 8 8 0;
#X connect 34 9 9 0;
#X connect 34 10 10 0;
#X connect 34 11 11 0;
#X connect 34 12 12 0;
#X connect 34 13 13 0;
#X connect 34 14 14 0;
#X connect 34 15 15 0;
#X restore 45 95 pd compasso1;
#N canvas 0 22 1385 240 compasso2 0;
#X obj 42 128 spigot;
#X obj 122 128 spigot;
#X obj 202 128 spigot;
#X obj 282 128 spigot;
#X obj 362 128 spigot;
#X obj 442 128 spigot;
#X obj 522 128 spigot;
#X obj 602 128 spigot;
#X obj 682 128 spigot;
#X obj 762 128 spigot;
#X obj 842 128 spigot;
#X obj 922 128 spigot;
#X obj 1002 128 spigot;
#X obj 1082 128 spigot;
#X obj 1162 128 spigot;
#X obj 1242 128 spigot;
#X obj 42 27 inlet;
#X obj 42 186 outlet;
#X obj 42 50 select 17 18 19 20 21 22 23 24 25 26 27 28 29 30 31 32
;
#X obj 75 98 r \$0-passo17;
#X obj 155 98 r \$0-passo18;
#X obj 235 98 r \$0-passo19;
#X obj 315 98 r \$0-passo20;
#X obj 395 98 r \$0-passo21;
#X obj 475 98 r \$0-passo22;
#X obj 555 98 r \$0-passo23;
#X obj 635 98 r \$0-passo24;
#X obj 715 98 r \$0-passo25;
#X obj 795 98 r \$0-passo26;
#X obj 875 98 r \$0-passo27;
#X obj 955 98 r \$0-passo28;
#X obj 1035 98 r \$0-passo29;
#X obj 1115 98 r \$0-passo30;
#X obj 1195 98 r \$0-passo31;
#X obj 1275 98 r \$0-passo32;
#X connect 0 0 17 0;
#X connect 1 0 17 0;
#X connect 2 0 17 0;
#X connect 3 0 17 0;
#X connect 4 0 17 0;
#X connect 5 0 17 0;
#X connect 6 0 17 0;
#X connect 7 0 17 0;
#X connect 8 0 17 0;
#X connect 9 0 17 0;
#X connect 10 0 17 0;
#X connect 11 0 17 0;
#X connect 12 0 17 0;
#X connect 13 0 17 0;
#X connect 14 0 17 0;
#X connect 15 0 17 0;
#X connect 16 0 18 0;
#X connect 18 0 0 0;
#X connect 18 1 1 0;
#X connect 18 2 2 0;
#X connect 18 3 3 0;
#X connect 18 4 4 0;
#X connect 18 5 5 0;
#X connect 18 6 6 0;
#X connect 18 7 7 0;
#X connect 18 8 8 0;
#X connect 18 9 9 0;
#X connect 18 10 10 0;
#X connect 18 11 11 0;
#X connect 18 12 12 0;
#X connect 18 13 13 0;
#X connect 18 14 14 0;
#X connect 18 15 15 0;
#X connect 19 0 0 1;
#X connect 20 0 1 1;
#X connect 21 0 2 1;
#X connect 22 0 3 1;
#X connect 23 0 4 1;
#X connect 24 0 5 1;
#X connect 25 0 6 1;
#X connect 26 0 7 1;
#X connect 27 0 8 1;
#X connect 28 0 9 1;
#X connect 29 0 10 1;
#X connect 30 0 11 1;
#X connect 31 0 12 1;
#X connect 32 0 13 1;
#X connect 33 0 14 1;
#X connect 34 0 15 1;
#X restore 45 114 pd compasso2;
#N canvas 0 22 1385 240 compasso3 0;
#X obj 42 128 spigot;
#X obj 122 128 spigot;
#X obj 202 128 spigot;
#X obj 282 128 spigot;
#X obj 362 128 spigot;
#X obj 442 128 spigot;
#X obj 522 128 spigot;
#X obj 602 128 spigot;
#X obj 682 128 spigot;
#X obj 762 128 spigot;
#X obj 842 128 spigot;
#X obj 922 128 spigot;
#X obj 1002 128 spigot;
#X obj 1082 128 spigot;
#X obj 1162 128 spigot;
#X obj 1242 128 spigot;
#X obj 42 27 inlet;
#X obj 42 186 outlet;
#X obj 42 50 select 33 34 35 36 37 38 39 40 41 42 43 44 45 46 47 48
;
#X obj 75 98 r \$0-passo33;
#X obj 155 98 r \$0-passo34;
#X obj 235 98 r \$0-passo35;
#X obj 315 97 r \$0-passo36;
#X obj 395 98 r \$0-passo37;
#X obj 475 98 r \$0-passo38;
#X obj 555 98 r \$0-passo39;
#X obj 635 98 r \$0-passo40;
#X obj 715 98 r \$0-passo41;
#X obj 795 98 r \$0-passo42;
#X obj 875 98 r \$0-passo43;
#X obj 955 98 r \$0-passo44;
#X obj 1035 98 r \$0-passo45;
#X obj 1115 98 r \$0-passo46;
#X obj 1195 98 r \$0-passo47;
#X obj 1275 98 r \$0-passo48;
#X connect 0 0 17 0;
#X connect 1 0 17 0;
#X connect 2 0 17 0;
#X connect 3 0 17 0;
#X connect 4 0 17 0;
#X connect 5 0 17 0;
#X connect 6 0 17 0;
#X connect 7 0 17 0;
#X connect 8 0 17 0;
#X connect 9 0 17 0;
#X connect 10 0 17 0;
#X connect 11 0 17 0;
#X connect 12 0 17 0;
#X connect 13 0 17 0;
#X connect 14 0 17 0;
#X connect 15 0 17 0;
#X connect 16 0 18 0;
#X connect 18 0 0 0;
#X connect 18 1 1 0;
#X connect 18 2 2 0;
#X connect 18 3 3 0;
#X connect 18 4 4 0;
#X connect 18 5 5 0;
#X connect 18 6 6 0;
#X connect 18 7 7 0;
#X connect 18 8 8 0;
#X connect 18 9 9 0;
#X connect 18 10 10 0;
#X connect 18 11 11 0;
#X connect 18 12 12 0;
#X connect 18 13 13 0;
#X connect 18 14 14 0;
#X connect 18 15 15 0;
#X connect 19 0 0 1;
#X connect 20 0 1 1;
#X connect 21 0 2 1;
#X connect 22 0 3 1;
#X connect 23 0 4 1;
#X connect 24 0 5 1;
#X connect 25 0 6 1;
#X connect 26 0 7 1;
#X connect 27 0 8 1;
#X connect 28 0 9 1;
#X connect 29 0 10 1;
#X connect 30 0 11 1;
#X connect 31 0 12 1;
#X connect 32 0 13 1;
#X connect 33 0 14 1;
#X connect 34 0 15 1;
#X restore 45 134 pd compasso3;
#N canvas 15 189 1385 240 compasso4 0;
#X obj 42 128 spigot;
#X obj 122 128 spigot;
#X obj 202 128 spigot;
#X obj 282 128 spigot;
#X obj 362 128 spigot;
#X obj 442 128 spigot;
#X obj 522 128 spigot;
#X obj 602 128 spigot;
#X obj 682 128 spigot;
#X obj 762 128 spigot;
#X obj 842 128 spigot;
#X obj 922 128 spigot;
#X obj 1002 128 spigot;
#X obj 1082 128 spigot;
#X obj 1162 128 spigot;
#X obj 1242 128 spigot;
#X obj 42 27 inlet;
#X obj 42 186 outlet;
#X obj 42 50 select 49 50 51 52 53 54 55 56 57 58 59 60 61 62 63 64
;
#X obj 75 98 r \$0-passo49;
#X obj 155 98 r \$0-passo50;
#X obj 235 98 r \$0-passo51;
#X obj 316 97 r \$0-passo52;
#X obj 395 98 r \$0-passo53;
#X obj 475 98 r \$0-passo54;
#X obj 555 98 r \$0-passo55;
#X obj 635 98 r \$0-passo56;
#X obj 715 98 r \$0-passo57;
#X obj 795 98 r \$0-passo58;
#X obj 875 98 r \$0-passo59;
#X obj 955 98 r \$0-passo60;
#X obj 1035 98 r \$0-passo61;
#X obj 1115 98 r \$0-passo62;
#X obj 1195 98 r \$0-passo63;
#X obj 1275 98 r \$0-passo64;
#X connect 0 0 17 0;
#X connect 1 0 17 0;
#X connect 2 0 17 0;
#X connect 3 0 17 0;
#X connect 4 0 17 0;
#X connect 5 0 17 0;
#X connect 6 0 17 0;
#X connect 7 0 17 0;
#X connect 8 0 17 0;
#X connect 9 0 17 0;
#X connect 10 0 17 0;
#X connect 11 0 17 0;
#X connect 12 0 17 0;
#X connect 13 0 17 0;
#X connect 14 0 17 0;
#X connect 15 0 17 0;
#X connect 16 0 18 0;
#X connect 18 0 0 0;
#X connect 18 1 1 0;
#X connect 18 2 2 0;
#X connect 18 3 3 0;
#X connect 18 4 4 0;
#X connect 18 5 5 0;
#X connect 18 6 6 0;
#X connect 18 7 7 0;
#X connect 18 8 8 0;
#X connect 18 9 9 0;
#X connect 18 10 10 0;
#X connect 18 11 11 0;
#X connect 18 12 12 0;
#X connect 18 13 13 0;
#X connect 18 14 14 0;
#X connect 18 15 15 0;
#X connect 19 0 0 1;
#X connect 20 0 1 1;
#X connect 21 0 2 1;
#X connect 22 0 3 1;
#X connect 23 0 4 1;
#X connect 24 0 5 1;
#X connect 25 0 6 1;
#X connect 26 0 7 1;
#X connect 27 0 8 1;
#X connect 28 0 9 1;
#X connect 29 0 10 1;
#X connect 30 0 11 1;
#X connect 31 0 12 1;
#X connect 32 0 13 1;
#X connect 33 0 14 1;
#X connect 34 0 15 1;
#X restore 45 154 pd compasso4;
#X obj 45 291 f 127;
#X obj 72 182 - 1;
#X obj 99 225 r \$0-vel;
#X obj 72 247 * 127;
#X obj 72 203 tabread \$0-velocidade;
#X obj 72 268 int;
#X obj 45 69 t f f f;
#X obj 139 86 s \$0-cursor;
#X obj 45 319 s \$0-output_vel;
#X connect 0 0 11 0;
#X connect 1 0 5 0;
#X connect 2 0 5 0;
#X connect 3 0 5 0;
#X connect 4 0 5 0;
#X connect 5 0 13 0;
#X connect 6 0 9 0;
#X connect 7 0 8 1;
#X connect 8 0 10 0;
#X connect 9 0 8 0;
#X connect 10 0 5 1;
#X connect 11 0 1 0;
#X connect 11 0 2 0;
#X connect 11 0 3 0;
#X connect 11 0 4 0;
#X connect 11 1 6 0;
#X connect 11 2 12 0;
#X restore 85 192 pd compassos;
#X obj 85 113 r \$1-passo_master;
#X obj 85 242 r \$0-output_vel;
#N canvas 567 268 256 307 remote_output 0;
#X obj 156 36 r \$0-nota;
#X msg 49 92 0;
#X obj 49 242 s \$1-step_seq;
#X obj 49 139 route 0;
#X obj 49 117 pack f f f;
#X text 47 264 PRA RECEBER NO PAI;
#X obj 49 36 r \$0-output_vel;
#X obj 49 202 spigot;
#X obj 106 164 r \$0-hold;
#X obj 106 185 == 0;
#X obj 49 66 t b f;
#X connect 0 0 4 1;
#X connect 1 0 4 0;
#X connect 3 0 7 0;
#X connect 4 0 3 0;
#X connect 6 0 10 0;
#X connect 7 0 2 0;
#X connect 8 0 9 0;
#X connect 9 0 7 1;
#X connect 10 0 1 0;
#X connect 10 1 4 2;
#X restore 785 231 pd remote_output;
#N canvas 75 27 969 192 \$0-velocidade 0;
#X obj 225 45 cnv 15 700 100 empty empty empty 20 12 0 14 -228856 -66577
0;
#X obj 225 45 cnv 10 10 100 empty empty empty 20 12 0 14 -128992 -66577
0;
#X obj 268 45 cnv 10 10 100 empty empty empty 20 12 0 14 -191407 -66577
0;
#X obj 312 45 cnv 10 10 100 empty empty empty 20 12 0 14 -191407 -66577
0;
#X obj 356 45 cnv 10 10 100 empty empty empty 20 12 0 14 -191407 -66577
0;
#X obj 400 45 cnv 10 10 100 empty empty empty 20 12 0 14 -128992 -66577
0;
#X obj 443 45 cnv 10 10 100 empty empty empty 20 12 0 14 -191407 -66577
0;
#X obj 487 45 cnv 10 10 100 empty empty empty 20 12 0 14 -191407 -66577
0;
#X obj 531 45 cnv 10 10 100 empty empty empty 20 12 0 14 -191407 -66577
0;
#X obj 575 45 cnv 10 10 100 empty empty empty 20 12 0 14 -128992 -66577
0;
#X obj 618 45 cnv 10 10 100 empty empty empty 20 12 0 14 -191407 -66577
0;
#X obj 662 45 cnv 10 10 100 empty empty empty 20 12 0 14 -191407 -66577
0;
#X obj 706 45 cnv 10 10 100 empty empty empty 20 12 0 14 -191407 -66577
0;
#X obj 750 45 cnv 10 10 100 empty empty empty 20 12 0 14 -128992 -66577
0;
#X obj 793 45 cnv 10 10 100 empty empty empty 20 12 0 14 -191407 -66577
0;
#X obj 837 45 cnv 10 10 100 empty empty empty 20 12 0 14 -191407 -66577
0;
#X obj 881 45 cnv 10 10 100 empty empty empty 20 12 0 14 -191407 -66577
0;
#N canvas 0 22 450 300 (subpatch) 0;
#X array \$0-velocidade 64 float 2;
#X coords 0 1 64 0 700 100 1;
#X restore 225 45 graph;
#X msg 42 109 const 0;
#X msg 42 69 const 1;
#X obj 42 160 s \$0-velocidade;
#X msg 111 109 const \$1;
#X floatatom 111 69 5 0 100 0 - - -;
#X obj 111 88 / 100;
#X obj 42 41 r \$0-lb;
#X floatatom 155 27 5 0 0 0 - #0-nota -;
#X text 124 27 NOTA;
#X msg 42 136 resize 64;
#X msg 42 89 const 0.9;
#X connect 18 0 20 0;
#X connect 19 0 20 0;
#X connect 21 0 20 0;
#X connect 22 0 23 0;
#X connect 23 0 21 0;
#X connect 24 0 27 0;
#X connect 24 0 28 0;
#X connect 27 0 20 0;
#X connect 28 0 20 0;
#X restore 785 156 pd \$0-velocidade;
#N canvas 403 367 253 191 \$0-edita_seq 0;
#X obj 31 63 bng 15 250 50 0 \$0-random \$0-random_in RANDOM 21 8 0
10 -262144 -1 -1;
#X obj 116 63 bng 15 250 50 0 \$0-nada \$0-nada_in NADA 21 8 0 10 -258113
-262144 -1;
#X obj 170 63 bng 15 250 50 0 \$0-tudo \$0-tudo_in TUDO 21 8 0 10 -4160
-262144 -1;
#X obj 38 121 bng 15 250 50 0 \$0-rw \$0-rw_in <- -16 8 0 10 -262144
-1 -1;
#X obj 64 121 bng 15 250 50 0 \$0-fw \$0-fw_in -> 20 8 0 10 -262144
-1 -1;
#X obj 136 23 tgl 15 0 \$0-midi_write \$0-midi_write_in MIDI_WRITE
21 8 0 10 -262144 -1 -1 0 1;
#X floatatom 77 22 5 0 0 0 - #0-nota -;
#X text 46 22 NOTA;
#X obj 160 122 bng 15 250 50 0 \$0-insert \$0-insert_in INSERE 21 8
0 10 -262144 -1 -1;
#X floatatom 131 121 3 0 0 0 - #0-intervalo_in #0-intervalo;
#X obj 160 149 bng 15 250 50 0 \$0-remove \$0-remove_in REMOVE 21 8
0 10 -262144 -1 -1;
#X floatatom 131 148 3 0 0 0 - #0-intervalo_r_in #0-intervalo_r;
#X obj 34 85 hsl 50 12 0 1 0 0 \$0-random_sens \$0-random_sens_in empty
-2 -8 0 10 -262144 -1 -1 2450 1;
#X text 19 82 0;
#X text 89 82 1;
#X text 36 139 DESLOCA;
#X restore 785 181 pd \$0-edita_seq;
#X obj 205 113 r \$1-passo_master_cru;
#X obj 205 158 spigot;
#X obj 1174 68 tgl 15 0 \$0-swing \$0-swing_in SW 20 8 0 10 -1 -262144
-1 0 1;
#X obj 354 120 r \$0-swing;
#X obj 238 137 == 0;
#X obj 946 132 table \$0-score 64;
#X obj 946 156 table \$0-score_temp 100;
#X obj 946 180 table \$0-score_temp2 100;
#X obj 1210 68 tgl 15 0 \$0-hold \$0-hold_in H 20 8 0 10 -258113 -262144
-1 0 1;
#X text 190 241 saída direta - velocity;
#N canvas 256 152 903 383 controles 0;
#X obj 62 256 s \$0-notain;
#X obj 142 256 s \$0-velin;
#X obj 212 256 s \$0-swing_in;
#X obj 302 256 s \$0-midi_write_in;
#X obj 512 256 s \$0-nada_in;
#X obj 602 256 s \$0-tudo_in;
#X obj 62 286 s \$0-rw_in;
#X obj 142 286 s \$0-fw_in;
#X obj 214 286 s \$0-intervalo_in;
#X obj 330 286 s \$0-intervalo_r_in;
#X obj 460 286 s \$0-insert_in;
#X obj 560 286 s \$0-remove_in;
#X obj 419 256 s \$0-random_in;
#X obj 660 286 s \$0-hold_in;
#X obj 745 286 s \$0-random_sens_in;
#N canvas 0 22 228 315 key_step 0;
#X obj 49 34 inlet;
#X msg 49 231 \; \$3-passo\$2in \$1;
#X obj 49 101 + 0;
#X obj 49 78 unpack f f;
#X obj 49 166 tabread \$0-score;
#X obj 49 145 - 1;
#X obj 49 209 pack 0 0 \$0;
#X obj 49 123 t f f;
#X obj 49 187 != 1;
#X connect 0 0 3 0;
#X connect 2 0 7 0;
#X connect 3 0 2 0;
#X connect 3 1 2 1;
#X connect 4 0 8 0;
#X connect 5 0 4 0;
#X connect 6 0 1 0;
#X connect 7 0 5 0;
#X connect 7 1 6 1;
#X connect 8 0 6 0;
#X restore 385 316 pd key_step;
#X obj 62 23 inlet;
#N canvas 0 22 414 447 teclado_control 0;
#X obj 106 399 outlet;
#X obj 196 327 s \$0-bg;
#X msg 196 280 color 17;
#X obj 139 222 tgl 15 0 empty empty empty 17 7 0 10 -262144 -1 -1 0
1;
#X text 158 220 ativo;
#X obj 270 285 loadbang;
#X obj 106 274 list trim;
#X obj 263 99 r \$0-select;
#X obj 166 92 r \$0-nota;
#X obj 139 113 == \$2;
#X obj 139 67 route control_note;
#X obj 106 248 spigot;
#X obj 87 177 t a b;
#X obj 139 194 f;
#X obj 263 152 spigot;
#X obj 296 130 != 1;
#X obj 294 177 + 1;
#X obj 294 197 % 2;
#X obj 263 177 f 1;
#X obj 196 237 sel 1 0;
#X msg 278 254 1;
#X obj 139 40 r \$1-teclado_control;
#X msg 205 302 color 3;
#X connect 2 0 1 0;
#X connect 3 0 11 1;
#X connect 3 0 19 0;
#X connect 5 0 22 0;
#X connect 6 0 0 0;
#X connect 7 0 14 0;
#X connect 8 0 9 1;
#X connect 9 0 13 0;
#X connect 9 0 15 0;
#X connect 10 0 9 0;
#X connect 10 1 12 0;
#X connect 11 0 6 0;
#X connect 12 0 11 0;
#X connect 12 1 13 0;
#X connect 13 0 3 0;
#X connect 14 0 18 0;
#X connect 15 0 14 1;
#X connect 16 0 17 0;
#X connect 17 0 18 1;
#X connect 18 0 16 0;
#X connect 18 0 13 0;
#X connect 19 0 2 0;
#X connect 19 1 22 0;
#X connect 19 1 20 0;
#X connect 20 0 18 1;
#X connect 21 0 10 0;
#X connect 22 0 1 0;
#X restore 157 107 pd teclado_control;
#X obj 121 66 r \$1-org_step_global;
#X obj 62 200 route nota vel swing midi random nada tudo rw fw intervalo
intervalo_r insert remove hold random_sens key_step;
#X connect 16 0 19 0;
#X connect 17 0 19 0;
#X connect 18 0 19 0;
#X connect 19 0 0 0;
#X connect 19 1 1 0;
#X connect 19 2 2 0;
#X connect 19 3 3 0;
#X connect 19 4 12 0;
#X connect 19 5 4 0;
#X connect 19 6 5 0;
#X connect 19 7 6 0;
#X connect 19 8 7 0;
#X connect 19 9 8 0;
#X connect 19 10 9 0;
#X connect 19 11 10 0;
#X connect 19 12 11 0;
#X connect 19 13 13 0;
#X connect 19 14 14 0;
#X connect 19 15 15 0;
#X restore 425 34 pd controles;
#X obj 425 10 inlet controles;
#X obj 605 10 inlet nota;
#X obj 605 34 s \$0-notain;
#X obj 1242 69 bng 13 250 50 0 \$0-select \$0-select_in empty 17 7
0 10 -4032 -1 -1;
#N canvas 91 147 1056 683 comunica_modulos 0;
#X obj 103 164 f;
#X obj 129 164 + 1;
#X obj 81 142 until;
#X msg 50 85 64;
#X obj 103 241 list;
#X obj 82 263 list;
#X obj 103 219 list prepend;
#X obj 103 197 tabread \$0-score;
#X obj 82 482 s \$1-org_step_mod;
#X obj 50 196 del 30;
#X obj 212 241 list;
#X obj 191 263 list;
#X obj 212 219 list prepend;
#X obj 212 197 tabread \$0-velocidade;
#X obj 50 238 t b b;
#X obj 82 294 list append;
#X obj 166 430 r \$0-nota;
#X obj 82 447 list prepend;
#X obj 50 38 r \$1-org_step_mod_flush;
#X obj 50 60 t b;
#X obj 82 325 list prepend;
#X obj 166 308 r \$0-vel;
#X obj 366 42 r \$1-org_step_mod_in;
#X obj 366 78 list split 1;
#X obj 366 111 t b f;
#X obj 379 146 list;
#X obj 419 128 == \$2;
#X obj 379 176 spigot;
#X obj 446 106 r \$0-nota;
#X obj 413 266 list split 1;
#X obj 481 391 list split 64;
#X obj 508 487 list prepend 0;
#X obj 508 510 s \$0-score;
#X obj 538 424 list prepend 0;
#X obj 538 447 s \$0-velocidade;
#X obj 481 459 t b a;
#X obj 481 539 s \$0-flushscore;
#X obj 82 363 list prepend;
#X obj 166 346 r \$0-swing;
#X msg 118 142 0;
#X obj 413 296 s \$0-swing_in;
#X obj 447 327 list split 1;
#X obj 447 357 s \$0-velin;
#X obj 50 106 t b f b b b;
#X obj 82 403 list prepend;
#X obj 166 386 r \$0-hold;
#X obj 379 205 list split 1;
#X obj 379 235 s \$0-hold_in;
#X obj 740 129 f;
#X obj 797 64 r \$0-nota;
#X obj 740 42 r \$1-org_step_howmany_flush;
#X obj 740 153 s \$1-org_step_howmany;
#X text 739 174 mecanismo pra saber quantos/quais steps existem;
#X text 739 190 - util no teclado-seq;
#X text 214 11 comunica org_step_mod;
#X text 766 14 comunica teclado_seq;
#X obj 791 516 f;
#X obj 817 516 + 1;
#X obj 769 494 until;
#X msg 806 413 64;
#X obj 791 593 list;
#X obj 770 615 list;
#X obj 791 571 list prepend;
#X obj 791 549 tabread \$0-score;
#X obj 740 430 f 64;
#X obj 806 494 f 0;
#X floatatom 836 478 5 0 0 0 - - -;
#X text 874 480 offset;
#X msg 775 413 16;
#X obj 740 549 del 30;
#X obj 871 461 f;
#X msg 821 455 0;
#X obj 740 455 t b f b b;
#X obj 770 641 s \$1-copy_seq;
#X obj 740 378 t b b b;
#X obj 792 378 t b b b;
#X obj 894 304 r \$0-nota;
#X obj 867 325 == \$2;
#X obj 740 342 spigot;
#X obj 792 342 spigot;
#X text 626 264 copia sequencia;
#X obj 740 265 route copy_line copy_quad control_note quad;
#X obj 740 239 r \$1-teclado_control;
#X obj 797 86 t f f;
#X obj 740 103 del 1;
#X connect 0 0 1 0;
#X connect 0 0 7 0;
#X connect 0 0 13 0;
#X connect 1 0 0 1;
#X connect 2 0 0 0;
#X connect 3 0 43 0;
#X connect 4 0 5 1;
#X connect 4 0 6 1;
#X connect 5 0 15 0;
#X connect 6 0 4 0;
#X connect 7 0 6 0;
#X connect 9 0 14 0;
#X connect 10 0 11 1;
#X connect 10 0 12 1;
#X connect 11 0 15 1;
#X connect 12 0 10 0;
#X connect 13 0 12 0;
#X connect 14 0 5 0;
#X connect 14 1 11 0;
#X connect 15 0 20 0;
#X connect 16 0 17 1;
#X connect 17 0 8 0;
#X connect 18 0 19 0;
#X connect 19 0 3 0;
#X connect 20 0 37 0;
#X connect 21 0 20 1;
#X connect 22 0 23 0;
#X connect 23 0 24 0;
#X connect 23 1 25 1;
#X connect 24 0 25 0;
#X connect 24 1 26 0;
#X connect 25 0 27 0;
#X connect 26 0 27 1;
#X connect 27 0 46 0;
#X connect 28 0 26 1;
#X connect 29 0 40 0;
#X connect 29 1 41 0;
#X connect 30 0 35 0;
#X connect 30 1 33 0;
#X connect 31 0 32 0;
#X connect 33 0 34 0;
#X connect 35 0 36 0;
#X connect 35 1 31 0;
#X connect 37 0 44 0;
#X connect 38 0 37 1;
#X connect 39 0 0 1;
#X connect 41 0 42 0;
#X connect 41 1 30 0;
#X connect 43 0 9 0;
#X connect 43 1 2 0;
#X connect 43 2 39 0;
#X connect 43 3 6 1;
#X connect 43 4 12 1;
#X connect 44 0 17 0;
#X connect 45 0 44 1;
#X connect 46 0 47 0;
#X connect 46 1 29 0;
#X connect 48 0 51 0;
#X connect 49 0 83 0;
#X connect 50 0 84 0;
#X connect 56 0 57 0;
#X connect 56 0 63 0;
#X connect 57 0 56 1;
#X connect 58 0 56 0;
#X connect 59 0 64 1;
#X connect 60 0 61 1;
#X connect 60 0 62 1;
#X connect 61 0 73 0;
#X connect 62 0 60 0;
#X connect 63 0 62 0;
#X connect 64 0 72 0;
#X connect 65 0 56 1;
#X connect 66 0 65 1;
#X connect 68 0 64 1;
#X connect 69 0 61 0;
#X connect 70 0 66 0;
#X connect 71 0 65 1;
#X connect 72 0 69 0;
#X connect 72 1 58 0;
#X connect 72 2 65 0;
#X connect 72 3 62 1;
#X connect 74 0 64 0;
#X connect 74 1 59 0;
#X connect 74 2 71 0;
#X connect 75 0 64 0;
#X connect 75 1 68 0;
#X connect 75 2 70 0;
#X connect 76 0 77 1;
#X connect 77 0 78 1;
#X connect 77 0 79 1;
#X connect 78 0 74 0;
#X connect 79 0 75 0;
#X connect 81 0 78 0;
#X connect 81 1 79 0;
#X connect 81 2 77 0;
#X connect 81 3 70 1;
#X connect 82 0 81 0;
#X connect 83 0 48 1;
#X connect 83 1 84 1;
#X connect 84 0 48 0;
#X restore 785 206 pd comunica_modulos;
#X obj 85 159 spigot;
#X obj 118 137 == 1;
#X text 1018 67 N;
#X text 1058 67 V;
#X obj 51 65 cnv 2 10 2 empty empty empty 20 12 0 14 -262144 -66577
0;
#X obj 1249 65 cnv 2 10 2 empty empty empty 20 12 0 14 -262144 -66577
0;
#X obj 51 84 cnv 2 10 2 empty empty empty 20 12 0 14 -262144 -66577
0;
#N canvas 472 234 393 158 LEIA-ME 0;
#X text 29 106 - licença GPLv3 - http://www.gnu.org/copyleft/gpl.txt
;
#X text 29 26 -- org_abs 0.2 - abstrações orgânicas - 2014;
#X text 29 56 - conjunto de abstrações para controle de áudio e vídeo
\, desenvolvido por brunorohde (brunorohde.wordpress.com / brunorohde@gmail.com)
;
#X restore 549 156 pd LEIA-ME;
#X connect 76 0 97 0;
#X connect 77 0 67 0;
#X connect 81 0 82 0;
#X connect 82 0 75 0;
#X connect 84 0 85 0;
#X connect 84 0 98 0;
#X connect 85 0 82 1;
#X connect 92 0 91 0;
#X connect 93 0 94 0;
#X connect 97 0 75 0;
#X connect 98 0 97 1;
#X coords 0 -1 1 1 1210 23 2 50 64;
