#N canvas 450 167 523 378 10;
#X obj 80 60 cnv 15 270 170 empty empty empty 20 12 0 14 -203904 -66577
0;
#X obj 89 70 tgl 15 0 \$0-on_off \$0-on_off_in on/off 21 7 0 10 -204786
-1 -1 1 1;
#X obj 201 90 tgl 15 0 \$0-cursor \$0-cursor_in cursor 21 7 0 10 -262144
-1 -1 1 1;
#X obj 201 110 tgl 15 0 \$0-borda \$0-borda_in borda 21 7 0 10 -262144
-1 -1 1 1;
#X floatatom 201 157 5 0 0 0 x #0-offset_x_in #0-offset_x;
#X floatatom 247 157 5 0 0 0 y #0-offset_y_in #0-offset_y;
#X obj 201 70 tgl 15 0 \$0-luz \$0-luz_in luz 21 7 0 10 -262144 -1
-1 0 1;
#X obj 201 140 bng 10 250 50 0 \$0-offset_preset empty offset 15 5
0 10 -260097 -4034 -1;
#X floatatom 89 157 7 0 0 0 - #0-x_in #0-x;
#X floatatom 139 157 7 0 0 0 - #0-y_in #0-y;
#X obj 112 260 t b f;
#X obj 152 260 t b f;
#X obj 192 260 t b f;
#X obj 232 260 t b f;
#X obj 94 293 pack f f 4 f f f f 1 f;
#X obj 272 260 t b f;
#X obj 312 260 t b f;
#X obj 352 260 t b f;
#X obj 392 260 t b f;
#X msg 94 314 view \$1 \$2 \$3 \$4 \$5 \$6 \$7 \$8 \$9;
#X obj 89 185 cnv 15 80 38 empty empty empty 20 12 0 14 -191407 -66577
0;
#X obj 176 185 cnv 15 80 38 empty empty empty 20 12 0 14 -191407 -66577
0;
#X obj 263 185 cnv 15 80 38 empty empty empty 20 12 0 14 -191407 -66577
0;
#X floatatom 94 202 3 0 0 0 - - -;
#X floatatom 119 202 3 0 0 0 - - -;
#X floatatom 144 202 3 0 0 0 - - -;
#X floatatom 181 202 3 0 0 0 - - -;
#X floatatom 206 202 3 0 0 0 - - -;
#X floatatom 231 202 3 0 0 0 - - -;
#X floatatom 268 202 3 0 0 0 - - -;
#X floatatom 293 202 3 0 0 0 - - -;
#X floatatom 318 202 3 0 0 0 - - -;
#X text 107 184 origem;
#X text 192 184 destino;
#X text 292 184 up;
#X obj 296 70 cnv 15 44 40 empty empty empty 20 12 0 14 -261234 -66577
0;
#X floatatom 302 88 5 0 0 0 - #0-fps_in #0-fps;
#X text 306 70 FPS;
#X obj 299 128 hsl 40 8 0 1 0 0 \$0-red \$0-morto empty -2 -8 0 10
-258113 -1 -1 0 1;
#X obj 299 138 hsl 40 8 0 1 0 0 \$0-green \$0-morto empty -2 -8 0 10
-4034 -1 -1 0 1;
#X obj 299 148 hsl 40 8 0 1 0 0 \$0-blue \$0-morto empty -2 -8 0 10
-4160 -1 -1 0 1;
#X obj 20 185 init -4;
#X obj 94 336 s \$0-canal_gemwin;
#N canvas 757 189 245 238 init 0;
#X obj 61 41 loadbang;
#X msg 61 67 1;
#X msg 93 67 0;
#X msg 125 67 30;
#X obj 93 115 s \$0-luz_in;
#X obj 61 161 s \$0-cursor_in;
#X obj 61 181 s \$0-borda_in;
#X obj 125 91 s \$0-fps_in;
#X obj 93 136 s \$0-xy_preset_in;
#X connect 0 0 1 0;
#X connect 0 0 2 0;
#X connect 0 0 3 0;
#X connect 1 0 5 0;
#X connect 1 0 6 0;
#X connect 2 0 4 0;
#X connect 2 0 8 0;
#X connect 3 0 7 0;
#X restore 408 123 pd init;
#X obj 89 92 vradio 15 1 0 4 \$0-xy_preset \$0-xy_preset_in empty 0
-8 0 10 -228856 -1 -1 2;
#X text 108 91 500x400;
#X text 108 106 800x600;
#X text 108 121 1024x768;
#X text 108 136 1600x1200;
#N canvas 894 189 502 463 links 0;
#X msg 40 118 cursor \$1;
#X msg 40 140 border \$1;
#X msg 40 314 offset \$1 \$2;
#X obj 40 293 pack f f;
#X obj 58 270 t b f;
#X msg 40 162 lighting \$1;
#X msg 187 333 1440 -50;
#X msg 188 248 dimen \$1 \$2;
#X obj 230 203 t b f;
#X obj 188 226 pack 500 400;
#X msg 39 401 frame \$1;
#X msg 188 116 color \$1 \$2 \$3;
#X obj 188 97 pack f f f;
#X obj 243 71 t b f;
#X obj 283 71 t b f;
#X obj 188 48 r \$0-red;
#X obj 243 48 r \$0-green;
#X obj 310 48 r \$0-blue;
#X obj 188 139 s \$0-canal_gemwin;
#X obj 40 334 s \$0-canal_gemwin;
#X obj 58 249 r \$0-offset_y;
#X obj 187 313 r \$0-offset_preset;
#X obj 187 353 unpack;
#X obj 187 374 s \$0-offset_x_in;
#X obj 220 395 s \$0-offset_y_in;
#X obj 39 380 r \$0-fps;
#X obj 39 422 s \$0-canal_gemwin;
#X obj 40 187 s \$0-canal_gemwin;
#X obj 40 90 r \$0-luz;
#X obj 40 50 r \$0-cursor;
#X obj 40 70 r \$0-borda;
#X obj 188 270 s \$0-canal_gemwin;
#X obj 188 180 r \$0-x;
#X obj 230 180 r \$0-y;
#X obj 345 140 r \$0-xy_preset;
#X obj 345 162 sel 0 1 2 3;
#X msg 345 188 500 400;
#X msg 345 208 800 600;
#X msg 345 228 1024 768;
#X msg 345 248 1600 1200;
#X obj 345 276 unpack;
#X obj 345 302 s \$0-x_in;
#X obj 409 302 s \$0-y_in;
#X obj 40 229 r \$0-offset_x;
#X connect 0 0 27 0;
#X connect 1 0 27 0;
#X connect 2 0 19 0;
#X connect 3 0 2 0;
#X connect 4 0 3 0;
#X connect 4 1 3 1;
#X connect 5 0 27 0;
#X connect 6 0 22 0;
#X connect 7 0 31 0;
#X connect 8 0 9 0;
#X connect 8 1 9 1;
#X connect 9 0 7 0;
#X connect 10 0 26 0;
#X connect 11 0 18 0;
#X connect 12 0 11 0;
#X connect 13 0 12 0;
#X connect 13 1 12 1;
#X connect 14 0 12 0;
#X connect 14 1 12 2;
#X connect 15 0 12 0;
#X connect 16 0 13 0;
#X connect 17 0 14 0;
#X connect 20 0 4 0;
#X connect 21 0 6 0;
#X connect 22 0 23 0;
#X connect 22 1 24 0;
#X connect 25 0 10 0;
#X connect 28 0 5 0;
#X connect 29 0 0 0;
#X connect 30 0 1 0;
#X connect 32 0 9 0;
#X connect 33 0 8 0;
#X connect 34 0 35 0;
#X connect 35 0 36 0;
#X connect 35 1 37 0;
#X connect 35 2 38 0;
#X connect 35 3 39 0;
#X connect 36 0 40 0;
#X connect 37 0 40 0;
#X connect 38 0 40 0;
#X connect 39 0 40 0;
#X connect 40 0 41 0;
#X connect 40 1 42 0;
#X connect 43 0 3 0;
#X restore 408 167 pd links;
#N canvas 217 146 482 163 gemwin 0;
#X msg 69 76 create \, 1;
#X msg 141 76 destroy \, 0;
#X obj 113 53 select 1 0;
#X msg 83 107 reset;
#X obj 141 124 gemwin 30;
#X msg 38 107 print;
#X obj 141 102 r \$0-canal_gemwin;
#X obj 113 31 r \$0-on_off;
#X obj 292 30 gemhead;
#X obj 292 106 world_light;
#X obj 305 77 r \$0-luz;
#X obj 373 69 loadbang;
#X msg 373 89 0;
#X connect 0 0 4 0;
#X connect 1 0 4 0;
#X connect 2 0 0 0;
#X connect 2 1 1 0;
#X connect 3 0 4 0;
#X connect 5 0 4 0;
#X connect 6 0 4 0;
#X connect 7 0 2 0;
#X connect 8 0 9 0;
#X connect 10 0 9 0;
#X connect 11 0 12 0;
#X connect 12 0 9 0;
#X restore 408 145 pd gemwin;
#N canvas 472 234 393 158 LEIA-ME 0;
#X text 29 106 - licença GPLv3 - http://www.gnu.org/copyleft/gpl.txt
;
#X text 29 26 -- org_abs 0.2 - abstrações orgânicas - 2014;
#X text 29 56 - conjunto de abstrações para controle de áudio e vídeo
\, desenvolvido por brunorohde (brunorohde.wordpress.com / brunorohde@gmail.com)
;
#X restore 408 85 pd LEIA-ME;
#X connect 10 0 14 0;
#X connect 10 1 14 1;
#X connect 11 0 14 0;
#X connect 11 1 14 2;
#X connect 12 0 14 0;
#X connect 12 1 14 3;
#X connect 13 0 14 0;
#X connect 13 1 14 4;
#X connect 14 0 19 0;
#X connect 15 0 14 0;
#X connect 15 1 14 5;
#X connect 16 0 14 0;
#X connect 16 1 14 6;
#X connect 17 0 14 0;
#X connect 17 1 14 7;
#X connect 18 0 14 0;
#X connect 18 1 14 8;
#X connect 19 0 42 0;
#X connect 23 0 14 0;
#X connect 24 0 10 0;
#X connect 25 0 11 0;
#X connect 26 0 12 0;
#X connect 27 0 13 0;
#X connect 28 0 15 0;
#X connect 29 0 16 0;
#X connect 30 0 17 0;
#X connect 31 0 18 0;
#X connect 41 0 25 0;
#X coords 0 -1 1 1 270 170 2 80 60;
