#N canvas 120 328 448 179 10;
#N canvas 449 363 312 330 salva 0;
#X obj 43 28 r \$0-save;
#X obj 116 286 textfile;
#X obj 43 55 t b b b;
#X obj 43 131 savepanel;
#X obj 43 157 makefilename %s.txt;
#X obj 58 184 s \$0-nomein;
#X msg 241 245 clear;
#X obj 62 88 s \$0-slot_flush;
#X obj 116 219 r \$0-slot_out;
#N canvas 465 388 267 361 lista_textfile 0;
#X obj 67 83 list split 1;
#X obj 38 111 list;
#X msg 86 287 add slot_1 1 1 0 103 1 1 1 1 0 1 1 0 0 1 1 0 1 1 0 1
1 0 1 0 1 0 0 1 1 1 1 1 1 1 0 1 0 1 1 0 1 0 0 1 0 1 1 0 0 0 1 0 1 0
1 0 1 1 1 1 0 1 1 1 1 0 1 0 0.9 0.86 0.74 0.68 0.68 0.68 0.68 0.68
0.68 0.55 0.55 0.55 0.57 0.58 0.59 0.59 0.59 0.57 0.54 0.51 0.465 0.42
0.396667 0.373334 0.350001 0.316667 0.283334 0.250001 0.235001 0.220001
0.220001 0.220001 0.235001 0.250001 0.270001 0.290001 0.315001 0.340001
0.365 0.39 0.395 0.4 0.4 0.4 0.4 0.4 0.39 0.330001 0.310001 0.280001
0.260001 0.255001 0.250001 0.250001 0.250001 0.250001 0.250001 0.253334
0.256667 0.260001 0.275001 0.290001 0.320001 0.350001 \;;
#X msg 142 250 add2 \$1;
#X obj 86 188 f;
#X obj 113 188 + 1;
#X msg 86 250 addsemi;
#X msg 31 250 set add;
#X obj 52 51 t b l b b l;
#X obj 166 68 list length;
#X msg 101 167 1;
#X obj 67 135 t b b a;
#X obj 52 25 inlet lista;
#X obj 86 213 sel 1;
#X obj 86 318 outlet;
#X connect 0 0 11 0;
#X connect 0 1 1 1;
#X connect 1 0 0 0;
#X connect 2 0 14 0;
#X connect 3 0 2 0;
#X connect 4 0 5 0;
#X connect 4 0 13 0;
#X connect 5 0 4 1;
#X connect 6 0 2 0;
#X connect 7 0 2 0;
#X connect 8 0 2 0;
#X connect 8 1 0 0;
#X connect 8 2 7 0;
#X connect 8 3 10 0;
#X connect 8 4 9 0;
#X connect 9 0 13 1;
#X connect 10 0 4 1;
#X connect 11 0 1 0;
#X connect 11 1 4 0;
#X connect 11 2 3 0;
#X connect 12 0 8 0;
#X connect 13 0 6 0;
#X restore 116 245 pd lista_textfile;
#X msg 43 245 write \$1;
#X connect 0 0 2 0;
#X connect 2 0 3 0;
#X connect 2 1 7 0;
#X connect 2 2 6 0;
#X connect 3 0 4 0;
#X connect 4 0 10 0;
#X connect 4 0 5 0;
#X connect 6 0 1 0;
#X connect 8 0 9 0;
#X connect 9 0 1 0;
#X connect 10 0 1 0;
#X restore 290 83 pd salva;
#N canvas 373 24 301 354 abre 0;
#X obj 43 27 r \$0-open;
#X obj 185 118 s \$0-nomein;
#X obj 43 222 textfile;
#X msg 113 182 rewind;
#X msg 43 149 1;
#X msg 73 149 0;
#X msg 225 182 clear;
#X obj 43 263 list trim;
#X obj 43 55 t b b;
#X obj 43 112 t b b;
#X obj 43 182 metro 1;
#X obj 43 304 s \$0-slot_open;
#X obj 43 78 openpanel;
#X obj 146 95 t b s s;
#X msg 165 182 read \$1;
#X obj 146 27 r \$0-caminho;
#X obj 146 48 symbol;
#X connect 0 0 8 0;
#X connect 2 0 7 0;
#X connect 2 1 5 0;
#X connect 3 0 2 0;
#X connect 4 0 10 0;
#X connect 5 0 10 0;
#X connect 6 0 2 0;
#X connect 7 0 11 0;
#X connect 8 0 12 0;
#X connect 8 1 6 0;
#X connect 9 0 4 0;
#X connect 9 1 3 0;
#X connect 10 0 2 0;
#X connect 12 0 13 0;
#X connect 13 0 9 0;
#X connect 13 1 14 0;
#X connect 13 2 1 0;
#X connect 14 0 2 0;
#X connect 15 0 16 0;
#X connect 16 0 13 0;
#X restore 290 109 pd abre;
#X obj 50 50 cnv 15 210 110 empty empty STEP_MOD 80 12 0 10 -191407
-262144 0;
#X obj 60 96 bng 15 250 50 0 \$0-save \$0-save_in empty 17 7 0 10 -258113
-1 -1;
#X obj 60 76 bng 15 250 50 0 \$0-open \$0-open_in empty 17 7 0 10 -4160
-1 -1;
#X text 81 75 abre;
#X text 81 94 salva;
#X symbolatom 58 138 32 0 0 0 - #0-nomein #0-nome;
#X obj 128 96 hradio 15 1 0 8 \$0-slot_sel \$0-slot_sel_in empty 0
-8 0 10 -262144 -1 -1 5;
#X obj 128 76 bng 15 250 50 0 \$0-grava_slot \$0-grava_slot_in GRAVA_SLOT
20 8 0 10 -1 -262144 -1;
#X text 131 95 1;
#X text 146 95 2;
#X text 161 95 3;
#X text 176 95 4;
#X text 191 95 5;
#X text 206 95 6;
#X text 221 95 7;
#X text 236 95 8;
#N canvas 168 426 566 304 slots 0;
#X obj 60 40 r \$1-org_step_mod;
#X obj 126 117 s \$1-org_step_mod_flush;
#X obj 60 62 t a b;
#X obj 141 171 f;
#X obj 169 171 + 1;
#X msg 153 146 0;
#X obj 60 198 list prepend 0;
#X obj 60 220 s \$0-super_lista;
#X obj 126 94 t b b;
#N canvas 88 187 1108 428 slot_1 0;
#X obj 103 251 list;
#X obj 163 251 list;
#X obj 223 251 list;
#X obj 283 251 list;
#X obj 343 251 list;
#X obj 403 251 list;
#X obj 463 251 list;
#X obj 523 251 list;
#X obj 583 251 list;
#X obj 643 251 list;
#X obj 703 251 list;
#X obj 763 251 list;
#X obj 823 251 list;
#X obj 883 251 list;
#X obj 904 214 route 3;
#X obj 943 251 list;
#X obj 1003 251 list;
#X obj 124 30 r \$0-super_lista;
#X obj 124 214 route 16;
#X obj 184 214 route 15;
#X obj 244 214 route 14;
#X obj 304 214 route 13;
#X obj 364 214 route 12;
#X obj 424 214 route 11;
#X obj 484 214 route 10;
#X obj 544 214 route 9;
#X obj 604 214 route 8;
#X obj 664 214 route 7;
#X obj 724 214 route 6;
#X obj 784 214 route 5;
#X obj 844 214 route 4;
#X obj 964 214 route 2;
#X obj 1024 214 route 1;
#X obj 157 73 r \$0-slot_sel;
#X obj 157 94 + 1;
#X obj 124 141 spigot;
#X obj 157 117 == 1;
#X obj 160 384 s \$1-org_step_mod_in;
#X obj 301 134 sel 1;
#X obj 301 155 t b b b b b b b b b b b b b b b b;
#X obj 103 301 route bang;
#X obj 160 355 list trim;
#X obj 365 115 r \$0-slot_flush;
#X obj 575 372 s \$0-slot_out;
#X obj 575 344 list prepend slot_1;
#X obj 646 18 r \$0-slot_open;
#X obj 646 40 route slot_1;
#X obj 124 183 t a a;
#X obj 160 327 t a a;
#X obj 562 122 s \$0-slot_flush;
#X obj 746 101 f;
#X obj 774 101 + 1;
#X msg 772 72 0;
#X obj 772 50 r \$0-open;
#X obj 665 122 list prepend 0;
#X obj 646 61 t b a b;
#X msg 27 234 bang;
#X obj 27 23 inlet reset;
#X connect 0 0 40 0;
#X connect 1 0 40 0;
#X connect 2 0 40 0;
#X connect 3 0 40 0;
#X connect 4 0 40 0;
#X connect 5 0 40 0;
#X connect 6 0 40 0;
#X connect 7 0 40 0;
#X connect 8 0 40 0;
#X connect 9 0 40 0;
#X connect 10 0 40 0;
#X connect 11 0 40 0;
#X connect 12 0 40 0;
#X connect 13 0 40 0;
#X connect 14 0 13 1;
#X connect 15 0 40 0;
#X connect 16 0 40 0;
#X connect 17 0 35 0;
#X connect 18 0 0 1;
#X connect 19 0 1 1;
#X connect 20 0 2 1;
#X connect 21 0 3 1;
#X connect 22 0 4 1;
#X connect 23 0 5 1;
#X connect 24 0 6 1;
#X connect 25 0 7 1;
#X connect 26 0 8 1;
#X connect 27 0 9 1;
#X connect 28 0 10 1;
#X connect 29 0 11 1;
#X connect 30 0 12 1;
#X connect 31 0 15 1;
#X connect 32 0 16 1;
#X connect 33 0 34 0;
#X connect 34 0 36 0;
#X connect 35 0 47 0;
#X connect 36 0 35 1;
#X connect 36 0 38 0;
#X connect 38 0 39 0;
#X connect 39 0 0 0;
#X connect 39 1 1 0;
#X connect 39 2 2 0;
#X connect 39 3 3 0;
#X connect 39 4 4 0;
#X connect 39 5 5 0;
#X connect 39 6 6 0;
#X connect 39 7 7 0;
#X connect 39 8 8 0;
#X connect 39 9 9 0;
#X connect 39 10 10 0;
#X connect 39 11 11 0;
#X connect 39 12 12 0;
#X connect 39 13 13 0;
#X connect 39 14 15 0;
#X connect 39 15 16 0;
#X connect 40 1 48 0;
#X connect 41 0 37 0;
#X connect 42 0 39 0;
#X connect 44 0 43 0;
#X connect 45 0 46 0;
#X connect 46 0 55 0;
#X connect 47 0 14 0;
#X connect 47 0 18 0;
#X connect 47 0 19 0;
#X connect 47 0 20 0;
#X connect 47 0 21 0;
#X connect 47 0 22 0;
#X connect 47 0 23 0;
#X connect 47 0 24 0;
#X connect 47 0 25 0;
#X connect 47 0 26 0;
#X connect 47 0 27 0;
#X connect 47 0 28 0;
#X connect 47 0 29 0;
#X connect 47 0 30 0;
#X connect 47 0 31 0;
#X connect 47 0 32 0;
#X connect 48 0 41 0;
#X connect 48 1 44 0;
#X connect 50 0 51 0;
#X connect 50 0 54 1;
#X connect 51 0 50 1;
#X connect 52 0 50 0;
#X connect 53 0 52 0;
#X connect 54 0 47 0;
#X connect 55 0 49 0;
#X connect 55 1 54 0;
#X connect 55 2 50 0;
#X connect 56 0 16 1;
#X connect 56 0 15 1;
#X connect 56 0 13 1;
#X connect 56 0 12 1;
#X connect 56 0 11 1;
#X connect 56 0 10 1;
#X connect 56 0 9 1;
#X connect 56 0 8 1;
#X connect 56 0 7 1;
#X connect 56 0 6 1;
#X connect 56 0 5 1;
#X connect 56 0 4 1;
#X connect 56 0 3 1;
#X connect 56 0 2 1;
#X connect 56 0 1 1;
#X connect 56 0 0 1;
#X connect 57 0 56 0;
#X restore 307 127 pd slot_1;
#X obj 126 72 r \$0-grava_slot;
#N canvas 95 398 1108 428 slot_2 0;
#X obj 103 251 list;
#X obj 163 251 list;
#X obj 223 251 list;
#X obj 283 251 list;
#X obj 343 251 list;
#X obj 403 251 list;
#X obj 463 251 list;
#X obj 523 251 list;
#X obj 583 251 list;
#X obj 643 251 list;
#X obj 703 251 list;
#X obj 763 251 list;
#X obj 823 251 list;
#X obj 883 251 list;
#X obj 904 214 route 3;
#X obj 943 251 list;
#X obj 1003 251 list;
#X obj 124 30 r \$0-super_lista;
#X obj 124 214 route 16;
#X obj 184 214 route 15;
#X obj 244 214 route 14;
#X obj 304 214 route 13;
#X obj 364 214 route 12;
#X obj 424 214 route 11;
#X obj 484 214 route 10;
#X obj 544 214 route 9;
#X obj 604 214 route 8;
#X obj 664 214 route 7;
#X obj 724 214 route 6;
#X obj 784 214 route 5;
#X obj 844 214 route 4;
#X obj 964 214 route 2;
#X obj 1024 214 route 1;
#X obj 157 73 r \$0-slot_sel;
#X obj 157 94 + 1;
#X obj 124 141 spigot;
#X obj 160 384 s \$1-org_step_mod_in;
#X obj 301 134 sel 1;
#X obj 301 155 t b b b b b b b b b b b b b b b b;
#X obj 103 301 route bang;
#X obj 160 355 list trim;
#X obj 365 115 r \$0-slot_flush;
#X obj 575 372 s \$0-slot_out;
#X obj 646 18 r \$0-slot_open;
#X obj 124 183 t a a;
#X obj 160 327 t a a;
#X obj 562 122 s \$0-slot_flush;
#X obj 746 101 f;
#X obj 774 101 + 1;
#X msg 772 72 0;
#X obj 772 50 r \$0-open;
#X obj 665 122 list prepend 0;
#X obj 646 61 t b a b;
#X msg 27 234 bang;
#X obj 27 23 inlet reset;
#X obj 157 117 == 2;
#X obj 646 40 route slot_2;
#X obj 575 344 list prepend slot_2;
#X connect 0 0 39 0;
#X connect 1 0 39 0;
#X connect 2 0 39 0;
#X connect 3 0 39 0;
#X connect 4 0 39 0;
#X connect 5 0 39 0;
#X connect 6 0 39 0;
#X connect 7 0 39 0;
#X connect 8 0 39 0;
#X connect 9 0 39 0;
#X connect 10 0 39 0;
#X connect 11 0 39 0;
#X connect 12 0 39 0;
#X connect 13 0 39 0;
#X connect 14 0 13 1;
#X connect 15 0 39 0;
#X connect 16 0 39 0;
#X connect 17 0 35 0;
#X connect 18 0 0 1;
#X connect 19 0 1 1;
#X connect 20 0 2 1;
#X connect 21 0 3 1;
#X connect 22 0 4 1;
#X connect 23 0 5 1;
#X connect 24 0 6 1;
#X connect 25 0 7 1;
#X connect 26 0 8 1;
#X connect 27 0 9 1;
#X connect 28 0 10 1;
#X connect 29 0 11 1;
#X connect 30 0 12 1;
#X connect 31 0 15 1;
#X connect 32 0 16 1;
#X connect 33 0 34 0;
#X connect 34 0 55 0;
#X connect 35 0 44 0;
#X connect 37 0 38 0;
#X connect 38 0 0 0;
#X connect 38 1 1 0;
#X connect 38 2 2 0;
#X connect 38 3 3 0;
#X connect 38 4 4 0;
#X connect 38 5 5 0;
#X connect 38 6 6 0;
#X connect 38 7 7 0;
#X connect 38 8 8 0;
#X connect 38 9 9 0;
#X connect 38 10 10 0;
#X connect 38 11 11 0;
#X connect 38 12 12 0;
#X connect 38 13 13 0;
#X connect 38 14 15 0;
#X connect 38 15 16 0;
#X connect 39 1 45 0;
#X connect 40 0 36 0;
#X connect 41 0 38 0;
#X connect 43 0 56 0;
#X connect 44 0 14 0;
#X connect 44 0 18 0;
#X connect 44 0 19 0;
#X connect 44 0 20 0;
#X connect 44 0 21 0;
#X connect 44 0 22 0;
#X connect 44 0 23 0;
#X connect 44 0 24 0;
#X connect 44 0 25 0;
#X connect 44 0 26 0;
#X connect 44 0 27 0;
#X connect 44 0 28 0;
#X connect 44 0 29 0;
#X connect 44 0 30 0;
#X connect 44 0 31 0;
#X connect 44 0 32 0;
#X connect 45 0 40 0;
#X connect 45 1 57 0;
#X connect 47 0 48 0;
#X connect 47 0 51 1;
#X connect 48 0 47 1;
#X connect 49 0 47 0;
#X connect 50 0 49 0;
#X connect 51 0 44 0;
#X connect 52 0 46 0;
#X connect 52 1 51 0;
#X connect 52 2 47 0;
#X connect 53 0 16 1;
#X connect 53 0 15 1;
#X connect 53 0 13 1;
#X connect 53 0 12 1;
#X connect 53 0 11 1;
#X connect 53 0 10 1;
#X connect 53 0 9 1;
#X connect 53 0 8 1;
#X connect 53 0 7 1;
#X connect 53 0 6 1;
#X connect 53 0 5 1;
#X connect 53 0 4 1;
#X connect 53 0 3 1;
#X connect 53 0 2 1;
#X connect 53 0 1 1;
#X connect 53 0 0 1;
#X connect 54 0 53 0;
#X connect 55 0 35 1;
#X connect 55 0 37 0;
#X connect 56 0 52 0;
#X connect 57 0 42 0;
#X restore 307 147 pd slot_2;
#N canvas 95 398 1108 428 slot_3 0;
#X obj 103 251 list;
#X obj 163 251 list;
#X obj 223 251 list;
#X obj 283 251 list;
#X obj 343 251 list;
#X obj 403 251 list;
#X obj 463 251 list;
#X obj 523 251 list;
#X obj 583 251 list;
#X obj 643 251 list;
#X obj 703 251 list;
#X obj 763 251 list;
#X obj 823 251 list;
#X obj 883 251 list;
#X obj 904 214 route 3;
#X obj 943 251 list;
#X obj 1003 251 list;
#X obj 124 30 r \$0-super_lista;
#X obj 124 214 route 16;
#X obj 184 214 route 15;
#X obj 244 214 route 14;
#X obj 304 214 route 13;
#X obj 364 214 route 12;
#X obj 424 214 route 11;
#X obj 484 214 route 10;
#X obj 544 214 route 9;
#X obj 604 214 route 8;
#X obj 664 214 route 7;
#X obj 724 214 route 6;
#X obj 784 214 route 5;
#X obj 844 214 route 4;
#X obj 964 214 route 2;
#X obj 1024 214 route 1;
#X obj 157 73 r \$0-slot_sel;
#X obj 157 94 + 1;
#X obj 124 141 spigot;
#X obj 160 384 s \$1-org_step_mod_in;
#X obj 301 134 sel 1;
#X obj 301 155 t b b b b b b b b b b b b b b b b;
#X obj 103 301 route bang;
#X obj 160 355 list trim;
#X obj 365 115 r \$0-slot_flush;
#X obj 575 372 s \$0-slot_out;
#X obj 646 18 r \$0-slot_open;
#X obj 124 183 t a a;
#X obj 160 327 t a a;
#X obj 562 122 s \$0-slot_flush;
#X obj 746 101 f;
#X obj 774 101 + 1;
#X msg 772 72 0;
#X obj 772 50 r \$0-open;
#X obj 665 122 list prepend 0;
#X obj 646 61 t b a b;
#X msg 27 234 bang;
#X obj 27 23 inlet reset;
#X obj 157 117 == 3;
#X obj 646 40 route slot_3;
#X obj 575 344 list prepend slot_3;
#X connect 0 0 39 0;
#X connect 1 0 39 0;
#X connect 2 0 39 0;
#X connect 3 0 39 0;
#X connect 4 0 39 0;
#X connect 5 0 39 0;
#X connect 6 0 39 0;
#X connect 7 0 39 0;
#X connect 8 0 39 0;
#X connect 9 0 39 0;
#X connect 10 0 39 0;
#X connect 11 0 39 0;
#X connect 12 0 39 0;
#X connect 13 0 39 0;
#X connect 14 0 13 1;
#X connect 15 0 39 0;
#X connect 16 0 39 0;
#X connect 17 0 35 0;
#X connect 18 0 0 1;
#X connect 19 0 1 1;
#X connect 20 0 2 1;
#X connect 21 0 3 1;
#X connect 22 0 4 1;
#X connect 23 0 5 1;
#X connect 24 0 6 1;
#X connect 25 0 7 1;
#X connect 26 0 8 1;
#X connect 27 0 9 1;
#X connect 28 0 10 1;
#X connect 29 0 11 1;
#X connect 30 0 12 1;
#X connect 31 0 15 1;
#X connect 32 0 16 1;
#X connect 33 0 34 0;
#X connect 34 0 55 0;
#X connect 35 0 44 0;
#X connect 37 0 38 0;
#X connect 38 0 0 0;
#X connect 38 1 1 0;
#X connect 38 2 2 0;
#X connect 38 3 3 0;
#X connect 38 4 4 0;
#X connect 38 5 5 0;
#X connect 38 6 6 0;
#X connect 38 7 7 0;
#X connect 38 8 8 0;
#X connect 38 9 9 0;
#X connect 38 10 10 0;
#X connect 38 11 11 0;
#X connect 38 12 12 0;
#X connect 38 13 13 0;
#X connect 38 14 15 0;
#X connect 38 15 16 0;
#X connect 39 1 45 0;
#X connect 40 0 36 0;
#X connect 41 0 38 0;
#X connect 43 0 56 0;
#X connect 44 0 14 0;
#X connect 44 0 18 0;
#X connect 44 0 19 0;
#X connect 44 0 20 0;
#X connect 44 0 21 0;
#X connect 44 0 22 0;
#X connect 44 0 23 0;
#X connect 44 0 24 0;
#X connect 44 0 25 0;
#X connect 44 0 26 0;
#X connect 44 0 27 0;
#X connect 44 0 28 0;
#X connect 44 0 29 0;
#X connect 44 0 30 0;
#X connect 44 0 31 0;
#X connect 44 0 32 0;
#X connect 45 0 40 0;
#X connect 45 1 57 0;
#X connect 47 0 48 0;
#X connect 47 0 51 1;
#X connect 48 0 47 1;
#X connect 49 0 47 0;
#X connect 50 0 49 0;
#X connect 51 0 44 0;
#X connect 52 0 46 0;
#X connect 52 1 51 0;
#X connect 52 2 47 0;
#X connect 53 0 16 1;
#X connect 53 0 15 1;
#X connect 53 0 13 1;
#X connect 53 0 12 1;
#X connect 53 0 11 1;
#X connect 53 0 10 1;
#X connect 53 0 9 1;
#X connect 53 0 8 1;
#X connect 53 0 7 1;
#X connect 53 0 6 1;
#X connect 53 0 5 1;
#X connect 53 0 4 1;
#X connect 53 0 3 1;
#X connect 53 0 2 1;
#X connect 53 0 1 1;
#X connect 53 0 0 1;
#X connect 54 0 53 0;
#X connect 55 0 35 1;
#X connect 55 0 37 0;
#X connect 56 0 52 0;
#X connect 57 0 42 0;
#X restore 307 167 pd slot_3;
#N canvas 95 398 1108 428 slot_4 0;
#X obj 103 251 list;
#X obj 163 251 list;
#X obj 223 251 list;
#X obj 283 251 list;
#X obj 343 251 list;
#X obj 403 251 list;
#X obj 463 251 list;
#X obj 523 251 list;
#X obj 583 251 list;
#X obj 643 251 list;
#X obj 703 251 list;
#X obj 763 251 list;
#X obj 823 251 list;
#X obj 883 251 list;
#X obj 904 214 route 3;
#X obj 943 251 list;
#X obj 1003 251 list;
#X obj 124 30 r \$0-super_lista;
#X obj 124 214 route 16;
#X obj 184 214 route 15;
#X obj 244 214 route 14;
#X obj 304 214 route 13;
#X obj 364 214 route 12;
#X obj 424 214 route 11;
#X obj 484 214 route 10;
#X obj 544 214 route 9;
#X obj 604 214 route 8;
#X obj 664 214 route 7;
#X obj 724 214 route 6;
#X obj 784 214 route 5;
#X obj 844 214 route 4;
#X obj 964 214 route 2;
#X obj 1024 214 route 1;
#X obj 157 73 r \$0-slot_sel;
#X obj 157 94 + 1;
#X obj 124 141 spigot;
#X obj 160 384 s \$1-org_step_mod_in;
#X obj 301 134 sel 1;
#X obj 301 155 t b b b b b b b b b b b b b b b b;
#X obj 103 301 route bang;
#X obj 160 355 list trim;
#X obj 365 115 r \$0-slot_flush;
#X obj 575 372 s \$0-slot_out;
#X obj 646 18 r \$0-slot_open;
#X obj 124 183 t a a;
#X obj 160 327 t a a;
#X obj 562 122 s \$0-slot_flush;
#X obj 746 101 f;
#X obj 774 101 + 1;
#X msg 772 72 0;
#X obj 772 50 r \$0-open;
#X obj 665 122 list prepend 0;
#X obj 646 61 t b a b;
#X msg 27 234 bang;
#X obj 27 23 inlet reset;
#X obj 157 117 == 4;
#X obj 646 40 route slot_4;
#X obj 575 344 list prepend slot_4;
#X connect 0 0 39 0;
#X connect 1 0 39 0;
#X connect 2 0 39 0;
#X connect 3 0 39 0;
#X connect 4 0 39 0;
#X connect 5 0 39 0;
#X connect 6 0 39 0;
#X connect 7 0 39 0;
#X connect 8 0 39 0;
#X connect 9 0 39 0;
#X connect 10 0 39 0;
#X connect 11 0 39 0;
#X connect 12 0 39 0;
#X connect 13 0 39 0;
#X connect 14 0 13 1;
#X connect 15 0 39 0;
#X connect 16 0 39 0;
#X connect 17 0 35 0;
#X connect 18 0 0 1;
#X connect 19 0 1 1;
#X connect 20 0 2 1;
#X connect 21 0 3 1;
#X connect 22 0 4 1;
#X connect 23 0 5 1;
#X connect 24 0 6 1;
#X connect 25 0 7 1;
#X connect 26 0 8 1;
#X connect 27 0 9 1;
#X connect 28 0 10 1;
#X connect 29 0 11 1;
#X connect 30 0 12 1;
#X connect 31 0 15 1;
#X connect 32 0 16 1;
#X connect 33 0 34 0;
#X connect 34 0 55 0;
#X connect 35 0 44 0;
#X connect 37 0 38 0;
#X connect 38 0 0 0;
#X connect 38 1 1 0;
#X connect 38 2 2 0;
#X connect 38 3 3 0;
#X connect 38 4 4 0;
#X connect 38 5 5 0;
#X connect 38 6 6 0;
#X connect 38 7 7 0;
#X connect 38 8 8 0;
#X connect 38 9 9 0;
#X connect 38 10 10 0;
#X connect 38 11 11 0;
#X connect 38 12 12 0;
#X connect 38 13 13 0;
#X connect 38 14 15 0;
#X connect 38 15 16 0;
#X connect 39 1 45 0;
#X connect 40 0 36 0;
#X connect 41 0 38 0;
#X connect 43 0 56 0;
#X connect 44 0 14 0;
#X connect 44 0 18 0;
#X connect 44 0 19 0;
#X connect 44 0 20 0;
#X connect 44 0 21 0;
#X connect 44 0 22 0;
#X connect 44 0 23 0;
#X connect 44 0 24 0;
#X connect 44 0 25 0;
#X connect 44 0 26 0;
#X connect 44 0 27 0;
#X connect 44 0 28 0;
#X connect 44 0 29 0;
#X connect 44 0 30 0;
#X connect 44 0 31 0;
#X connect 44 0 32 0;
#X connect 45 0 40 0;
#X connect 45 1 57 0;
#X connect 47 0 48 0;
#X connect 47 0 51 1;
#X connect 48 0 47 1;
#X connect 49 0 47 0;
#X connect 50 0 49 0;
#X connect 51 0 44 0;
#X connect 52 0 46 0;
#X connect 52 1 51 0;
#X connect 52 2 47 0;
#X connect 53 0 16 1;
#X connect 53 0 15 1;
#X connect 53 0 13 1;
#X connect 53 0 12 1;
#X connect 53 0 11 1;
#X connect 53 0 10 1;
#X connect 53 0 9 1;
#X connect 53 0 8 1;
#X connect 53 0 7 1;
#X connect 53 0 6 1;
#X connect 53 0 5 1;
#X connect 53 0 4 1;
#X connect 53 0 3 1;
#X connect 53 0 2 1;
#X connect 53 0 1 1;
#X connect 53 0 0 1;
#X connect 54 0 53 0;
#X connect 55 0 35 1;
#X connect 55 0 37 0;
#X connect 56 0 52 0;
#X connect 57 0 42 0;
#X restore 307 187 pd slot_4;
#N canvas 95 398 1108 428 slot_5 0;
#X obj 103 251 list;
#X obj 163 251 list;
#X obj 223 251 list;
#X obj 283 251 list;
#X obj 343 251 list;
#X obj 403 251 list;
#X obj 463 251 list;
#X obj 523 251 list;
#X obj 583 251 list;
#X obj 643 251 list;
#X obj 703 251 list;
#X obj 763 251 list;
#X obj 823 251 list;
#X obj 883 251 list;
#X obj 904 214 route 3;
#X obj 943 251 list;
#X obj 1003 251 list;
#X obj 124 30 r \$0-super_lista;
#X obj 124 214 route 16;
#X obj 184 214 route 15;
#X obj 244 214 route 14;
#X obj 304 214 route 13;
#X obj 364 214 route 12;
#X obj 424 214 route 11;
#X obj 484 214 route 10;
#X obj 544 214 route 9;
#X obj 604 214 route 8;
#X obj 664 214 route 7;
#X obj 724 214 route 6;
#X obj 784 214 route 5;
#X obj 844 214 route 4;
#X obj 964 214 route 2;
#X obj 1024 214 route 1;
#X obj 157 73 r \$0-slot_sel;
#X obj 157 94 + 1;
#X obj 124 141 spigot;
#X obj 160 384 s \$1-org_step_mod_in;
#X obj 301 134 sel 1;
#X obj 301 155 t b b b b b b b b b b b b b b b b;
#X obj 103 301 route bang;
#X obj 160 355 list trim;
#X obj 365 115 r \$0-slot_flush;
#X obj 575 372 s \$0-slot_out;
#X obj 646 18 r \$0-slot_open;
#X obj 124 183 t a a;
#X obj 160 327 t a a;
#X obj 562 122 s \$0-slot_flush;
#X obj 746 101 f;
#X obj 774 101 + 1;
#X msg 772 72 0;
#X obj 772 50 r \$0-open;
#X obj 665 122 list prepend 0;
#X obj 646 61 t b a b;
#X msg 27 234 bang;
#X obj 27 23 inlet reset;
#X obj 157 117 == 5;
#X obj 646 40 route slot_5;
#X obj 575 344 list prepend slot_5;
#X connect 0 0 39 0;
#X connect 1 0 39 0;
#X connect 2 0 39 0;
#X connect 3 0 39 0;
#X connect 4 0 39 0;
#X connect 5 0 39 0;
#X connect 6 0 39 0;
#X connect 7 0 39 0;
#X connect 8 0 39 0;
#X connect 9 0 39 0;
#X connect 10 0 39 0;
#X connect 11 0 39 0;
#X connect 12 0 39 0;
#X connect 13 0 39 0;
#X connect 14 0 13 1;
#X connect 15 0 39 0;
#X connect 16 0 39 0;
#X connect 17 0 35 0;
#X connect 18 0 0 1;
#X connect 19 0 1 1;
#X connect 20 0 2 1;
#X connect 21 0 3 1;
#X connect 22 0 4 1;
#X connect 23 0 5 1;
#X connect 24 0 6 1;
#X connect 25 0 7 1;
#X connect 26 0 8 1;
#X connect 27 0 9 1;
#X connect 28 0 10 1;
#X connect 29 0 11 1;
#X connect 30 0 12 1;
#X connect 31 0 15 1;
#X connect 32 0 16 1;
#X connect 33 0 34 0;
#X connect 34 0 55 0;
#X connect 35 0 44 0;
#X connect 37 0 38 0;
#X connect 38 0 0 0;
#X connect 38 1 1 0;
#X connect 38 2 2 0;
#X connect 38 3 3 0;
#X connect 38 4 4 0;
#X connect 38 5 5 0;
#X connect 38 6 6 0;
#X connect 38 7 7 0;
#X connect 38 8 8 0;
#X connect 38 9 9 0;
#X connect 38 10 10 0;
#X connect 38 11 11 0;
#X connect 38 12 12 0;
#X connect 38 13 13 0;
#X connect 38 14 15 0;
#X connect 38 15 16 0;
#X connect 39 1 45 0;
#X connect 40 0 36 0;
#X connect 41 0 38 0;
#X connect 43 0 56 0;
#X connect 44 0 14 0;
#X connect 44 0 18 0;
#X connect 44 0 19 0;
#X connect 44 0 20 0;
#X connect 44 0 21 0;
#X connect 44 0 22 0;
#X connect 44 0 23 0;
#X connect 44 0 24 0;
#X connect 44 0 25 0;
#X connect 44 0 26 0;
#X connect 44 0 27 0;
#X connect 44 0 28 0;
#X connect 44 0 29 0;
#X connect 44 0 30 0;
#X connect 44 0 31 0;
#X connect 44 0 32 0;
#X connect 45 0 40 0;
#X connect 45 1 57 0;
#X connect 47 0 48 0;
#X connect 47 0 51 1;
#X connect 48 0 47 1;
#X connect 49 0 47 0;
#X connect 50 0 49 0;
#X connect 51 0 44 0;
#X connect 52 0 46 0;
#X connect 52 1 51 0;
#X connect 52 2 47 0;
#X connect 53 0 16 1;
#X connect 53 0 15 1;
#X connect 53 0 13 1;
#X connect 53 0 12 1;
#X connect 53 0 11 1;
#X connect 53 0 10 1;
#X connect 53 0 9 1;
#X connect 53 0 8 1;
#X connect 53 0 7 1;
#X connect 53 0 6 1;
#X connect 53 0 5 1;
#X connect 53 0 4 1;
#X connect 53 0 3 1;
#X connect 53 0 2 1;
#X connect 53 0 1 1;
#X connect 53 0 0 1;
#X connect 54 0 53 0;
#X connect 55 0 35 1;
#X connect 55 0 37 0;
#X connect 56 0 52 0;
#X connect 57 0 42 0;
#X restore 307 207 pd slot_5;
#N canvas 95 398 1108 428 slot_6 0;
#X obj 103 251 list;
#X obj 163 251 list;
#X obj 223 251 list;
#X obj 283 251 list;
#X obj 343 251 list;
#X obj 403 251 list;
#X obj 463 251 list;
#X obj 523 251 list;
#X obj 583 251 list;
#X obj 643 251 list;
#X obj 703 251 list;
#X obj 763 251 list;
#X obj 823 251 list;
#X obj 883 251 list;
#X obj 904 214 route 3;
#X obj 943 251 list;
#X obj 1003 251 list;
#X obj 124 30 r \$0-super_lista;
#X obj 124 214 route 16;
#X obj 184 214 route 15;
#X obj 244 214 route 14;
#X obj 304 214 route 13;
#X obj 364 214 route 12;
#X obj 424 214 route 11;
#X obj 484 214 route 10;
#X obj 544 214 route 9;
#X obj 604 214 route 8;
#X obj 664 214 route 7;
#X obj 724 214 route 6;
#X obj 784 214 route 5;
#X obj 844 214 route 4;
#X obj 964 214 route 2;
#X obj 1024 214 route 1;
#X obj 157 73 r \$0-slot_sel;
#X obj 157 94 + 1;
#X obj 124 141 spigot;
#X obj 160 384 s \$1-org_step_mod_in;
#X obj 301 134 sel 1;
#X obj 301 155 t b b b b b b b b b b b b b b b b;
#X obj 103 301 route bang;
#X obj 160 355 list trim;
#X obj 365 115 r \$0-slot_flush;
#X obj 575 372 s \$0-slot_out;
#X obj 646 18 r \$0-slot_open;
#X obj 124 183 t a a;
#X obj 160 327 t a a;
#X obj 562 122 s \$0-slot_flush;
#X obj 746 101 f;
#X obj 774 101 + 1;
#X msg 772 72 0;
#X obj 772 50 r \$0-open;
#X obj 665 122 list prepend 0;
#X obj 646 61 t b a b;
#X msg 27 234 bang;
#X obj 27 23 inlet reset;
#X obj 157 117 == 6;
#X obj 646 40 route slot_6;
#X obj 575 344 list prepend slot_6;
#X connect 0 0 39 0;
#X connect 1 0 39 0;
#X connect 2 0 39 0;
#X connect 3 0 39 0;
#X connect 4 0 39 0;
#X connect 5 0 39 0;
#X connect 6 0 39 0;
#X connect 7 0 39 0;
#X connect 8 0 39 0;
#X connect 9 0 39 0;
#X connect 10 0 39 0;
#X connect 11 0 39 0;
#X connect 12 0 39 0;
#X connect 13 0 39 0;
#X connect 14 0 13 1;
#X connect 15 0 39 0;
#X connect 16 0 39 0;
#X connect 17 0 35 0;
#X connect 18 0 0 1;
#X connect 19 0 1 1;
#X connect 20 0 2 1;
#X connect 21 0 3 1;
#X connect 22 0 4 1;
#X connect 23 0 5 1;
#X connect 24 0 6 1;
#X connect 25 0 7 1;
#X connect 26 0 8 1;
#X connect 27 0 9 1;
#X connect 28 0 10 1;
#X connect 29 0 11 1;
#X connect 30 0 12 1;
#X connect 31 0 15 1;
#X connect 32 0 16 1;
#X connect 33 0 34 0;
#X connect 34 0 55 0;
#X connect 35 0 44 0;
#X connect 37 0 38 0;
#X connect 38 0 0 0;
#X connect 38 1 1 0;
#X connect 38 2 2 0;
#X connect 38 3 3 0;
#X connect 38 4 4 0;
#X connect 38 5 5 0;
#X connect 38 6 6 0;
#X connect 38 7 7 0;
#X connect 38 8 8 0;
#X connect 38 9 9 0;
#X connect 38 10 10 0;
#X connect 38 11 11 0;
#X connect 38 12 12 0;
#X connect 38 13 13 0;
#X connect 38 14 15 0;
#X connect 38 15 16 0;
#X connect 39 1 45 0;
#X connect 40 0 36 0;
#X connect 41 0 38 0;
#X connect 43 0 56 0;
#X connect 44 0 14 0;
#X connect 44 0 18 0;
#X connect 44 0 19 0;
#X connect 44 0 20 0;
#X connect 44 0 21 0;
#X connect 44 0 22 0;
#X connect 44 0 23 0;
#X connect 44 0 24 0;
#X connect 44 0 25 0;
#X connect 44 0 26 0;
#X connect 44 0 27 0;
#X connect 44 0 28 0;
#X connect 44 0 29 0;
#X connect 44 0 30 0;
#X connect 44 0 31 0;
#X connect 44 0 32 0;
#X connect 45 0 40 0;
#X connect 45 1 57 0;
#X connect 47 0 48 0;
#X connect 47 0 51 1;
#X connect 48 0 47 1;
#X connect 49 0 47 0;
#X connect 50 0 49 0;
#X connect 51 0 44 0;
#X connect 52 0 46 0;
#X connect 52 1 51 0;
#X connect 52 2 47 0;
#X connect 53 0 16 1;
#X connect 53 0 15 1;
#X connect 53 0 13 1;
#X connect 53 0 12 1;
#X connect 53 0 11 1;
#X connect 53 0 10 1;
#X connect 53 0 9 1;
#X connect 53 0 8 1;
#X connect 53 0 7 1;
#X connect 53 0 6 1;
#X connect 53 0 5 1;
#X connect 53 0 4 1;
#X connect 53 0 3 1;
#X connect 53 0 2 1;
#X connect 53 0 1 1;
#X connect 53 0 0 1;
#X connect 54 0 53 0;
#X connect 55 0 35 1;
#X connect 55 0 37 0;
#X connect 56 0 52 0;
#X connect 57 0 42 0;
#X restore 307 227 pd slot_6;
#N canvas 95 398 1108 428 slot_7 0;
#X obj 103 251 list;
#X obj 163 251 list;
#X obj 223 251 list;
#X obj 283 251 list;
#X obj 343 251 list;
#X obj 403 251 list;
#X obj 463 251 list;
#X obj 523 251 list;
#X obj 583 251 list;
#X obj 643 251 list;
#X obj 703 251 list;
#X obj 763 251 list;
#X obj 823 251 list;
#X obj 883 251 list;
#X obj 904 214 route 3;
#X obj 943 251 list;
#X obj 1003 251 list;
#X obj 124 30 r \$0-super_lista;
#X obj 124 214 route 16;
#X obj 184 214 route 15;
#X obj 244 214 route 14;
#X obj 304 214 route 13;
#X obj 364 214 route 12;
#X obj 424 214 route 11;
#X obj 484 214 route 10;
#X obj 544 214 route 9;
#X obj 604 214 route 8;
#X obj 664 214 route 7;
#X obj 724 214 route 6;
#X obj 784 214 route 5;
#X obj 844 214 route 4;
#X obj 964 214 route 2;
#X obj 1024 214 route 1;
#X obj 157 73 r \$0-slot_sel;
#X obj 157 94 + 1;
#X obj 124 141 spigot;
#X obj 160 384 s \$1-org_step_mod_in;
#X obj 301 134 sel 1;
#X obj 301 155 t b b b b b b b b b b b b b b b b;
#X obj 103 301 route bang;
#X obj 160 355 list trim;
#X obj 365 115 r \$0-slot_flush;
#X obj 575 372 s \$0-slot_out;
#X obj 646 18 r \$0-slot_open;
#X obj 124 183 t a a;
#X obj 160 327 t a a;
#X obj 562 122 s \$0-slot_flush;
#X obj 746 101 f;
#X obj 774 101 + 1;
#X msg 772 72 0;
#X obj 772 50 r \$0-open;
#X obj 665 122 list prepend 0;
#X obj 646 61 t b a b;
#X msg 27 234 bang;
#X obj 27 23 inlet reset;
#X obj 157 117 == 7;
#X obj 646 40 route slot_7;
#X obj 575 344 list prepend slot_7;
#X connect 0 0 39 0;
#X connect 1 0 39 0;
#X connect 2 0 39 0;
#X connect 3 0 39 0;
#X connect 4 0 39 0;
#X connect 5 0 39 0;
#X connect 6 0 39 0;
#X connect 7 0 39 0;
#X connect 8 0 39 0;
#X connect 9 0 39 0;
#X connect 10 0 39 0;
#X connect 11 0 39 0;
#X connect 12 0 39 0;
#X connect 13 0 39 0;
#X connect 14 0 13 1;
#X connect 15 0 39 0;
#X connect 16 0 39 0;
#X connect 17 0 35 0;
#X connect 18 0 0 1;
#X connect 19 0 1 1;
#X connect 20 0 2 1;
#X connect 21 0 3 1;
#X connect 22 0 4 1;
#X connect 23 0 5 1;
#X connect 24 0 6 1;
#X connect 25 0 7 1;
#X connect 26 0 8 1;
#X connect 27 0 9 1;
#X connect 28 0 10 1;
#X connect 29 0 11 1;
#X connect 30 0 12 1;
#X connect 31 0 15 1;
#X connect 32 0 16 1;
#X connect 33 0 34 0;
#X connect 34 0 55 0;
#X connect 35 0 44 0;
#X connect 37 0 38 0;
#X connect 38 0 0 0;
#X connect 38 1 1 0;
#X connect 38 2 2 0;
#X connect 38 3 3 0;
#X connect 38 4 4 0;
#X connect 38 5 5 0;
#X connect 38 6 6 0;
#X connect 38 7 7 0;
#X connect 38 8 8 0;
#X connect 38 9 9 0;
#X connect 38 10 10 0;
#X connect 38 11 11 0;
#X connect 38 12 12 0;
#X connect 38 13 13 0;
#X connect 38 14 15 0;
#X connect 38 15 16 0;
#X connect 39 1 45 0;
#X connect 40 0 36 0;
#X connect 41 0 38 0;
#X connect 43 0 56 0;
#X connect 44 0 14 0;
#X connect 44 0 18 0;
#X connect 44 0 19 0;
#X connect 44 0 20 0;
#X connect 44 0 21 0;
#X connect 44 0 22 0;
#X connect 44 0 23 0;
#X connect 44 0 24 0;
#X connect 44 0 25 0;
#X connect 44 0 26 0;
#X connect 44 0 27 0;
#X connect 44 0 28 0;
#X connect 44 0 29 0;
#X connect 44 0 30 0;
#X connect 44 0 31 0;
#X connect 44 0 32 0;
#X connect 45 0 40 0;
#X connect 45 1 57 0;
#X connect 47 0 48 0;
#X connect 47 0 51 1;
#X connect 48 0 47 1;
#X connect 49 0 47 0;
#X connect 50 0 49 0;
#X connect 51 0 44 0;
#X connect 52 0 46 0;
#X connect 52 1 51 0;
#X connect 52 2 47 0;
#X connect 53 0 16 1;
#X connect 53 0 15 1;
#X connect 53 0 13 1;
#X connect 53 0 12 1;
#X connect 53 0 11 1;
#X connect 53 0 10 1;
#X connect 53 0 9 1;
#X connect 53 0 8 1;
#X connect 53 0 7 1;
#X connect 53 0 6 1;
#X connect 53 0 5 1;
#X connect 53 0 4 1;
#X connect 53 0 3 1;
#X connect 53 0 2 1;
#X connect 53 0 1 1;
#X connect 53 0 0 1;
#X connect 54 0 53 0;
#X connect 55 0 35 1;
#X connect 55 0 37 0;
#X connect 56 0 52 0;
#X connect 57 0 42 0;
#X restore 307 247 pd slot_7;
#N canvas 95 398 1108 428 slot_8 0;
#X obj 103 251 list;
#X obj 163 251 list;
#X obj 223 251 list;
#X obj 283 251 list;
#X obj 343 251 list;
#X obj 403 251 list;
#X obj 463 251 list;
#X obj 523 251 list;
#X obj 583 251 list;
#X obj 643 251 list;
#X obj 703 251 list;
#X obj 763 251 list;
#X obj 823 251 list;
#X obj 883 251 list;
#X obj 904 214 route 3;
#X obj 943 251 list;
#X obj 1003 251 list;
#X obj 124 30 r \$0-super_lista;
#X obj 124 214 route 16;
#X obj 184 214 route 15;
#X obj 244 214 route 14;
#X obj 304 214 route 13;
#X obj 364 214 route 12;
#X obj 424 214 route 11;
#X obj 484 214 route 10;
#X obj 544 214 route 9;
#X obj 604 214 route 8;
#X obj 664 214 route 7;
#X obj 724 214 route 6;
#X obj 784 214 route 5;
#X obj 844 214 route 4;
#X obj 964 214 route 2;
#X obj 1024 214 route 1;
#X obj 157 73 r \$0-slot_sel;
#X obj 157 94 + 1;
#X obj 124 141 spigot;
#X obj 160 384 s \$1-org_step_mod_in;
#X obj 301 134 sel 1;
#X obj 301 155 t b b b b b b b b b b b b b b b b;
#X obj 103 301 route bang;
#X obj 160 355 list trim;
#X obj 365 115 r \$0-slot_flush;
#X obj 575 372 s \$0-slot_out;
#X obj 646 18 r \$0-slot_open;
#X obj 124 183 t a a;
#X obj 160 327 t a a;
#X obj 562 122 s \$0-slot_flush;
#X obj 746 101 f;
#X obj 774 101 + 1;
#X msg 772 72 0;
#X obj 772 50 r \$0-open;
#X obj 665 122 list prepend 0;
#X obj 646 61 t b a b;
#X msg 27 234 bang;
#X obj 27 23 inlet reset;
#X obj 157 117 == 8;
#X obj 646 40 route slot_8;
#X obj 575 344 list prepend slot_8;
#X connect 0 0 39 0;
#X connect 1 0 39 0;
#X connect 2 0 39 0;
#X connect 3 0 39 0;
#X connect 4 0 39 0;
#X connect 5 0 39 0;
#X connect 6 0 39 0;
#X connect 7 0 39 0;
#X connect 8 0 39 0;
#X connect 9 0 39 0;
#X connect 10 0 39 0;
#X connect 11 0 39 0;
#X connect 12 0 39 0;
#X connect 13 0 39 0;
#X connect 14 0 13 1;
#X connect 15 0 39 0;
#X connect 16 0 39 0;
#X connect 17 0 35 0;
#X connect 18 0 0 1;
#X connect 19 0 1 1;
#X connect 20 0 2 1;
#X connect 21 0 3 1;
#X connect 22 0 4 1;
#X connect 23 0 5 1;
#X connect 24 0 6 1;
#X connect 25 0 7 1;
#X connect 26 0 8 1;
#X connect 27 0 9 1;
#X connect 28 0 10 1;
#X connect 29 0 11 1;
#X connect 30 0 12 1;
#X connect 31 0 15 1;
#X connect 32 0 16 1;
#X connect 33 0 34 0;
#X connect 34 0 55 0;
#X connect 35 0 44 0;
#X connect 37 0 38 0;
#X connect 38 0 0 0;
#X connect 38 1 1 0;
#X connect 38 2 2 0;
#X connect 38 3 3 0;
#X connect 38 4 4 0;
#X connect 38 5 5 0;
#X connect 38 6 6 0;
#X connect 38 7 7 0;
#X connect 38 8 8 0;
#X connect 38 9 9 0;
#X connect 38 10 10 0;
#X connect 38 11 11 0;
#X connect 38 12 12 0;
#X connect 38 13 13 0;
#X connect 38 14 15 0;
#X connect 38 15 16 0;
#X connect 39 1 45 0;
#X connect 40 0 36 0;
#X connect 41 0 38 0;
#X connect 43 0 56 0;
#X connect 44 0 14 0;
#X connect 44 0 18 0;
#X connect 44 0 19 0;
#X connect 44 0 20 0;
#X connect 44 0 21 0;
#X connect 44 0 22 0;
#X connect 44 0 23 0;
#X connect 44 0 24 0;
#X connect 44 0 25 0;
#X connect 44 0 26 0;
#X connect 44 0 27 0;
#X connect 44 0 28 0;
#X connect 44 0 29 0;
#X connect 44 0 30 0;
#X connect 44 0 31 0;
#X connect 44 0 32 0;
#X connect 45 0 40 0;
#X connect 45 1 57 0;
#X connect 47 0 48 0;
#X connect 47 0 51 1;
#X connect 48 0 47 1;
#X connect 49 0 47 0;
#X connect 50 0 49 0;
#X connect 51 0 44 0;
#X connect 52 0 46 0;
#X connect 52 1 51 0;
#X connect 52 2 47 0;
#X connect 53 0 16 1;
#X connect 53 0 15 1;
#X connect 53 0 13 1;
#X connect 53 0 12 1;
#X connect 53 0 11 1;
#X connect 53 0 10 1;
#X connect 53 0 9 1;
#X connect 53 0 8 1;
#X connect 53 0 7 1;
#X connect 53 0 6 1;
#X connect 53 0 5 1;
#X connect 53 0 4 1;
#X connect 53 0 3 1;
#X connect 53 0 2 1;
#X connect 53 0 1 1;
#X connect 53 0 0 1;
#X connect 54 0 53 0;
#X connect 55 0 35 1;
#X connect 55 0 37 0;
#X connect 56 0 52 0;
#X connect 57 0 42 0;
#X restore 307 267 pd slot_8;
#X obj 413 20 r \$0-clear;
#X obj 428 42 r \$0-slot_sel;
#X obj 413 86 f 0;
#X obj 428 63 + 1;
#X obj 413 110 sel 1 2 3 4 5 6 7 8;
#X obj 307 20 r \$0-clear_all;
#X connect 0 0 2 0;
#X connect 2 0 6 0;
#X connect 2 1 3 0;
#X connect 3 0 4 0;
#X connect 3 0 6 1;
#X connect 4 0 3 1;
#X connect 5 0 3 0;
#X connect 6 0 7 0;
#X connect 8 0 1 0;
#X connect 8 1 5 0;
#X connect 10 0 8 0;
#X connect 18 0 20 0;
#X connect 19 0 21 0;
#X connect 20 0 22 0;
#X connect 21 0 20 1;
#X connect 22 0 9 0;
#X connect 22 1 11 0;
#X connect 22 2 12 0;
#X connect 22 3 13 0;
#X connect 22 4 14 0;
#X connect 22 5 15 0;
#X connect 22 6 16 0;
#X connect 22 7 17 0;
#X connect 23 0 9 0;
#X connect 23 0 11 0;
#X connect 23 0 12 0;
#X connect 23 0 13 0;
#X connect 23 0 14 0;
#X connect 23 0 15 0;
#X connect 23 0 16 0;
#X connect 23 0 17 0;
#X restore 290 136 pd slots;
#N canvas 446 139 233 164 init 0;
#X obj 42 58 s \$0-nomein;
#X obj 42 130 s \$0-slot_sel_in;
#X msg 42 35 symbol vazio;
#X obj 157 34 s \$0-lb;
#X obj 157 12 loadbang;
#X obj 42 13 r \$0-lb;
#X obj 42 86 r \$0-lb;
#X msg 42 108 0;
#X connect 2 0 0 0;
#X connect 4 0 3 0;
#X connect 5 0 2 0;
#X connect 6 0 7 0;
#X connect 7 0 1 0;
#X restore 290 57 pd init;
#X obj 129 118 bng 13 250 50 0 \$0-clear \$0-clear_in empty 17 7 0
10 -262144 -1 -1;
#X text 145 117 limpa;
#X obj 189 118 bng 13 250 50 0 \$0-clear_all \$0-clear_all_in empty
17 7 0 10 -262144 -1 -1;
#X text 205 117 limpa td;
#N canvas 472 234 393 158 LEIA-ME 0;
#X text 29 106 - licença GPLv3 - http://www.gnu.org/copyleft/gpl.txt
;
#X text 29 26 -- org_abs 0.2 - abstrações orgânicas - 2014;
#X text 29 56 - conjunto de abstrações para controle de áudio e vídeo
\, desenvolvido por brunorohde (brunorohde.wordpress.com / brunorohde@gmail.com)
;
#X restore 346 16 pd LEIA-ME;
#X obj 51 51 cnv 2 10 2 empty empty empty 20 12 0 14 -262144 -66577
0;
#N canvas 192 540 989 216 controles 0;
#X obj 62 22 inlet;
#X obj 382 121 s \$0-caminho;
#X obj 62 152 s \$0-slot_sel_in;
#X text 69 174 slot de 0 a 7;
#X obj 172 152 s \$0-grava_slot_in;
#X obj 292 152 s \$0-clear_in;
#X obj 382 152 s \$0-clear_all_in;
#X obj 522 38 r \$1-teclado_control;
#X obj 522 85 route slot grava_slot clear clear_all;
#X obj 522 152 s \$0-slot_sel_in;
#X obj 632 152 s \$0-grava_slot_in;
#X obj 752 152 s \$0-clear_in;
#X obj 842 152 s \$0-clear_all_in;
#X text 529 174 slot de 0 a 7;
#X obj 62 110 - 1;
#X obj 62 85 route slot grava_slot clear clear_all caminho;
#X obj 62 130 clip 1 8;
#X connect 0 0 15 0;
#X connect 7 0 8 0;
#X connect 8 0 9 0;
#X connect 8 1 10 0;
#X connect 8 2 11 0;
#X connect 8 3 12 0;
#X connect 14 0 16 0;
#X connect 15 0 14 0;
#X connect 15 1 4 0;
#X connect 15 2 5 0;
#X connect 15 3 6 0;
#X connect 15 4 1 0;
#X connect 16 0 2 0;
#X restore 50 27 pd controles;
#X obj 50 6 inlet controles;
#X connect 27 0 26 0;
#X coords 0 -1 1 1 210 110 2 50 50;
