#N canvas 264 162 670 417 10;
#X obj 200 70 cnv 15 120 27 empty empty empty 20 12 0 14 -261682 -66577
0;
#X msg 248 264 start;
#X msg 296 264 stop;
#X obj 84 22 inlet~;
#X obj 141 22 inlet~;
#X floatatom 206 76 5 0 0 0 - - -;
#X obj 191 116 f;
#X obj 248 99 t b b;
#X obj 248 77 bng 15 250 50 0 empty empty empty 17 7 0 10 -258113 -1
-1;
#X obj 272 77 bng 15 250 50 0 empty empty empty 17 7 0 10 -86277 -262144
-1;
#X obj 385 24 inlet;
#X obj 160 382 outlet;
#X obj 272 342 del 2000;
#X msg 160 359 caminho /Users/brunorohde/Desktop/sessao_09_02_2015/audio1.wav
;
#X obj 299 77 tgl 15 0 empty empty empty 17 7 0 10 -262144 -1 -1 0
1;
#X msg 366 281 1;
#X msg 396 281 0;
#X obj 330 24 inlet;
#X obj 385 60 route start stop dir;
#X obj 399 161 r \$0-dir;
#X obj 463 111 s \$0-dir;
#X msg 210 226 open \$1audio\$2.wav;
#X obj 210 203 pack s f;
#X obj 191 144 t f b f;
#X msg 206 45 1;
#X obj 206 25 loadbang;
#X obj 201 71 cnv 2 10 2 empty empty empty 20 12 0 14 -128992 -66577
0;
#X obj 309 71 cnv 2 10 2 empty empty empty 20 12 0 14 -262144 -66577
0;
#X obj 233 71 cnv 2 10 2 empty empty empty 20 12 0 14 -128992 -66577
0;
#X obj 273 71 cnv 2 10 2 empty empty empty 20 12 0 14 -262144 -66577
0;
#X obj 201 94 cnv 2 10 2 empty empty empty 20 12 0 14 -262144 -66577
0;
#X obj 463 88 symbol;
#N canvas 472 234 393 158 LEIA-ME 0;
#X text 29 106 - licença GPLv3 - http://www.gnu.org/copyleft/gpl.txt
;
#X text 29 26 -- org_abs 0.2 - abstrações orgânicas - 2014;
#X text 29 56 - conjunto de abstrações para controle de áudio e vídeo
\, desenvolvido por brunorohde (brunorohde.wordpress.com / brunorohde@gmail.com)
;
#X restore 551 24 pd LEIA-ME;
#X msg 160 310 set caminho /Users/brunorohde/Desktop/sessao_09_02_2015/audio\$1.wav
;
#X obj 84 281 writesf~ 2;
#X obj 210 181 symbol /home/brunorohde/Desktop/;
#X connect 1 0 15 0;
#X connect 1 0 34 0;
#X connect 2 0 16 0;
#X connect 2 0 34 0;
#X connect 3 0 34 0;
#X connect 4 0 34 1;
#X connect 5 0 6 1;
#X connect 6 0 23 0;
#X connect 7 0 1 0;
#X connect 7 1 6 0;
#X connect 8 0 7 0;
#X connect 9 0 2 0;
#X connect 9 0 12 0;
#X connect 10 0 18 0;
#X connect 12 0 13 0;
#X connect 13 0 11 0;
#X connect 15 0 14 0;
#X connect 16 0 14 0;
#X connect 17 0 5 0;
#X connect 18 0 8 0;
#X connect 18 1 9 0;
#X connect 18 2 31 0;
#X connect 19 0 35 1;
#X connect 21 0 34 0;
#X connect 22 0 21 0;
#X connect 23 0 33 0;
#X connect 23 1 35 0;
#X connect 23 2 22 1;
#X connect 24 0 5 0;
#X connect 25 0 24 0;
#X connect 31 0 20 0;
#X connect 33 0 13 0;
#X connect 35 0 22 0;
#X coords 0 -1 1 1 120 27 2 200 70;
