#N canvas 110 117 773 582 10;
#X obj 62 47 inlet~ deckA_L;
#X obj 162 47 inlet~ deckA_R;
#X obj 292 47 inlet~ deckB_L;
#X obj 392 47 inlet~ deckB_R;
#X obj 187 543 outlet~ master_L;
#X obj 307 543 outlet~ master_R;
#N canvas 145 215 695 442 stereomixer 0;
#X obj 565 115 clip -1 1;
#X obj 565 181 pack 0 100;
#X obj 565 203 line~;
#X obj 475 251 cos~;
#X obj 126 302 *~;
#X obj 565 227 +~ 0.75;
#X obj 565 251 cos~;
#X obj 187 302 *~;
#X obj 565 137 + 1;
#X obj 565 158 * 0.125;
#X obj 286 302 *~;
#X obj 347 302 *~;
#X obj 126 355 outlet~ L;
#X obj 348 355 outlet~ R;
#X obj 56 57 inlet~ deckA_L;
#X obj 156 57 inlet~ deckA_R;
#X obj 326 57 inlet~ deckB_L;
#X obj 426 57 inlet~ deckB_R;
#X obj 565 90 inlet;
#X text 563 70 mixer;
#X connect 0 0 8 0;
#X connect 1 0 2 0;
#X connect 2 0 5 0;
#X connect 2 0 3 0;
#X connect 3 0 4 1;
#X connect 3 0 7 1;
#X connect 4 0 12 0;
#X connect 5 0 6 0;
#X connect 6 0 10 1;
#X connect 6 0 11 1;
#X connect 7 0 13 0;
#X connect 8 0 9 0;
#X connect 9 0 1 0;
#X connect 10 0 12 0;
#X connect 11 0 13 0;
#X connect 14 0 4 0;
#X connect 15 0 7 0;
#X connect 16 0 10 0;
#X connect 17 0 11 0;
#X connect 18 0 0 0;
#X restore 217 383 pd stereomixer;
#X obj 437 348 r \$0-mix;
#N canvas 333 165 260 343 pan 0;
#X obj 146 59 r \$0-pan;
#X obj 146 83 clip -1 1;
#X obj 146 150 pack 0 100;
#X obj 146 174 line~;
#X obj 36 222 cos~;
#X obj 21 250 *~;
#X obj 146 199 +~ 0.75;
#X obj 146 222 cos~;
#X obj 131 250 *~;
#X obj 146 105 + 1;
#X obj 146 127 * 0.125;
#X obj 21 24 inlet~ master_L;
#X obj 131 24 inlet~ master_R;
#X obj 21 295 outlet~ master_L;
#X obj 131 295 outlet~ master_R;
#X connect 0 0 1 0;
#X connect 1 0 9 0;
#X connect 2 0 3 0;
#X connect 3 0 6 0;
#X connect 3 0 4 0;
#X connect 4 0 5 1;
#X connect 5 0 13 0;
#X connect 6 0 7 0;
#X connect 7 0 8 1;
#X connect 8 0 14 0;
#X connect 9 0 10 0;
#X connect 10 0 2 0;
#X connect 11 0 5 0;
#X connect 12 0 8 0;
#X restore 239 416 pd pan;
#N canvas 86 449 808 260 pvu 0;
#X obj 181 218 s \$0-pvu_L;
#X obj 251 218 s \$0-pvu_R;
#X obj 225 70 *~ 0;
#X obj 265 70 *~ 0;
#X obj 405 70 *~ 0;
#X obj 445 70 *~ 0;
#X obj 35 70 *~ 0;
#X obj 75 70 *~ 0;
#X obj 569 138 sel 0 1 2;
#X obj 586 218 s \$0-pvuA;
#X obj 656 218 s \$0-pvuB;
#X obj 496 218 s \$0-pvuO;
#X obj 306 53 r \$0-pvuA;
#X obj 486 53 r \$0-pvuB;
#X obj 116 53 r \$0-pvuO;
#X msg 586 194 1;
#X msg 616 194 0;
#X msg 656 194 1;
#X msg 686 194 0;
#X msg 496 194 1;
#X msg 526 194 0;
#X obj 569 90 r \$0-pvu_sel;
#X obj 569 115 clip 0 2;
#X obj 314 146 r \$0-pvu;
#X text 567 68 escolhe fonte (output/deckA/deckB);
#X text 311 126 liga/desl. pvu;
#X obj 35 14 r~ \$0-output_L;
#X obj 125 14 r~ \$0-output_R;
#X obj 225 14 r~ \$0-deckA_L;
#X obj 315 14 r~ \$0-deckA_R;
#X obj 405 14 r~ \$0-deckB_L;
#X obj 495 14 r~ \$0-deckB_R;
#X obj 181 102 env~;
#X obj 251 102 env~;
#X obj 181 125 - 100;
#X obj 251 125 - 100;
#X obj 181 163 spigot;
#X obj 251 163 spigot;
#X connect 2 0 32 0;
#X connect 3 0 33 0;
#X connect 4 0 32 0;
#X connect 5 0 33 0;
#X connect 6 0 32 0;
#X connect 7 0 33 0;
#X connect 8 0 19 0;
#X connect 8 0 16 0;
#X connect 8 0 18 0;
#X connect 8 1 15 0;
#X connect 8 1 20 0;
#X connect 8 1 18 0;
#X connect 8 2 17 0;
#X connect 8 2 20 0;
#X connect 8 2 16 0;
#X connect 12 0 2 1;
#X connect 12 0 3 1;
#X connect 13 0 4 1;
#X connect 13 0 5 1;
#X connect 14 0 6 1;
#X connect 14 0 7 1;
#X connect 15 0 9 0;
#X connect 16 0 9 0;
#X connect 17 0 10 0;
#X connect 18 0 10 0;
#X connect 19 0 11 0;
#X connect 20 0 11 0;
#X connect 21 0 22 0;
#X connect 22 0 8 0;
#X connect 23 0 37 1;
#X connect 23 0 36 1;
#X connect 26 0 6 0;
#X connect 27 0 7 0;
#X connect 28 0 2 0;
#X connect 29 0 3 0;
#X connect 30 0 4 0;
#X connect 31 0 5 0;
#X connect 32 0 34 0;
#X connect 33 0 35 0;
#X connect 34 0 36 0;
#X connect 35 0 37 0;
#X connect 36 0 0 0;
#X connect 37 0 1 0;
#X restore 658 93 pd pvu;
#N canvas 483 219 328 224 init 0;
#X obj 26 64 s \$0-pvu_in;
#X obj 118 64 s \$0-pvu_sel_in;
#X obj 118 84 s \$0-pan_in;
#X obj 235 184 s \$0-mix_in;
#X obj 26 84 s \$0-vol_in;
#X obj 26 164 s \$0-ganho_a_in;
#X obj 126 164 s \$0-ganho_b_in;
#X obj 236 29 loadbang;
#X obj 236 52 s \$0-lb;
#X obj 26 24 r \$0-lb;
#X msg 26 44 1;
#X obj 118 24 r \$0-lb;
#X msg 118 44 0;
#X obj 26 123 r \$0-lb;
#X msg 26 143 0.5;
#X obj 235 144 r \$0-lb;
#X msg 235 164 -1;
#X connect 7 0 8 0;
#X connect 9 0 10 0;
#X connect 10 0 0 0;
#X connect 10 0 4 0;
#X connect 11 0 12 0;
#X connect 12 0 1 0;
#X connect 12 0 2 0;
#X connect 13 0 14 0;
#X connect 14 0 5 0;
#X connect 14 0 6 0;
#X connect 15 0 16 0;
#X connect 16 0 3 0;
#X restore 658 70 pd init;
#X obj 522 47 inlet controles;
#N canvas 237 183 704 250 controles 0;
#X obj 49 200 s \$0-mix_in;
#X obj 49 172 clip -1 1;
#X obj 129 172 clip -1 1;
#X obj 129 200 s \$0-pan_in;
#X obj 209 140 s \$0-pvu_in;
#X obj 289 140 s \$0-pvu_sel_in;
#X obj 49 35 inlet;
#X obj 389 140 s \$0-vol_in;
#X obj 49 85 route mix pan pvu pvu_sel vol ganho_a ganho_b;
#X obj 469 140 s \$0-ganho_a_in;
#X obj 573 140 s \$0-ganho_b_in;
#N canvas 0 50 493 337 scala 0;
#X text 56 48 Made by Thomas Ouellet Fredericks for the ID collective
;
#X text 58 68 tom@danslchamp.org;
#X text 287 71 21 novembre 2004;
#X obj 30 175 inlet;
#X obj 30 277 outlet;
#X text 202 227 max input;
#X text 119 227 min input;
#X text 361 227 max output;
#X text 279 226 min output;
#X obj 30 245 expr ((($f1 - $f2) / ($f2 - $f3)) * ($f4 - $f5)) + $f4
;
#X text 55 92 fixed by Jamie Bullock 2007;
#X text 54 20 - baseado em [scale.linear]:;
#X obj 110 186 unpack f f f f;
#X msg 110 166 0 1 -1 1;
#X obj 110 145 r \$0-lb;
#X connect 3 0 9 0;
#X connect 9 0 4 0;
#X connect 12 0 9 1;
#X connect 12 1 9 2;
#X connect 12 2 9 3;
#X connect 12 3 9 4;
#X connect 13 0 12 0;
#X connect 14 0 13 0;
#X restore 49 140 pd scala;
#N canvas 0 50 493 337 scala 0;
#X text 56 48 Made by Thomas Ouellet Fredericks for the ID collective
;
#X text 58 68 tom@danslchamp.org;
#X text 287 71 21 novembre 2004;
#X obj 30 175 inlet;
#X obj 30 277 outlet;
#X text 202 227 max input;
#X text 119 227 min input;
#X text 361 227 max output;
#X text 279 226 min output;
#X obj 30 245 expr ((($f1 - $f2) / ($f2 - $f3)) * ($f4 - $f5)) + $f4
;
#X text 55 92 fixed by Jamie Bullock 2007;
#X text 54 20 - baseado em [scale.linear]:;
#X obj 110 186 unpack f f f f;
#X msg 110 166 0 1 -1 1;
#X obj 110 145 r \$0-lb;
#X connect 3 0 9 0;
#X connect 9 0 4 0;
#X connect 12 0 9 1;
#X connect 12 1 9 2;
#X connect 12 2 9 3;
#X connect 12 3 9 4;
#X connect 13 0 12 0;
#X connect 14 0 13 0;
#X restore 129 140 pd scala;
#X connect 1 0 0 0;
#X connect 2 0 3 0;
#X connect 6 0 8 0;
#X connect 8 0 11 0;
#X connect 8 1 12 0;
#X connect 8 2 4 0;
#X connect 8 3 5 0;
#X connect 8 4 7 0;
#X connect 8 5 9 0;
#X connect 8 6 10 0;
#X connect 11 0 1 0;
#X connect 12 0 2 0;
#X restore 522 83 pd controles;
#X obj 327 390 r \$0-vol;
#X obj 327 430 line~;
#X msg 327 410 \$1 50;
#X obj 239 490 *~;
#X obj 272 490 *~;
#X obj 62 113 s~ \$0-deckA_L;
#X obj 162 113 s~ \$0-deckA_R;
#X obj 292 113 s~ \$0-deckB_L;
#X obj 392 113 s~ \$0-deckB_R;
#X obj 327 507 s~ \$0-output_L;
#X obj 425 507 s~ \$0-output_R;
#X obj 57 348 r~ \$0-deckA_L;
#X obj 147 348 r~ \$0-deckA_R;
#X obj 237 348 r~ \$0-deckB_L;
#X obj 327 348 r~ \$0-deckB_R;
#N canvas 60 294 220 246 pre_ganho_a 0;
#X obj 113 65 r \$0-ganho_a;
#X obj 113 125 line~;
#X msg 113 105 \$1 50;
#X obj 37 167 *~;
#X obj 98 167 *~;
#X text 111 45 pre-ganho A;
#X obj 113 85 * 2;
#X obj 37 17 inlet~;
#X obj 98 17 inlet~;
#X obj 37 197 outlet~;
#X obj 98 197 outlet~;
#X connect 0 0 6 0;
#X connect 1 0 3 1;
#X connect 1 0 4 1;
#X connect 2 0 1 0;
#X connect 3 0 9 0;
#X connect 4 0 10 0;
#X connect 6 0 2 0;
#X connect 7 0 3 0;
#X connect 8 0 4 0;
#X restore 62 79 pd pre_ganho_a;
#N canvas 60 294 220 246 pre_ganho_b 0;
#X obj 113 125 line~;
#X msg 113 105 \$1 50;
#X obj 37 167 *~;
#X obj 98 167 *~;
#X obj 113 85 * 2;
#X obj 37 17 inlet~;
#X obj 98 17 inlet~;
#X obj 37 197 outlet~;
#X obj 98 197 outlet~;
#X text 111 45 pre-ganho B;
#X obj 113 65 r \$0-ganho_b;
#X connect 0 0 2 1;
#X connect 0 0 3 1;
#X connect 1 0 0 0;
#X connect 2 0 7 0;
#X connect 3 0 8 0;
#X connect 4 0 1 0;
#X connect 5 0 2 0;
#X connect 6 0 3 0;
#X connect 10 0 4 0;
#X restore 292 79 pd pre_ganho_b;
#X obj 125 160 cnv 15 330 145 empty empty empty 20 12 0 14 -261682
-66577 0;
#X obj 136 173 vu 15 120 \$0-pvu_L empty -1 -8 0 10 -66577 -1 1 0;
#X obj 186 173 vu 15 120 \$0-pvu_R empty -1 -8 0 10 -66577 -1 1 0;
#X obj 295 181 hsl 128 20 -1 1 0 0 \$0-mix \$0-mix_in empty -2 -8 0
10 -203904 -1 -1 0 1;
#X text 430 183 mix;
#X obj 295 233 hsl 128 15 -1 1 0 0 \$0-pan \$0-pan_in empty -2 -8 0
10 -232576 -1 -1 6350 1;
#X text 430 235 pan;
#X text 291 164 A;
#X text 418 164 B;
#X text 354 164 |;
#X text 354 216 |;
#X text 291 216 L;
#X text 418 216 R;
#X obj 292 204 bng 8 250 50 0 empty empty empty 17 7 0 10 -203904 -1
-1;
#X obj 417 204 bng 8 250 50 0 empty empty empty 17 7 0 10 -203904 -1
-1;
#X obj 355 204 bng 8 250 50 0 empty empty empty 17 7 0 10 -203904 -1
-1;
#X obj 511 212 t b;
#X obj 541 212 t b;
#X obj 571 212 t b;
#X msg 511 229 -1;
#X msg 541 229 0;
#X msg 571 229 1;
#X obj 511 246 s \$0-mix_in;
#X obj 292 251 bng 8 250 50 0 empty empty empty 17 7 0 10 -232576 -1
-1;
#X obj 417 251 bng 8 250 50 0 empty empty empty 17 7 0 10 -232576 -1
-1;
#X obj 355 251 bng 8 250 50 0 empty empty empty 17 7 0 10 -232576 -1
-1;
#X obj 511 270 t b;
#X obj 541 270 t b;
#X obj 571 270 t b;
#X msg 511 287 -1;
#X msg 541 287 0;
#X msg 571 287 1;
#X obj 511 304 s \$0-pan_in;
#X obj 249 237 vsl 20 55 0 1 0 0 \$0-vol \$0-vol_in empty 0 -9 0 10
-4160 -262144 -1 5400 1;
#X obj 289 273 cnv 15 142 21 empty empty empty 20 12 0 14 -191407 -66577
0;
#X obj 337 276 hradio 15 1 0 3 \$0-pvu_sel \$0-pvu_sel_in empty 0 -8
0 10 -262144 -1 -1 0;
#X obj 292 276 tgl 15 0 \$0-pvu \$0-pvu_in empty 17 7 0 10 -262144
-1 -1 1 1;
#X text 310 274 pvu;
#X text 385 274 out/A/B;
#X obj 248 173 vsl 10 50 0 1 0 0 \$0-ganho_a \$0-ganho_a_in empty 0
-9 0 10 -16662 -262144 -1 2450 1;
#X obj 261 173 vsl 10 50 0 1 0 0 \$0-ganho_b \$0-ganho_b_in empty 0
-9 0 10 -16662 -262144 -1 2450 1;
#X obj 275 195 bng 8 250 50 0 empty empty empty 17 7 0 10 -16662 -262144
-1;
#X obj 619 203 t b;
#X obj 619 237 s \$0-ganho_a_in;
#X obj 619 257 s \$0-ganho_b_in;
#X text 238 165 2;
#X text 238 189 1;
#X text 238 214 0;
#X msg 619 220 0.5;
#X obj 126 302 cnv 2 10 2 empty empty empty 20 12 0 14 -128992 -66577
0;
#X obj 444 302 cnv 2 10 2 empty empty empty 20 12 0 14 -128992 -66577
0;
#X obj 126 161 cnv 2 10 2 empty empty empty 20 12 0 14 -128992 -66577
0;
#X obj 203 161 cnv 2 10 2 empty empty empty 20 12 0 14 -128992 -66577
0;
#X obj 284 161 cnv 2 10 2 empty empty empty 20 12 0 14 -128992 -66577
0;
#X obj 365 161 cnv 2 10 2 empty empty empty 20 12 0 14 -128992 -66577
0;
#X obj 444 161 cnv 2 10 2 empty empty empty 20 12 0 14 -262144 -66577
0;
#N canvas 472 234 393 158 LEIA-ME 0;
#X text 29 106 - licença GPLv3 - http://www.gnu.org/copyleft/gpl.txt
;
#X text 29 26 -- org_abs 0.2 - abstrações orgânicas - 2014;
#X text 29 56 - conjunto de abstrações para controle de áudio e vídeo
\, desenvolvido por brunorohde (brunorohde.wordpress.com / brunorohde@gmail.com)
;
#X restore 658 17 pd LEIA-ME;
#X obj 327 452 *~;
#X obj 327 474 *~;
#X connect 0 0 28 0;
#X connect 1 0 28 1;
#X connect 2 0 29 0;
#X connect 3 0 29 1;
#X connect 6 0 8 0;
#X connect 6 1 8 1;
#X connect 7 0 6 4;
#X connect 8 0 16 0;
#X connect 8 1 17 0;
#X connect 11 0 12 0;
#X connect 13 0 15 0;
#X connect 14 0 87 0;
#X connect 14 0 87 1;
#X connect 15 0 14 0;
#X connect 16 0 4 0;
#X connect 16 0 22 0;
#X connect 17 0 5 0;
#X connect 17 0 23 0;
#X connect 24 0 6 0;
#X connect 25 0 6 1;
#X connect 26 0 6 2;
#X connect 27 0 6 3;
#X connect 28 0 18 0;
#X connect 28 1 19 0;
#X connect 29 0 20 0;
#X connect 29 1 21 0;
#X connect 43 0 46 0;
#X connect 44 0 48 0;
#X connect 45 0 47 0;
#X connect 46 0 49 0;
#X connect 47 0 50 0;
#X connect 48 0 51 0;
#X connect 49 0 52 0;
#X connect 50 0 52 0;
#X connect 51 0 52 0;
#X connect 53 0 56 0;
#X connect 54 0 58 0;
#X connect 55 0 57 0;
#X connect 56 0 59 0;
#X connect 57 0 60 0;
#X connect 58 0 61 0;
#X connect 59 0 62 0;
#X connect 60 0 62 0;
#X connect 61 0 62 0;
#X connect 71 0 72 0;
#X connect 72 0 78 0;
#X connect 78 0 73 0;
#X connect 78 0 74 0;
#X connect 87 0 88 0;
#X connect 87 0 88 1;
#X connect 88 0 17 1;
#X connect 88 0 16 1;
#X coords 0 -1 1 1 330 145 2 125 160;
