#N canvas 177 479 288 177 10;
#N canvas 419 302 705 349 salva 0;
#X obj 39 21 r \$0-save;
#X obj 166 65 t b b;
#X obj 180 319 textfile;
#X msg 285 302 clear;
#X obj 39 48 t b b b;
#X obj 39 174 savepanel;
#X obj 39 200 makefilename %s.txt;
#X obj 166 118 s \$1-organic_video_mod_flush;
#X obj 229 92 s \$1-organic_audio_mod_flush;
#X obj 180 174 r \$1-organic_audio_mod;
#X obj 328 174 r \$1-organic_video_mod;
#X obj 52 225 s \$0-nomein;
#X obj 166 92 del 100;
#X msg 39 278 write \$1;
#X obj 180 200 list prepend audio;
#X obj 328 200 list prepend video;
#X msg 180 228 add \$1 \$2 \$3 \$4 \$5 \$6 \$7 \$8 \$9 \$10 \$11 \$12
;
#X msg 328 254 add \$1 \$2 \$3 \$4 \$5 \$6 \$7 \$8 \$9 \$10 \$11 \$12
\$13 \$14 \$15 \$16 \$17 \$18 \$19 \$20 \$21 \$22 \$23 \$24 \$25;
#X connect 0 0 4 0;
#X connect 1 0 12 0;
#X connect 1 1 8 0;
#X connect 3 0 2 0;
#X connect 4 0 5 0;
#X connect 4 1 1 0;
#X connect 4 2 3 0;
#X connect 5 0 6 0;
#X connect 6 0 13 0;
#X connect 6 0 11 0;
#X connect 9 0 14 0;
#X connect 10 0 15 0;
#X connect 12 0 7 0;
#X connect 13 0 2 0;
#X connect 14 0 16 0;
#X connect 15 0 17 0;
#X connect 16 0 2 0;
#X connect 17 0 2 0;
#X restore 184 123 pd salva;
#N canvas 108 350 391 377 abre 0;
#X obj 43 21 r \$0-open;
#X obj 95 116 s \$0-nomein;
#X obj 43 242 textfile;
#X msg 113 202 rewind;
#X msg 43 169 1;
#X msg 73 169 0;
#X obj 43 284 route audio video;
#X msg 229 202 clear;
#X obj 43 49 t b b;
#X obj 43 132 t b b;
#X obj 43 202 metro 1;
#X obj 43 320 s \$1-organic_audio_mod_in;
#X obj 203 320 s \$1-organic_video_mod_in;
#X obj 43 76 openpanel;
#X obj 43 99 t b s s;
#X msg 165 202 read \$1;
#X obj 132 21 r \$0-caminho;
#X obj 132 43 symbol;
#X connect 0 0 8 0;
#X connect 2 0 6 0;
#X connect 2 1 5 0;
#X connect 3 0 2 0;
#X connect 4 0 10 0;
#X connect 5 0 10 0;
#X connect 6 0 11 0;
#X connect 6 1 12 0;
#X connect 7 0 2 0;
#X connect 8 0 13 0;
#X connect 8 1 7 0;
#X connect 9 0 4 0;
#X connect 9 1 3 0;
#X connect 10 0 2 0;
#X connect 13 0 14 0;
#X connect 14 0 9 0;
#X connect 14 1 15 0;
#X connect 14 2 1 0;
#X connect 15 0 2 0;
#X connect 16 0 17 0;
#X connect 17 0 14 0;
#X restore 184 101 pd abre;
#N canvas 501 225 151 108 init 0;
#X obj 38 65 s \$0-nomein;
#X obj 38 20 loadbang;
#X msg 38 42 symbol vazio;
#X connect 1 0 2 0;
#X connect 2 0 0 0;
#X restore 184 79 pd init;
#X obj 50 50 cnv 15 100 90 empty empty PRESET_MOD 20 12 0 10 -128992
-262144 0;
#X obj 57 95 bng 15 250 50 0 \$0-save \$0-savein empty 17 7 0 10 -258113
-1 -1;
#X obj 57 75 bng 15 250 50 0 \$0-open \$0-openin empty 17 7 0 10 -4160
-1 -1;
#X text 78 74 abre;
#X text 78 93 salva;
#X symbolatom 57 117 14 0 0 0 - #0-nomein #0-nome, f 14;
#N canvas 472 234 393 158 LEIA-ME 0;
#X text 29 106 - licença GPLv3 - http://www.gnu.org/copyleft/gpl.txt
;
#X text 29 26 -- org_abs 0.2 - abstrações orgânicas - 2014;
#X text 29 56 - conjunto de abstrações para controle de áudio e vídeo
\, desenvolvido por brunorohde (brunorohde.wordpress.com / brunorohde@gmail.com)
;
#X restore 184 46 pd LEIA-ME;
#X obj 50 6 inlet caminho;
#X obj 50 25 s \$0-caminho;
#X obj 51 51 cnv 2 10 2 empty empty empty 20 12 0 14 -262144 -66577
0;
#X connect 10 0 11 0;
#X coords 0 -1 1 1 100 90 2 50 50;
