#N canvas 253 123 360 164 10;
#X declare -path abs;
#X obj 57 76 bng 15 250 50 0 \$0-save \$0-savein empty 17 7 0 10 -258113
-1 -1;
#X obj 57 56 bng 15 250 50 0 \$0-open \$0-openin empty 17 7 0 10 -4160
-1 -1;
#X text 78 55 abre;
#X text 78 74 salva;
#N canvas 0 22 458 389 salva 0;
#X obj 39 21 r \$0-save;
#X obj 58 84 t b b;
#X obj 180 204 r organic_audio_mod;
#X obj 318 204 r organic_video_mod;
#X obj 180 230 prepend audio;
#X obj 58 137 s organic_video_mod_flush;
#X obj 85 160 s organic_audio_mod_flush;
#X obj 318 230 prepend video;
#X obj 180 349 textfile;
#X msg 285 308 clear;
#X obj 39 48 t b b b;
#X msg 180 308 add \$1;
#X obj 39 204 savepanel;
#X msg 39 308 write \$1 cr;
#X obj 39 230 makefilename %s.txt;
#X obj 58 111 del 1000;
#X text 294 27 libs: zexy \, pddp;
#X obj 53 259 s \$0-nomein;
#X obj 180 258 list2symbol =;
#X obj 318 258 list2symbol =;
#X connect 0 0 10 0;
#X connect 1 0 15 0;
#X connect 1 1 6 0;
#X connect 2 0 4 0;
#X connect 3 0 7 0;
#X connect 4 0 18 0;
#X connect 7 0 19 0;
#X connect 9 0 8 0;
#X connect 10 0 12 0;
#X connect 10 1 1 0;
#X connect 10 2 9 0;
#X connect 11 0 8 0;
#X connect 12 0 14 0;
#X connect 13 0 8 0;
#X connect 14 0 13 0;
#X connect 14 0 17 0;
#X connect 15 0 5 0;
#X connect 18 0 11 0;
#X connect 19 0 11 0;
#X restore 184 93 pd salva;
#X symbolatom 57 96 14 0 0 0 - #0-nomein #0-nome;
#N canvas 0 22 382 441 abre 0;
#X obj 43 37 r \$0-open;
#X obj 225 106 s \$0-nomein;
#N canvas 611 136 490 381 openfilename 0;
#X obj 72 88 bng 15 250 50 0 empty empty empty 17 7 0 10 -262144 -1
-1;
#X obj 72 145 symbol2list /;
#X obj 72 120 openpanel;
#X obj 72 240 packel;
#X obj 105 196 length;
#X floatatom 105 219 5 0 0 0 - - -;
#X obj 72 173 t l l;
#X obj 302 280 outlet;
#X obj 72 28 inlet;
#X obj 72 280 outlet;
#X text 69 303 Dá caminho inteiro do arquivo;
#X text 300 303 Dá nome do arquivo;
#X msg -2 -4;
#X msg 458 -4;
#X msg -2 356;
#X msg 458 356;
#X obj 254 28 inlet;
#X obj 72 54 route bang;
#X text 372 -1 lib: zexy;
#X connect 0 0 2 0;
#X connect 1 0 6 0;
#X connect 2 0 1 0;
#X connect 2 0 9 0;
#X connect 3 0 7 0;
#X connect 4 0 5 0;
#X connect 5 0 3 1;
#X connect 6 0 3 0;
#X connect 6 1 4 0;
#X connect 8 0 17 0;
#X connect 16 0 2 0;
#X connect 17 0 0 0;
#X connect 17 1 2 0;
#X restore 138 82 pd openfilename;
#X obj 43 232 textfile;
#X msg 165 192 read \$1 cr;
#X msg 113 192 rewind;
#X msg 43 159 1;
#X msg 73 159 0;
#X obj 43 285 symbol2list =;
#X obj 43 380 s organic_audio_mod_in;
#X obj 203 380 s organic_video_mod_in;
#X obj 43 344 route audio video;
#X obj 43 258 symbol;
#X msg 249 192 clear;
#X obj 43 313 list trim;
#X obj 43 65 t b b;
#X obj 138 105 t b a;
#X obj 43 122 t b b;
#X obj 43 192 metro 1;
#X connect 0 0 15 0;
#X connect 2 0 16 0;
#X connect 2 1 1 0;
#X connect 3 0 12 0;
#X connect 3 1 7 0;
#X connect 4 0 3 0;
#X connect 5 0 3 0;
#X connect 6 0 18 0;
#X connect 7 0 18 0;
#X connect 8 0 14 0;
#X connect 11 0 9 0;
#X connect 11 1 10 0;
#X connect 12 0 8 0;
#X connect 13 0 3 0;
#X connect 14 0 11 0;
#X connect 15 0 2 0;
#X connect 15 1 13 0;
#X connect 16 0 17 0;
#X connect 16 1 4 0;
#X connect 17 0 6 0;
#X connect 17 1 5 0;
#X connect 18 0 3 0;
#X restore 184 71 pd abre;
#N canvas 472 234 416 201 LEIA-ME 0;
#X text 35 36 -- organic_abs 0.1 - abstrações orgânicas - 2012;
#X text 35 136 - licença GPLv3 - http://www.gnu.org/copyleft/gpl.txt
;
#X text 35 66 - conjunto de abstrações para controle de áudio e vídeo
\, desenvolvido por brunorohde (brunorohde.wordpress.com / brunorohde@gmail.com)
\, membro do Grupo de Pesquisa Poéticas Tecnológicas - IHAC/UFBA;
#X restore 184 26 pd LEIA-ME;
#N canvas 144 136 230 151 init 0;
#X obj 50 32 init symbol vazio;
#X obj 50 55 s \$0-nomein;
#X obj 50 96 declare -path abs;
#X connect 0 0 1 0;
#X restore 267 26 pd init;
#X coords 0 -1 1 1 100 70 2 50 50;
