#N canvas 132 280 962 384 10;
#X declare -path abs;
#N canvas 696 65 486 738 variaveis 0;
#X msg 29 23 \$0-lb - loadbang;
#X msg 29 53 \$0-resol - resolu칞칚o em msec para grava칞칚o no array
;
#X msg 29 113 \$0-index - index no array \, para grava칞칚o e reprodu칞칚o
;
#X msg 29 283 \$0-modo - canal pra controle do modo (grava/reproduz)
;
#X msg 29 133 \$0-chaveindex - liga/desliga mecanismo do index;
#X msg 29 233 \$0-chaverec - habilita/desabilita grava칞칚o;
#X msg 29 253 \$0-chaveplay - habilita/desabilita reprodu칞칚o;
#X msg 29 153 \$0-indexreset - zera index;
#X msg 29 343 \$0-rec - inicia grava칞칚o;
#X msg 29 363 \$0-play - inicia reprodu칞칚o;
#X msg 29 383 \$0-stop - para grava칞칚o/reprodu칞칚o;
#X msg 29 403 \$0-reset - zera index;
#X msg 29 443 \$0-up - grava칞칚o/reprodu칞칚o crescente;
#X msg 29 463 \$0-down - grava칞칚o/reprodu칞칚o decrescente;
#X msg 29 183 \$0-tamanho - tamanho da grava칞칚o em unidades do array
;
#X msg 29 313 \$0-canalnav - canal de controle de navega칞칚o no index
;
#X msg 29 423 \$0-navega - navega no index;
#X msg 29 483 \$0-inc - avan칞a 1 no index;
#X msg 29 503 \$0-dec - recua 1 no index;
#X msg 29 203 \$0-tamanhomsec - tamanho da grava칞칚o em msec;
#X msg 29 83 \$0-flushbang - bang pro n칰mero do inlet entrar no array
;
#X msg 29 593 \$0-habilita1 - habilita/desabilita leitura do par칙metro
1;
#X msg 29 613 \$0-habilita2 - habilita/desabilita leitura do par칙metro
2;
#X msg 29 633 \$0-habilita1 - habilita/desabilita leitura do par칙metro
3;
#X msg 29 523 \$0-save - salva conte칰do dos arrays em arquivo de texto
;
#X msg 29 543 \$0-open - carrega conte칰do dos arrays salvo em arquivo
;
#X msg 29 563 \$0-caminho - caminho para arquivo de texto - carrega
direto;
#X msg 29 653 \$0-modo1 - modo de grava칞칚o par칙metro 1;
#X msg 29 673 \$0-modo2 - modo de grava칞칚o par칙metro 2;
#X msg 29 693 \$0-modo3 - modo de grava칞칚o par칙metro 3;
#X restore 856 173 pd variaveis;
#N canvas 165 215 1124 495 index 0;
#X obj 117 268 bng 15 50 10 0 empty empty empty 17 7 0 10 -262144 -1
-1;
#X obj 117 72 tgl 15 0 empty empty empty 17 7 0 10 -262144 -1 -1 0
1;
#X obj 117 155 metro 50;
#X obj 117 313 counter;
#X obj 146 292 bng 15 250 50 0 empty empty empty 17 7 0 10 -262144
-1 -1;
#X floatatom 117 337 5 0 0 0 - - -;
#X obj 162 112 r \$0-resol;
#X floatatom 162 134 5 0 0 0 - - -;
#X text 200 133 resolu칞칚o em msec pra grava칞칚o;
#X text 167 291 reset contador;
#X text 156 338 index no array de grava칞칚o;
#X obj 117 363 t f f;
#X obj 217 380 t f;
#X text 248 389 depois passa o index;
#X text 248 375 primeiro deixa passar pro resize \,;
#X obj 117 443 s \$0-index;
#X obj 117 43 r \$0-chaveindex;
#X text 481 18 MECANISMO DO INDEX DOS ARRAYS;
#X obj 146 268 r \$0-indexreset;
#X text 567 151 bloqueia index negativo;
#X obj 525 127 r \$0-index;
#X obj 525 149 sel 0;
#X obj 525 191 s \$0-stop;
#X obj 525 170 t b b;
#X obj 588 191 s \$0-up;
#X text 567 166 para e muda sentido pra up no 0;
#X obj 832 99 r \$0-index;
#X obj 832 192 maior;
#X floatatom 840 216 10 0 0 0 - - -;
#X text 906 216 tamanho da grava칞칚o em unidades;
#X obj 832 240 s \$0-tamanho;
#X obj 551 305 r \$0-tamanho;
#X obj 524 241 r \$0-index;
#X obj 551 370 s \$0-stop;
#X text 567 327 para leitura quando chega no tamanho;
#X obj 524 328 moses;
#X obj 551 349 t b;
#X obj 524 283 spigot;
#X obj 557 263 r \$0-chaveplay;
#X obj 832 163 spigot;
#X obj 865 121 r \$0-chaverec;
#X obj 832 285 r \$0-tamanho;
#X obj 832 329 *;
#X obj 847 307 r \$0-resol;
#X floatatom 840 353 10 0 0 0 - - -;
#X text 906 353 tamanho em msec;
#X obj 865 142 t f b;
#X obj 832 375 s \$0-tamanhomsec;
#X obj 18 296 r \$0-canalnav;
#X obj 217 443 s \$0-resize;
#X obj 117 181 t b b;
#X obj 144 231 s \$0-flushbang;
#X obj 177 181 r \$0-chaverec;
#X obj 144 206 spigot;
#X text 138 71 aciona avan칞o autom치tico no index do array;
#X connect 0 0 3 0;
#X connect 1 0 2 0;
#X connect 2 0 50 0;
#X connect 3 0 5 0;
#X connect 4 0 3 3;
#X connect 5 0 11 0;
#X connect 6 0 7 0;
#X connect 7 0 2 1;
#X connect 11 0 15 0;
#X connect 11 1 12 0;
#X connect 12 0 49 0;
#X connect 16 0 1 0;
#X connect 18 0 4 0;
#X connect 20 0 21 0;
#X connect 21 0 23 0;
#X connect 23 0 22 0;
#X connect 23 1 24 0;
#X connect 26 0 39 0;
#X connect 27 0 28 0;
#X connect 27 0 30 0;
#X connect 31 0 35 1;
#X connect 32 0 37 0;
#X connect 35 1 36 0;
#X connect 36 0 33 0;
#X connect 37 0 35 0;
#X connect 38 0 37 1;
#X connect 39 0 27 0;
#X connect 40 0 46 0;
#X connect 41 0 42 0;
#X connect 42 0 47 0;
#X connect 42 0 44 0;
#X connect 43 0 42 1;
#X connect 46 0 39 1;
#X connect 46 1 27 1;
#X connect 48 0 3 0;
#X connect 50 0 0 0;
#X connect 50 1 53 0;
#X connect 52 0 53 1;
#X connect 53 0 51 0;
#X restore 880 230 pd index;
#X obj 38 49 bng 15 250 50 0 empty empty empty 17 7 0 10 -258113 -1
-1;
#X obj 162 21 r \$0-rec;
#X obj 217 21 r \$0-stop;
#X obj 278 21 r \$0-reset;
#X obj 345 21 r \$0-play;
#X obj 834 21 inlet controles;
#N canvas 87 450 1089 200 roteia_controles 0;
#X obj -58 50 s \$0-rec;
#X obj -3 50 s \$0-stop;
#X obj 58 50 s \$0-reset;
#X obj 125 50 s \$0-play;
#X obj 299 -42 inlet;
#X obj 186 50 s \$0-navega;
#X obj 259 50 s \$0-up;
#X obj 308 50 s \$0-down;
#X obj 369 50 s \$0-inc;
#X obj 424 50 s \$0-dec;
#X obj 479 50 s \$0-resol;
#X obj 546 50 s \$0-habilita1;
#X obj 636 50 s \$0-habilita2;
#X obj 726 50 s \$0-habilita3;
#X obj 816 50 s \$0-save;
#X obj 876 50 s \$0-open;
#X obj 936 50 s \$0-caminho;
#X obj 390 88 s \$0-modo1;
#X obj 460 88 s \$0-modo2;
#X obj 530 88 s \$0-modo3;
#X obj 299 -13 route rec stop reset play navega up down inc dec resol
habilita1 habilita2 habilita3 salva abre caminho modo1 modo2 modo3
;
#X connect 4 0 20 0;
#X connect 20 0 0 0;
#X connect 20 1 1 0;
#X connect 20 2 2 0;
#X connect 20 3 3 0;
#X connect 20 4 5 0;
#X connect 20 5 6 0;
#X connect 20 6 7 0;
#X connect 20 7 8 0;
#X connect 20 8 9 0;
#X connect 20 9 10 0;
#X connect 20 10 11 0;
#X connect 20 11 12 0;
#X connect 20 12 13 0;
#X connect 20 13 14 0;
#X connect 20 14 15 0;
#X connect 20 15 16 0;
#X connect 20 16 17 0;
#X connect 20 17 18 0;
#X connect 20 18 19 0;
#X restore 834 47 pd roteia_controles;
#N canvas 133 323 183 168 rec 0;
#X obj 50 -30 t b b;
#X msg 50 -5 1;
#X msg 80 -5 0;
#X obj 80 17 s \$0-modo;
#X obj 50 38 s \$0-chaveindex;
#X obj 50 -58 inlet;
#X connect 0 0 1 0;
#X connect 0 1 2 0;
#X connect 1 0 4 0;
#X connect 2 0 3 0;
#X connect 5 0 0 0;
#X restore 162 71 pd rec;
#N canvas 133 323 183 168 stop 0;
#X obj 50 -58 inlet;
#X obj 50 37 s \$0-chaveindex;
#X msg 50 -6 0;
#X connect 0 0 2 0;
#X connect 2 0 1 0;
#X restore 205 71 pd stop;
#N canvas 133 323 183 168 reset 0;
#X obj 50 -58 inlet;
#X obj 50 48 s \$0-indexreset;
#X obj 89 5 s \$0-stop;
#X obj 50 -20 t b b b;
#X obj 59 27 s \$0-modo;
#X msg 59 5 1;
#X connect 0 0 3 0;
#X connect 3 0 1 0;
#X connect 3 1 5 0;
#X connect 3 2 2 0;
#X connect 5 0 4 0;
#X restore 254 71 pd reset;
#N canvas 133 323 183 168 play 0;
#X obj 50 -58 inlet;
#X obj 50 -17 t b b;
#X msg 50 8 1;
#X obj 80 30 s \$0-modo;
#X obj 50 51 s \$0-chaveindex;
#X msg 80 8 1;
#X connect 0 0 1 0;
#X connect 1 0 2 0;
#X connect 1 1 5 0;
#X connect 2 0 4 0;
#X connect 5 0 3 0;
#X restore 309 71 pd play;
#X obj 61 49 bng 15 250 50 0 empty empty empty 17 7 0 10 -4160 -1 -1
;
#X obj 84 49 bng 15 250 50 0 empty empty empty 17 7 0 10 -257985 -1
-1;
#X obj 107 49 bng 15 250 50 0 empty empty empty 17 7 0 10 -4034 -1
-1;
#N canvas 0 22 308 202 modo 0;
#X msg 38 -11 1;
#X msg 68 -11 0;
#X msg 125 -11 1;
#X msg 155 -11 0;
#X obj 38 -59 sel 0 1;
#X obj 38 -35 t b b;
#X obj 78 -35 t b b;
#X obj 38 -93 r \$0-modo;
#X obj 38 14 s \$0-chaverec;
#X obj 125 14 s \$0-chaveplay;
#X text 36 34 alterna entre grava칞칚o e reprodu칞칚o;
#X connect 0 0 8 0;
#X connect 1 0 8 0;
#X connect 2 0 9 0;
#X connect 3 0 9 0;
#X connect 4 0 5 0;
#X connect 4 1 6 0;
#X connect 5 0 0 0;
#X connect 5 1 3 0;
#X connect 6 0 2 0;
#X connect 6 1 1 0;
#X connect 7 0 4 0;
#X restore 886 202 pd modo;
#X obj 25 137 cnv 15 340 140 empty empty empty 20 12 0 14 -261682 -66577
0;
#X msg 155 194 up;
#X msg 184 194 down;
#X msg 34 194 inc;
#X msg 64 194 dec;
#X msg 286 223 jam \$1;
#X obj 34 223 t a;
#X obj 155 223 t a;
#X obj 155 145 r \$0-up;
#X obj 205 145 r \$0-down;
#X obj 286 145 r \$0-navega;
#X obj 155 253 s \$0-canalnav;
#X floatatom 286 194 5 0 0 0 - - -;
#X obj 286 164 moses 0;
#X obj 34 145 r \$0-inc;
#X obj 90 145 r \$0-dec;
#X text 25 119 NAVEGA칂츾O;
#N canvas 0 22 312 233 reproduz_param1 0;
#X obj 105 180 outlet;
#X obj 105 128 tabread \$0-param1;
#X obj 105 20 r \$0-index;
#X obj 105 96 spigot;
#X obj 138 72 r \$0-chaveplay;
#X connect 1 0 0 0;
#X connect 2 0 3 0;
#X connect 3 0 1 0;
#X connect 4 0 3 1;
#X restore 415 257 pd reproduz_param1;
#X obj 415 364 outlet param1;
#N canvas 128 170 403 320 grava_param1 0;
#N canvas 0 22 335 309 resize_array 0;
#X msg 48 208 resize \$1;
#X obj 48 156 t f;
#X text 112 160 aumenta o tamanho do array;
#X obj 48 120 spigot;
#X obj 81 99 tgl 15 0 empty empty empty 17 7 0 10 -262144 -1 -1 0 1
;
#X text 103 98 liga s칩 quando estiver gravando;
#X obj 81 75 r \$0-chaverec;
#X obj 48 182 + 1;
#X text 112 173 de acordo com o index +1;
#X obj 48 31 r \$0-resize;
#X obj 48 249 outlet;
#X connect 0 0 10 0;
#X connect 1 0 7 0;
#X connect 3 0 1 0;
#X connect 4 0 3 1;
#X connect 6 0 4 0;
#X connect 7 0 0 0;
#X connect 9 0 3 0;
#X restore 271 270 pd resize_array;
#X obj 38 297 tabwrite \$0-param1;
#X obj 293 180 table \$0-param1;
#X obj 60 4 inlet;
#X obj 38 270 spigot;
#X obj 71 245 r \$0-chaverec;
#X obj 271 297 s \$0-param1;
#X obj 143 270 r \$0-index;
#X text 222 180 ABRE ARRAY;
#X obj 72 152 r \$0-flushbang;
#X obj 72 179 f 0;
#X obj 38 216 switch 2;
#X obj 60 64 t f f;
#X msg 193 110 1;
#X msg 223 110 2;
#X obj 193 64 hradio 15 1 0 2 empty empty empty 0 -8 0 10 -262144 -1
-1 0;
#X obj 193 85 select 0;
#X obj 38 127 t f;
#X text 234 63 modo de grava칞칚o;
#N canvas 236 158 571 154 nota 0;
#X msg 3 3;
#X msg 543 3;
#X msg 3 133;
#X msg 543 133;
#X text 18 87 1 - amostragem na resolu칞칚o (estabiliza grava칞칚o)
;
#X text 18 67 0 - amostragem cont칤nua do inlet (grava zeros);
#X text 298 67 - ideal pra bangs \, eventos pontuais;
#X text 317 87 - ideal pra sliders \, fluxos cont칤nuos;
#X text 18 37 Importante: existem 2 modos de grava칞칚o no array (0
e 1);
#X restore 275 29 pd nota importante;
#X obj 193 4 inlet;
#X obj 17 102 init 1;
#X connect 0 0 6 0;
#X connect 3 0 12 0;
#X connect 4 0 1 0;
#X connect 5 0 4 1;
#X connect 7 0 1 1;
#X connect 9 0 10 0;
#X connect 10 0 11 2;
#X connect 11 0 4 0;
#X connect 12 0 11 1;
#X connect 12 1 10 1;
#X connect 13 0 17 0;
#X connect 14 0 17 0;
#X connect 15 0 16 0;
#X connect 16 0 13 0;
#X connect 16 1 14 0;
#X connect 17 0 11 0;
#X connect 20 0 15 0;
#X connect 21 0 17 0;
#X restore 415 97 pd grava_param1;
#X obj 415 21 inlet param1;
#X obj 25 298 cnv 15 340 60 empty empty empty 20 12 0 14 -261234 -66577
0;
#X floatatom 35 334 5 0 0 0 - - -;
#X obj 134 307 r \$0-tamanho;
#X floatatom 134 334 7 0 0 0 - - -;
#X floatatom 228 334 7 0 0 0 - - -;
#X obj 228 307 r \$0-tamanhomsec;
#X text 72 334 resol;
#X text 183 333 dados;
#X text 278 333 msec;
#X text 23 281 INFO GRAVA칂츾O;
#X obj 42 88 tgl 12 0 empty empty empty 17 7 0 10 -232576 -1 -1 1 1
;
#X obj 74 88 tgl 12 0 empty empty empty 17 7 0 10 -232576 -1 -1 1 1
;
#X obj 106 88 tgl 12 0 empty empty empty 17 7 0 10 -232576 -1 -1 1
1;
#X obj 555 21 inlet param2;
#X obj 695 21 inlet param3;
#N canvas 83 22 312 233 reproduz_param2 0;
#X obj 105 180 outlet;
#X obj 105 20 r \$0-index;
#X obj 105 96 spigot;
#X obj 138 72 r \$0-chaveplay;
#X obj 105 128 tabread \$0-param2;
#X connect 1 0 2 0;
#X connect 2 0 4 0;
#X connect 3 0 2 1;
#X connect 4 0 0 0;
#X restore 555 257 pd reproduz_param2;
#N canvas 425 22 312 233 reproduz_param3 0;
#X obj 105 180 outlet;
#X obj 105 20 r \$0-index;
#X obj 105 96 spigot;
#X obj 138 72 r \$0-chaveplay;
#X obj 105 128 tabread \$0-param3;
#X connect 1 0 2 0;
#X connect 2 0 4 0;
#X connect 3 0 2 1;
#X connect 4 0 0 0;
#X restore 695 257 pd reproduz_param3;
#X obj 555 364 outlet param2;
#X obj 695 364 outlet param3;
#X obj 415 329 spigot;
#X obj 555 329 spigot;
#X obj 695 329 spigot;
#N canvas 540 310 290 199 init 0;
#X obj 23 -73 s \$0-lb;
#X obj 23 -95 loadbang;
#X obj 43 -2 s \$0-habilita1;
#X obj 33 18 s \$0-habilita2;
#X obj 23 38 s \$0-habilita3;
#X obj 159 -73 s \$0-resol;
#X obj 159 -95 init 50;
#X obj 23 -28 init 1;
#X obj 159 -40 declare -path abs;
#X connect 1 0 0 0;
#X connect 6 0 5 0;
#X connect 7 0 2 0;
#X connect 7 0 3 0;
#X connect 7 0 4 0;
#X restore 887 144 pd init;
#X obj 448 298 r \$0-habilita1;
#X obj 588 298 r \$0-habilita2;
#X obj 728 298 r \$0-habilita3;
#N canvas 0 22 635 460 save 0;
#X obj 42 137 tabdump \$0-param1;
#X obj 164 137 tabdump \$0-param2;
#X obj 286 137 tabdump \$0-param3;
#X obj 101 178 list append;
#X obj 223 195 list append;
#X obj 223 222 prepend;
#X obj 421 54 bng 15 250 50 0 empty empty empty 17 7 0 10 -262144 -1
-1;
#X obj 242 397 textfile;
#X obj 223 280 prepend add2;
#X msg 262 342 clear;
#X obj 223 308 t b a b;
#X msg 124 350 write \$1.txt cr;
#X obj 124 325 savepanel;
#X obj 402 25 inlet;
#X obj 341 205 arraysize \$0-param1;
#X obj 223 252 prepend;
#X obj 465 235 f;
#X obj 480 205 r \$0-resol;
#X obj 402 90 t b b b b b;
#X connect 0 0 3 0;
#X connect 1 0 3 1;
#X connect 2 0 4 1;
#X connect 3 0 4 0;
#X connect 4 0 5 0;
#X connect 5 0 15 0;
#X connect 6 0 18 0;
#X connect 8 0 10 0;
#X connect 9 0 7 0;
#X connect 10 0 12 0;
#X connect 10 1 7 0;
#X connect 10 2 9 0;
#X connect 11 0 7 0;
#X connect 12 0 11 0;
#X connect 13 0 18 0;
#X connect 14 0 5 1;
#X connect 15 0 8 0;
#X connect 16 0 15 1;
#X connect 17 0 16 1;
#X connect 18 0 0 0;
#X connect 18 1 1 0;
#X connect 18 2 2 0;
#X connect 18 3 14 0;
#X connect 18 4 16 0;
#X restore 563 196 pd save;
#X obj 627 188 bng 8 250 50 0 empty empty empty 17 7 0 10 -159808 -1
-1;
#N canvas 72 118 526 517 open 0;
#X obj 241 -66 inlet;
#X obj 241 90 textfile;
#X msg 277 61 rewind;
#X msg 241 61 bang;
#X msg 325 61 read \$1;
#X obj 241 2 openpanel;
#X obj 254 -26 bng 15 250 50 0 empty empty empty 17 7 0 10 -262144
-1 -1;
#X obj 241 138 list split 2;
#X obj 55 155 unpack f f;
#X obj 55 221 s \$0-resol;
#X obj 146 221 s \$0-tamanho;
#X msg 129 253 resize \$1;
#X obj 254 364 prepend 0;
#X obj 254 389 s \$0-param1;
#X obj 329 364 prepend 0;
#X obj 329 389 s \$0-param2;
#X obj 404 364 prepend 0;
#X obj 404 389 s \$0-param3;
#X obj 129 339 s \$0-param1;
#X obj 148 364 s \$0-param2;
#X obj 168 389 s \$0-param3;
#X obj 129 277 t a a a;
#X obj 254 277 list split;
#X obj 254 220 list;
#X obj 282 304 list split;
#X obj 311 220 t f f;
#X obj 241 33 t b b a;
#X obj 112 186 t b f f f;
#X obj 328 -26 r \$0-caminho;
#X obj 328 16 tosymbol;
#X connect 0 0 5 0;
#X connect 1 0 7 0;
#X connect 2 0 1 0;
#X connect 3 0 1 0;
#X connect 4 0 1 0;
#X connect 5 0 26 0;
#X connect 6 0 5 0;
#X connect 7 0 8 0;
#X connect 7 1 23 1;
#X connect 8 0 9 0;
#X connect 8 1 27 0;
#X connect 11 0 21 0;
#X connect 12 0 13 0;
#X connect 14 0 15 0;
#X connect 16 0 17 0;
#X connect 21 0 18 0;
#X connect 21 1 19 0;
#X connect 21 2 20 0;
#X connect 22 0 12 0;
#X connect 22 1 24 0;
#X connect 23 0 22 0;
#X connect 24 0 14 0;
#X connect 24 1 16 0;
#X connect 25 0 22 1;
#X connect 25 1 24 1;
#X connect 26 0 3 0;
#X connect 26 1 2 0;
#X connect 26 2 4 0;
#X connect 27 0 23 0;
#X connect 27 1 11 0;
#X connect 27 2 10 0;
#X connect 27 3 25 0;
#X connect 28 0 29 0;
#X connect 29 0 26 0;
#X restore 498 196 pd open;
#X obj 35 309 r \$0-resol;
#X obj 105 37 bng 8 250 50 0 empty empty empty 17 7 0 10 -260097 -1
-1;
#X obj 415 196 s \$0-resol;
#X floatatom 38 68 4 0 0 0 - - -;
#X obj 498 171 r \$0-open;
#X obj 563 171 r \$0-save;
#X text 23 365 ORGANICEVENT - grava/reproduz eventos e fluxos num칠ricos
;
#X obj 35 37 hradio 8 1 0 2 empty empty empty 0 -8 0 10 -262144 -1
-1 0;
#X obj 59 37 hradio 8 1 0 2 empty empty empty 0 -8 0 10 -262144 -1
-1 0;
#X obj 83 37 hradio 8 1 0 2 empty empty empty 0 -8 0 10 -262144 -1
-1 0;
#N canvas 128 170 403 320 grava_param2 0;
#N canvas 0 22 335 309 resize_array 0;
#X msg 48 208 resize \$1;
#X obj 48 156 t f;
#X text 112 160 aumenta o tamanho do array;
#X obj 48 120 spigot;
#X obj 81 99 tgl 15 0 empty empty empty 17 7 0 10 -262144 -1 -1 0 1
;
#X text 103 98 liga s칩 quando estiver gravando;
#X obj 81 75 r \$0-chaverec;
#X obj 48 182 + 1;
#X text 112 173 de acordo com o index +1;
#X obj 48 31 r \$0-resize;
#X obj 48 249 outlet;
#X connect 0 0 10 0;
#X connect 1 0 7 0;
#X connect 3 0 1 0;
#X connect 4 0 3 1;
#X connect 6 0 4 0;
#X connect 7 0 0 0;
#X connect 9 0 3 0;
#X restore 271 270 pd resize_array;
#X obj 60 4 inlet;
#X obj 38 270 spigot;
#X obj 71 245 r \$0-chaverec;
#X obj 143 270 r \$0-index;
#X text 222 180 ABRE ARRAY;
#X obj 72 152 r \$0-flushbang;
#X obj 72 179 f 0;
#X obj 38 216 switch 2;
#X obj 60 64 t f f;
#X msg 193 110 1;
#X msg 223 110 2;
#X obj 193 64 hradio 15 1 0 2 empty empty empty 0 -8 0 10 -262144 -1
-1 0;
#X obj 193 85 select 0;
#X obj 38 127 t f;
#X text 234 63 modo de grava칞칚o;
#N canvas 236 158 571 154 nota 0;
#X msg 3 3;
#X msg 543 3;
#X msg 3 133;
#X msg 543 133;
#X text 18 87 1 - amostragem na resolu칞칚o (estabiliza grava칞칚o)
;
#X text 18 67 0 - amostragem cont칤nua do inlet (grava zeros);
#X text 298 67 - ideal pra bangs \, eventos pontuais;
#X text 317 87 - ideal pra sliders \, fluxos cont칤nuos;
#X text 18 37 Importante: existem 2 modos de grava칞칚o no array (0
e 1);
#X restore 275 29 pd nota importante;
#X obj 193 4 inlet;
#X obj 17 102 init 1;
#X obj 293 180 table \$0-param2;
#X obj 271 297 s \$0-param2;
#X obj 38 297 tabwrite \$0-param2;
#X connect 0 0 20 0;
#X connect 1 0 9 0;
#X connect 2 0 21 0;
#X connect 3 0 2 1;
#X connect 4 0 21 1;
#X connect 6 0 7 0;
#X connect 7 0 8 2;
#X connect 8 0 2 0;
#X connect 9 0 8 1;
#X connect 9 1 7 1;
#X connect 10 0 14 0;
#X connect 11 0 14 0;
#X connect 12 0 13 0;
#X connect 13 0 10 0;
#X connect 13 1 11 0;
#X connect 14 0 8 0;
#X connect 17 0 12 0;
#X connect 18 0 14 0;
#X restore 555 97 pd grava_param2;
#N canvas 128 170 403 320 grava_param3 0;
#N canvas 0 22 335 309 resize_array 0;
#X msg 48 208 resize \$1;
#X obj 48 156 t f;
#X text 112 160 aumenta o tamanho do array;
#X obj 48 120 spigot;
#X obj 81 99 tgl 15 0 empty empty empty 17 7 0 10 -262144 -1 -1 0 1
;
#X text 103 98 liga s칩 quando estiver gravando;
#X obj 81 75 r \$0-chaverec;
#X obj 48 182 + 1;
#X text 112 173 de acordo com o index +1;
#X obj 48 31 r \$0-resize;
#X obj 48 249 outlet;
#X connect 0 0 10 0;
#X connect 1 0 7 0;
#X connect 3 0 1 0;
#X connect 4 0 3 1;
#X connect 6 0 4 0;
#X connect 7 0 0 0;
#X connect 9 0 3 0;
#X restore 271 270 pd resize_array;
#X obj 60 4 inlet;
#X obj 38 270 spigot;
#X obj 71 245 r \$0-chaverec;
#X obj 143 270 r \$0-index;
#X text 222 180 ABRE ARRAY;
#X obj 72 152 r \$0-flushbang;
#X obj 72 179 f 0;
#X obj 38 216 switch 2;
#X obj 60 64 t f f;
#X msg 193 110 1;
#X msg 223 110 2;
#X obj 193 64 hradio 15 1 0 2 empty empty empty 0 -8 0 10 -262144 -1
-1 0;
#X obj 193 85 select 0;
#X obj 38 127 t f;
#X text 234 63 modo de grava칞칚o;
#N canvas 236 158 571 154 nota 0;
#X msg 3 3;
#X msg 543 3;
#X msg 3 133;
#X msg 543 133;
#X text 18 87 1 - amostragem na resolu칞칚o (estabiliza grava칞칚o)
;
#X text 18 67 0 - amostragem cont칤nua do inlet (grava zeros);
#X text 298 67 - ideal pra bangs \, eventos pontuais;
#X text 317 87 - ideal pra sliders \, fluxos cont칤nuos;
#X text 18 37 Importante: existem 2 modos de grava칞칚o no array (0
e 1);
#X restore 275 29 pd nota importante;
#X obj 193 4 inlet;
#X obj 17 102 init 1;
#X obj 293 180 table \$0-param3;
#X obj 38 297 tabwrite \$0-param3;
#X obj 271 297 s \$0-param3;
#X connect 0 0 21 0;
#X connect 1 0 9 0;
#X connect 2 0 20 0;
#X connect 3 0 2 1;
#X connect 4 0 20 1;
#X connect 6 0 7 0;
#X connect 7 0 8 2;
#X connect 8 0 2 0;
#X connect 9 0 8 1;
#X connect 9 1 7 1;
#X connect 10 0 14 0;
#X connect 11 0 14 0;
#X connect 12 0 13 0;
#X connect 13 0 10 0;
#X connect 13 1 11 0;
#X connect 14 0 8 0;
#X connect 17 0 12 0;
#X connect 18 0 14 0;
#X restore 695 97 pd grava_param3;
#X obj 415 152 r \$0-resol;
#X obj 415 171 prepend set;
#X obj 162 44 r \$0-modo1;
#X obj 229 44 r \$0-modo2;
#X obj 296 45 r \$0-modo3;
#X floatatom 78 68 7 0 0 0 - - -;
#X obj 162 92 r \$0-tamanhomsec;
#N canvas 285 270 260 123 veja_controles 0;
#X text 25 28 modo1;
#X text 65 28 modo2;
#X text 105 28 modo3 -;
#X text 165 28 abre - salva;
#X text 50 50 rec - stop - reset - play;
#X text 41 71 resolu칞칚o - tamanho em msec;
#X restore 31 7 pd veja_controles;
#N canvas 472 234 416 201 LEIA-ME 0;
#X text 35 36 -- organic_abs 0.1 - abstra貿es org轟icas - 2012;
#X text 35 136 - licen網 GPLv3 - http://www.gnu.org/copyleft/gpl.txt
;
#X text 35 66 - conjunto de abstra貿es para controle de 竟dio e v顔eo
\, desenvolvido por brunorohde (brunorohde.wordpress.com / brunorohde@gmail.com)
\, membro do Grupo de Pesquisa Po俸icas Tecnol窕icas - IHAC/UFBA;
#X restore 869 114 pd LEIA-ME;
#X connect 2 0 9 0;
#X connect 3 0 2 0;
#X connect 4 0 13 0;
#X connect 5 0 14 0;
#X connect 6 0 15 0;
#X connect 7 0 8 0;
#X connect 13 0 10 0;
#X connect 14 0 11 0;
#X connect 15 0 12 0;
#X connect 18 0 24 0;
#X connect 19 0 24 0;
#X connect 20 0 23 0;
#X connect 21 0 23 0;
#X connect 22 0 28 0;
#X connect 23 0 28 0;
#X connect 24 0 28 0;
#X connect 25 0 18 0;
#X connect 26 0 19 0;
#X connect 27 0 30 0;
#X connect 29 0 22 0;
#X connect 30 1 29 0;
#X connect 31 0 20 0;
#X connect 32 0 21 0;
#X connect 34 0 57 0;
#X connect 37 0 36 0;
#X connect 40 0 41 0;
#X connect 43 0 42 0;
#X connect 48 0 57 1;
#X connect 49 0 58 1;
#X connect 50 0 59 1;
#X connect 51 0 77 0;
#X connect 52 0 78 0;
#X connect 53 0 58 0;
#X connect 54 0 59 0;
#X connect 57 0 35 0;
#X connect 58 0 55 0;
#X connect 59 0 56 0;
#X connect 61 0 48 0;
#X connect 62 0 49 0;
#X connect 63 0 50 0;
#X connect 65 0 64 0;
#X connect 67 0 39 0;
#X connect 68 0 66 0;
#X connect 70 0 69 0;
#X connect 71 0 68 0;
#X connect 72 0 65 0;
#X connect 74 0 36 1;
#X connect 75 0 77 1;
#X connect 76 0 78 1;
#X connect 79 0 80 0;
#X connect 80 0 70 0;
#X connect 81 0 74 0;
#X connect 82 0 75 0;
#X connect 83 0 76 0;
#X connect 85 0 84 0;
#X coords 0 -1 1 1 100 75 2 30 30;
