#N canvas 380 31 708 476 10;
#X msg 268 -9 dimen 800 600;
#X msg 67 -5 create \, 1;
#X msg 139 -5 destroy \, 0;
#X msg 268 -29 dimen 500 400;
#X obj 108 110 tgl 15 0 empty empty on/off 21 7 0 10 -204786 -1 -1
0 1;
#X obj 108 132 bng 12 250 50 0 empty empty 500/400 17 7 0 10 -203904
-1 -1;
#X obj 108 147 bng 12 250 50 0 empty empty 800/600 17 7 0 10 -203904
-1 -1;
#X obj 108 162 bng 12 250 50 0 empty empty 1024/768 17 7 0 10 -203904
-1 -1;
#X obj 111 -47 select 1 0;
#X obj 220 130 tgl 15 0 empty empty cursor 21 7 0 10 -262144 -1 -1
1 1;
#X obj 220 150 tgl 15 0 empty empty borda 21 7 0 10 -262144 -1 -1 1
1;
#X msg 481 81 cursor \$1;
#X msg 481 103 border \$1;
#X msg 15 -5 reset;
#X msg 268 31 dimen 1600 1200;
#X obj 108 177 bng 12 250 50 0 empty empty 1600/1200 17 7 0 10 -203904
-1 -1;
#X obj 482 20 loadbang;
#X msg 482 43 1;
#X floatatom 220 194 5 0 0 0 x - -;
#X floatatom 266 194 5 0 0 0 y - -;
#X msg 537 252 offset \$1 \$2;
#X obj 537 231 pack f f;
#X obj 443 206 t b f;
#X obj 481 -40 gemhead;
#X obj 481 -18 world_light;
#X obj 220 110 tgl 15 0 empty empty luz 21 7 0 10 -262144 -1 -1 0 1
;
#X msg 481 125 lighting \$1;
#X msg 514 43 0;
#X msg 444 234 1440 -50;
#X obj 444 254 unpack f f;
#X obj 220 177 bng 10 250 50 0 empty empty offset 15 5 0 10 -260097
-4034 -1;
#X floatatom 108 194 7 0 0 0 - - -;
#X floatatom 158 194 7 0 0 0 - - -;
#X msg 375 31 dimen \$1 \$2;
#X obj 389 -14 t b f;
#X obj 375 9 pack 500 400;
#X obj 157 307 t b f;
#X obj 197 307 t b f;
#X obj 237 307 t b f;
#X obj 277 307 t b f;
#X obj 139 340 pack f f 4 f f f f 1 f;
#X obj 317 307 t b f;
#X obj 357 307 t b f;
#X obj 397 307 t b f;
#X obj 437 307 t b f;
#X msg 139 367 view \$1 \$2 \$3 \$4 \$5 \$6 \$7 \$8 \$9;
#X msg 548 43 4;
#X obj 108 236 cnv 15 80 38 empty empty empty 20 12 0 14 -204786 -66577
0;
#X obj 195 236 cnv 15 80 38 empty empty empty 20 12 0 14 -204800 -66577
0;
#X obj 282 236 cnv 15 80 38 empty empty empty 20 12 0 14 -203904 -66577
0;
#X floatatom 113 253 3 0 0 0 - - -;
#X floatatom 138 253 3 0 0 0 - - -;
#X floatatom 163 253 3 0 0 0 - - -;
#X floatatom 200 253 3 0 0 0 - - -;
#X floatatom 225 253 3 0 0 0 - - -;
#X floatatom 250 253 3 0 0 0 - - -;
#X floatatom 287 253 3 0 0 0 - - -;
#X floatatom 312 253 3 0 0 0 - - -;
#X floatatom 337 253 3 0 0 0 - - -;
#X text 126 235 origem;
#X text 211 235 destino;
#X text 311 235 up;
#X text 215 217 CAMERA;
#X msg 268 11 dimen 1024 768;
#X obj 139 48 gemwin 30;
#X msg 583 43 30;
#X msg 15 31 print;
#X msg 481 154 frame \$1;
#X obj 315 110 cnv 15 44 40 empty empty empty 20 12 0 14 -261234 -66577
0;
#X floatatom 321 128 5 0 0 0 - - -;
#X text 325 110 FPS;
#X obj 515 391 s \$0-corgemwin;
#X msg 515 368 color \$1 \$2 \$3;
#X obj 515 349 pack f f f;
#X obj 555 323 t b f;
#X obj 595 323 t b f;
#X obj 139 26 r \$0-corgemwin;
#X obj 500 300 r \$0-red;
#X obj 555 300 r \$0-green;
#X obj 622 300 r \$0-blue;
#X obj 318 168 hsl 40 8 0 1 0 0 \$0-red \$0-morto empty -2 -8 0 10
-258113 -1 -1 0 1;
#X obj 318 178 hsl 40 8 0 1 0 0 \$0-green \$0-morto empty -2 -8 0 10
-4034 -1 -1 0 1;
#X obj 318 188 hsl 40 8 0 1 0 0 \$0-blue \$0-morto empty -2 -8 0 10
-4160 -1 -1 0 1;
#N canvas 472 234 416 201 LEIA-ME 0;
#X text 35 36 -- organic_abs 0.1 - abstrações orgânicas - 2012;
#X text 35 136 - licença GPLv3 - http://www.gnu.org/copyleft/gpl.txt
;
#X text 35 66 - conjunto de abstrações para controle de áudio e vídeo
\, desenvolvido por brunorohde (brunorohde.wordpress.com / brunorohde@gmail.com)
\, membro do Grupo de Pesquisa Poéticas Tecnológicas - IHAC/UFBA;
#X restore 625 -32 pd LEIA-ME;
#X connect 0 0 64 0;
#X connect 1 0 64 0;
#X connect 2 0 64 0;
#X connect 3 0 64 0;
#X connect 4 0 8 0;
#X connect 5 0 3 0;
#X connect 6 0 0 0;
#X connect 7 0 63 0;
#X connect 8 0 1 0;
#X connect 8 1 2 0;
#X connect 9 0 11 0;
#X connect 10 0 12 0;
#X connect 11 0 64 0;
#X connect 12 0 64 0;
#X connect 13 0 64 0;
#X connect 14 0 64 0;
#X connect 15 0 14 0;
#X connect 16 0 17 0;
#X connect 16 0 27 0;
#X connect 16 0 46 0;
#X connect 16 0 65 0;
#X connect 17 0 9 0;
#X connect 17 0 10 0;
#X connect 18 0 21 0;
#X connect 19 0 22 0;
#X connect 20 0 64 0;
#X connect 21 0 20 0;
#X connect 22 0 21 0;
#X connect 22 1 21 1;
#X connect 23 0 24 0;
#X connect 25 0 26 0;
#X connect 26 0 64 0;
#X connect 27 0 25 0;
#X connect 28 0 29 0;
#X connect 29 0 18 0;
#X connect 29 1 19 0;
#X connect 30 0 28 0;
#X connect 31 0 35 0;
#X connect 32 0 34 0;
#X connect 33 0 64 0;
#X connect 34 0 35 0;
#X connect 34 1 35 1;
#X connect 35 0 33 0;
#X connect 36 0 40 0;
#X connect 36 1 40 1;
#X connect 37 0 40 0;
#X connect 37 1 40 2;
#X connect 38 0 40 0;
#X connect 38 1 40 3;
#X connect 39 0 40 0;
#X connect 39 1 40 4;
#X connect 40 0 45 0;
#X connect 41 0 40 0;
#X connect 41 1 40 5;
#X connect 42 0 40 0;
#X connect 42 1 40 6;
#X connect 43 0 40 0;
#X connect 43 1 40 7;
#X connect 44 0 40 0;
#X connect 44 1 40 8;
#X connect 45 0 64 0;
#X connect 50 0 40 0;
#X connect 51 0 36 0;
#X connect 52 0 37 0;
#X connect 53 0 38 0;
#X connect 54 0 39 0;
#X connect 55 0 41 0;
#X connect 56 0 42 0;
#X connect 57 0 43 0;
#X connect 58 0 44 0;
#X connect 63 0 64 0;
#X connect 65 0 69 0;
#X connect 66 0 64 0;
#X connect 67 0 64 0;
#X connect 69 0 67 0;
#X connect 72 0 71 0;
#X connect 73 0 72 0;
#X connect 74 0 73 0;
#X connect 74 1 73 1;
#X connect 75 0 73 0;
#X connect 75 1 73 2;
#X connect 76 0 64 0;
#X connect 77 0 73 0;
#X connect 78 0 74 0;
#X connect 79 0 75 0;
#X coords 0 -1 1 1 270 180 2 100 100;
