#N canvas 560 49 629 275 10;
#X declare -path abs;
#X obj 196 25 inlet caminho;
#X obj 91 25 inlet bang;
#X obj 108 138 bng 16 250 50 0 \$0-abre \$0-abrein empty 17 7 0 10
-4160 -1 -1;
#X symbolatom 132 138 14 0 0 0 - #0-nomein #0-nome;
#X obj 108 162 bng 16 250 50 0 \$0-analiza \$0-analizain empty 17 7
0 10 -4034 -1 -1;
#X obj 135 162 hsl 81 16 0 1 0 0 \$0-sensib \$0-sensibin empty -2 -8
0 10 -204786 -1 -1 4000 1;
#X obj 202 186 tgl 16 0 \$0-work \$0-workin empty 17 7 0 10 -204786
-1 -1 0 1;
#X obj 132 186 bng 16 250 50 0 \$0-salva \$0-salvain empty 17 7 0 10
-258113 -1 -1;
#X floatatom 162 186 5 0 0 0 - #0-attacksin #0-attacks;
#N canvas 218 184 412 489 carrega_arquivo 0;
#X obj 77 38 inlet bang;
#X obj 177 38 inlet caminho;
#X obj 77 351 soundfiler;
#X text 162 236 nome do arquivo;
#X obj 177 124 tosymbol;
#X obj 264 141 symbol2list /;
#X obj 264 201 packel;
#X obj 297 181 length;
#X obj 264 161 t l l;
#X obj 177 102 t a b;
#X obj 164 218 s \$0-nomein;
#X obj 204 175 f \$0;
#X obj 77 435 s \$0-samples;
#X msg 77 321 read -resize -maxsize 1.2e+07 \$1 \$2;
#X obj 204 265 makefilename %i-audio;
#X obj 77 243 t s;
#X obj 77 295 pack s s;
#X obj 96 124 r \$0-abre;
#X obj 298 57 table \$0-audio;
#N canvas 0 22 490 381 openfilename 0;
#X obj 72 88 bng 15 250 50 0 empty empty empty 17 7 0 10 -262144 -1
-1;
#X obj 72 145 symbol2list /;
#X obj 72 120 openpanel;
#X obj 72 240 packel;
#X obj 105 196 length;
#X floatatom 105 219 5 0 0 0 - - -;
#X obj 72 173 t l l;
#X obj 302 280 outlet;
#X obj 72 28 inlet;
#X obj 72 280 outlet;
#X text 69 303 Dá caminho inteiro do arquivo;
#X text 300 303 Dá nome do arquivo;
#X msg -2 -4;
#X msg 458 -4;
#X msg -2 356;
#X msg 458 356;
#X obj 254 28 inlet;
#X obj 72 54 route bang;
#X text 372 -1 lib: zexy;
#X connect 0 0 2 0;
#X connect 1 0 6 0;
#X connect 2 0 1 0;
#X connect 2 0 9 0;
#X connect 3 0 7 0;
#X connect 4 0 5 0;
#X connect 5 0 3 1;
#X connect 6 0 3 0;
#X connect 6 1 4 0;
#X connect 8 0 17 0;
#X connect 16 0 2 0;
#X connect 17 0 0 0;
#X connect 17 1 2 0;
#X restore 77 190 pd openfilename;
#X obj 77 158 t b b;
#X obj 187 421 s \$0-audio;
#X obj 77 381 t f b;
#X obj 177 59 route caminho;
#X msg 187 398 normalize 1;
#X connect 0 0 20 0;
#X connect 1 0 23 0;
#X connect 2 0 22 0;
#X connect 4 0 5 0;
#X connect 4 0 15 0;
#X connect 5 0 8 0;
#X connect 6 0 10 0;
#X connect 7 0 6 1;
#X connect 8 0 6 0;
#X connect 8 1 7 0;
#X connect 9 0 4 0;
#X connect 9 1 11 0;
#X connect 11 0 14 0;
#X connect 13 0 2 0;
#X connect 14 0 16 1;
#X connect 15 0 16 0;
#X connect 16 0 13 0;
#X connect 17 0 20 0;
#X connect 19 0 15 0;
#X connect 19 1 10 0;
#X connect 20 0 19 0;
#X connect 20 1 11 0;
#X connect 22 0 12 0;
#X connect 22 1 24 0;
#X connect 23 0 9 0;
#X connect 24 0 21 0;
#X restore 91 65 pd carrega_arquivo;
#N canvas 676 244 417 460 analise_audio 0;
#X obj 86 297 tabread4~ \$0-audio;
#X obj 86 382 bonk~;
#X obj 86 211 phasor~ 1;
#X obj 86 268 *~;
#X obj 101 245 r \$0-samples;
#X msg 137 188 0;
#X obj 86 134 pow -1;
#X msg 94 188 0;
#X obj 86 82 f;
#X obj 86 160 sig~;
#X obj 101 55 r \$0-temposec;
#X obj 86 104 t f b;
#X obj 113 405 s \$0-bonk;
#X obj 284 153 s \$0-workin;
#X obj 230 153 switch~;
#X msg 260 123 1;
#X msg 230 123 0;
#X obj 230 93 r \$0-fim;
#X obj 290 93 r \$0-analiza;
#X obj 86 31 r \$0-inicio;
#X obj 293 123 init 1;
#N canvas 775 78 333 267 configura_bonk 0;
#X obj 96 186 outlet;
#X msg 172 87 minvel 7;
#X msg 62 88 thresh 1 50;
#X msg 62 59 thresh 1 10;
#X msg 172 59 attack-frames 2;
#X msg 178 135 print;
#X msg 178 155 print 1;
#X connect 1 0 0 0;
#X connect 2 0 0 0;
#X connect 3 0 0 0;
#X connect 4 0 0 0;
#X connect 5 0 0 0;
#X connect 6 0 0 0;
#X restore 114 349 pd configura_bonk;
#X connect 0 0 1 0;
#X connect 1 1 12 0;
#X connect 2 0 3 0;
#X connect 3 0 0 0;
#X connect 4 0 3 1;
#X connect 5 0 2 1;
#X connect 6 0 9 0;
#X connect 7 0 2 0;
#X connect 8 0 11 0;
#X connect 9 0 2 0;
#X connect 10 0 8 1;
#X connect 11 0 6 0;
#X connect 11 1 5 0;
#X connect 15 0 14 0;
#X connect 15 0 13 0;
#X connect 16 0 14 0;
#X connect 16 0 13 0;
#X connect 17 0 16 0;
#X connect 18 0 15 0;
#X connect 19 0 8 0;
#X connect 20 0 14 0;
#X connect 21 0 1 0;
#X restore 382 140 pd analise_audio;
#N canvas 257 193 648 246 calculos_tempo 0;
#X obj 52 29 r \$0-samples;
#X obj 52 53 / 44100;
#X obj 52 77 s \$0-temposec;
#X obj 52 101 * 1000;
#X obj 52 125 s \$0-tempomsec;
#X obj 185 91 t b b;
#X obj 185 29 r \$0-analiza;
#X obj 212 118 s \$0-inicio;
#X obj 230 146 r \$0-tempomsec;
#X obj 185 195 s \$0-fim;
#X obj 239 91 s \$0-attacksin;
#X msg 239 70 0;
#X obj 185 53 t b b;
#X obj 185 168 del 1000;
#X obj 367 101 timer;
#X obj 367 29 r \$0-inicio;
#X obj 394 76 r \$0-fim;
#X obj 394 55 r \$0-attack;
#X obj 367 146 / 1000;
#X obj 400 125 r \$0-tempomsec;
#X obj 367 172 s \$0-tempo_normal;
#X text 364 194 tempo de cada attack normalizado entre 0 -1;
#X connect 0 0 1 0;
#X connect 1 0 2 0;
#X connect 1 0 3 0;
#X connect 3 0 4 0;
#X connect 5 0 13 0;
#X connect 5 1 7 0;
#X connect 6 0 12 0;
#X connect 8 0 13 1;
#X connect 11 0 10 0;
#X connect 12 0 5 0;
#X connect 12 1 11 0;
#X connect 13 0 9 0;
#X connect 14 0 18 0;
#X connect 15 0 14 0;
#X connect 16 0 14 1;
#X connect 17 0 14 1;
#X connect 18 0 20 0;
#X connect 19 0 18 1;
#X restore 382 114 pd calculos_tempo;
#N canvas 0 22 326 419 conta_attacks 0;
#X obj 95 167 / 100;
#X floatatom 95 192 5 0 0 0 - - -;
#X obj 95 217 moses 1;
#X obj 134 246 bng 15 250 50 0 empty empty empty 17 7 0 10 -262144
-1 -1;
#X obj 134 279 counter;
#X obj 164 117 r \$0-sensib;
#X obj 134 310 maior;
#X obj 119 332 f;
#X obj 119 357 s \$0-attacksin;
#X obj 176 310 s \$0-indice;
#X obj 62 40 r \$0-bonk;
#X obj 62 142 unpack;
#X obj 62 113 spigot;
#X obj 95 92 tgl 15 0 empty empty empty 17 7 0 10 -262144 -1 -1 0 1
;
#X obj 95 69 r \$0-work;
#X obj 52 254 s \$0-attack;
#X obj 52 234 t b;
#X obj 161 228 r \$0-inicio;
#X obj 72 310 r \$0-fim;
#N canvas 0 22 484 386 scala.linear 0;
#X text 17 16 Made by Thomas Ouellet Fredericks for the ID collective
;
#X text 19 36 tom@danslchamp.org;
#X text 248 39 21 novembre 2004;
#X obj 29 134 inlet;
#X obj 29 336 outlet;
#X text 214 121 max input;
#X text 121 120 min input;
#X text 399 120 max output;
#X text 306 119 min output;
#X obj 122 135 inlet;
#X obj 215 138 inlet;
#X obj 308 137 inlet;
#X obj 402 139 inlet;
#X obj 122 173 init.lf \$1;
#X obj 215 172 init.lf \$2;
#X obj 308 172 init.lf \$3;
#X obj 402 172 init.lf \$4;
#X obj 29 244 expr ((($f1 - $f2) / ($f2 - $f3)) * ($f4 - $f5)) + $f4
;
#X text 16 60 fixed by Jamie Bullock 2007;
#X connect 3 0 17 0;
#X connect 9 0 13 0;
#X connect 10 0 14 0;
#X connect 11 0 15 0;
#X connect 12 0 16 0;
#X connect 13 0 17 1;
#X connect 14 0 17 2;
#X connect 15 0 17 3;
#X connect 16 0 17 4;
#X connect 17 0 4 0;
#X restore 164 189 pd scala.linear;
#X obj 185 166 unpack f f f f;
#X obj 185 145 init list 0 1 3 0;
#X obj 161 249 t b b b;
#X msg 200 279 0;
#X connect 0 0 1 0;
#X connect 1 0 2 0;
#X connect 2 1 3 0;
#X connect 2 1 16 0;
#X connect 3 0 4 0;
#X connect 4 0 6 0;
#X connect 4 0 9 0;
#X connect 5 0 19 0;
#X connect 6 0 7 1;
#X connect 7 0 8 0;
#X connect 10 0 12 0;
#X connect 11 1 0 0;
#X connect 12 0 11 0;
#X connect 13 0 12 1;
#X connect 14 0 13 0;
#X connect 16 0 15 0;
#X connect 17 0 22 0;
#X connect 18 0 7 0;
#X connect 19 0 2 1;
#X connect 20 0 19 1;
#X connect 20 1 19 2;
#X connect 20 2 19 3;
#X connect 20 3 19 4;
#X connect 21 0 20 0;
#X connect 22 0 6 1;
#X connect 22 1 4 3;
#X connect 22 2 23 0;
#X connect 23 0 7 1;
#X restore 382 166 pd conta_attacks;
#N canvas 225 127 419 543 lista_de_ataques 0;
#X obj 193 397 list;
#X msg 234 404 bang reset;
#X obj 234 381 r \$0-inicio;
#X obj 124 421 list prepend;
#X obj 169 360 f 0;
#X obj 185 77 list;
#X msg 226 84 bang reset;
#X obj 226 61 r \$0-inicio;
#X obj 116 101 list prepend;
#X obj 116 35 r \$0-tempo_normal;
#X obj 112 161 list length;
#X obj 124 382 pack f f;
#X obj 124 360 f 0;
#X obj 95 134 list;
#X obj 45 96 r \$0-fim;
#X obj 45 117 del 10;
#X obj 74 301 packel;
#X obj 124 301 packel;
#X obj 139 254 counter;
#X obj 112 204 until;
#X obj 168 232 r \$0-inicio;
#X obj 139 276 + 1;
#X obj 112 225 t b b;
#X obj 74 258 list;
#X obj 112 181 - 1;
#X obj 124 322 t b f;
#X obj 103 455 list;
#X text 245 456 LISTA FINAL DE SLICES;
#X obj 138 455 s \$0-listafinal;
#X obj 103 501 outlet lista_final;
#X obj 46 421 r \$0-gospe;
#X connect 0 0 3 1;
#X connect 1 0 3 1;
#X connect 2 0 1 0;
#X connect 3 0 0 0;
#X connect 3 0 26 1;
#X connect 3 0 28 0;
#X connect 4 0 11 1;
#X connect 5 0 8 1;
#X connect 6 0 8 1;
#X connect 7 0 6 0;
#X connect 8 0 5 0;
#X connect 8 0 13 1;
#X connect 9 0 8 0;
#X connect 10 0 24 0;
#X connect 11 0 3 0;
#X connect 12 0 11 0;
#X connect 13 0 23 1;
#X connect 13 0 10 0;
#X connect 14 0 15 0;
#X connect 15 0 13 0;
#X connect 16 0 12 1;
#X connect 17 0 25 0;
#X connect 18 0 21 0;
#X connect 18 0 16 1;
#X connect 19 0 22 0;
#X connect 20 0 18 3;
#X connect 21 0 17 1;
#X connect 22 0 23 0;
#X connect 22 1 18 0;
#X connect 23 0 16 0;
#X connect 23 0 17 0;
#X connect 24 0 19 0;
#X connect 25 0 12 0;
#X connect 25 1 4 0;
#X connect 26 0 29 0;
#X connect 30 0 26 0;
#X restore 382 193 pd lista_de_ataques;
#X obj 108 186 bng 16 250 50 0 \$0-gospe \$0-gospein empty 17 7 0 10
-261234 -1 -1;
#X obj 382 230 outlet lista_de_slices;
#N canvas 670 358 312 291 salva_lista 0;
#X obj 165 234 textfile;
#X msg 237 195 clear;
#X obj 186 51 r \$0-listafinal;
#X obj 165 107 list split 2;
#X obj 199 130 list;
#X obj 165 74 list;
#X obj 40 30 r \$0-salva;
#X obj 40 57 t b b b;
#X obj 40 138 savepanel;
#X msg 40 195 write \$1 cr;
#X obj 40 161 makefilename %s.txt;
#X msg 165 195 add \$1 \$2;
#X connect 1 0 0 0;
#X connect 2 0 5 1;
#X connect 3 0 11 0;
#X connect 3 1 4 0;
#X connect 4 0 3 0;
#X connect 5 0 3 0;
#X connect 6 0 7 0;
#X connect 7 0 8 0;
#X connect 7 1 5 0;
#X connect 7 2 1 0;
#X connect 8 0 10 0;
#X connect 9 0 0 0;
#X connect 10 0 9 0;
#X connect 11 0 0 0;
#X restore 513 193 pd salva_lista;
#N canvas 116 36 431 190 init 0;
#X obj 40 61 s \$0-nomein;
#X obj 40 39 init symbol vazio;
#X obj 160 61 s \$0-sensibin;
#X obj 160 39 init 0.5;
#X obj 270 39 loadbang;
#X msg 270 125 \; pd dsp 1;
#X msg 270 66 \; pd dsp 0;
#X obj 270 103 delay 10;
#X text 342 71 bug chato;
#X obj 40 106 declare -path abs;
#X connect 1 0 0 0;
#X connect 3 0 2 0;
#X connect 4 0 6 0;
#X connect 4 0 7 0;
#X connect 7 0 5 0;
#X restore 382 89 pd init;
#N canvas 0 22 499 414 LEIA-ME 0;
#X text 46 73 - detecta ataques (bonk~) num arquivo de audio de acordo
com sensibilidade estabelecida \, e gera uma lista de slices \;;
#X text 46 103 - cada slice começa em um ataque e dura até o próximo
\;;
#X text 46 123 - os resultados são normalizados entre 0 e 1 (0 - início
do arquivo \, 1 - fim do arquivo);
#X text 46 173 - LIBS NECESSÁRIAS: cyclone \, zexy \, list-abs;
#X text 46 43 organic_attack (organic_abs 0.1);
#X text 46 327 brunorohde.wordpress.com;
#X text 250 357 http://www.gnu.org/copyleft/gpl.txt;
#X text 46 357 Distribuído sobre licença GPLv3 -;
#X text 47 232 TO DO: eliminar slices muito pequenos da lista;
#X text 47 247 TO DO: ajustador de offset para eliminar inicio e fim
;
#X text 46 313 brunorohde \, 2012;
#X restore 382 25 pd LEIA-ME;
#X text 18 135 abre arquivo;
#X text 48 160 analiza;
#X text 233 160 sensibilidade;
#X text 233 185 analizando (visor);
#X text 233 137 arquivo aberto;
#X text 33 211 cospe / salva lista;
#X text 168 211 | ataques encontrados;
#X connect 0 0 9 1;
#X connect 1 0 9 0;
#X connect 13 0 15 0;
#X coords 0 -1 1 1 126 80 2 100 130;
