#N canvas 269 75 822 595 10;
#X declare -path abs;
#X obj 88 319 s \$0-player;
#X obj 161 319 s \$0-saver;
#X obj 88 399 s \$0-player;
#X obj 161 399 s \$0-saver;
#X obj 88 479 s \$0-player;
#X obj 161 479 s \$0-saver;
#X obj 248 239 s \$0-player;
#X obj 321 239 s \$0-saver;
#X obj 248 319 s \$0-player;
#X obj 321 319 s \$0-saver;
#X obj 248 399 s \$0-player;
#X obj 321 399 s \$0-saver;
#X obj 248 479 s \$0-player;
#X obj 321 479 s \$0-saver;
#X obj 418 239 s \$0-player;
#X obj 491 239 s \$0-saver;
#X obj 418 319 s \$0-player;
#X obj 491 319 s \$0-saver;
#X obj 418 399 s \$0-player;
#X obj 491 399 s \$0-saver;
#X obj 418 479 s \$0-player;
#X obj 491 479 s \$0-saver;
#X obj 578 239 s \$0-player;
#X obj 651 239 s \$0-saver;
#X obj 578 319 s \$0-player;
#X obj 651 319 s \$0-saver;
#X obj 578 399 s \$0-player;
#X obj 651 399 s \$0-saver;
#X obj 578 479 s \$0-player;
#X obj 651 479 s \$0-saver;
#X obj 127 539 r \$0-player;
#X obj 127 562 outlet play a v;
#X obj 275 93 bng 25 250 50 0 empty empty empty 17 7 0 10 -258113 -1
-1;
#X obj 249 59 bng 25 250 50 0 empty empty empty 17 7 0 10 -4160 -1
-1;
#X obj 224 26 inlet caminho;
#N canvas 106 182 229 115 recebe 0;
#X obj 29 57 outlet;
#X obj 29 31 r \$0-textfileopen;
#X obj 143 57 outlet;
#X obj 143 31 r \$0-n14;
#X connect 1 0 0 0;
#X connect 3 0 2 0;
#X restore 287 193 pd recebe;
#N canvas 106 182 229 115 recebe 0;
#X obj 29 57 outlet;
#X obj 29 31 r \$0-textfileopen;
#X obj 143 57 outlet;
#X obj 143 31 r \$0-n15;
#X connect 1 0 0 0;
#X connect 3 0 2 0;
#X restore 457 193 pd recebe;
#N canvas 106 182 229 115 recebe 0;
#X obj 29 57 outlet;
#X obj 29 31 r \$0-textfileopen;
#X obj 143 57 outlet;
#X obj 143 31 r \$0-n16;
#X connect 1 0 0 0;
#X connect 3 0 2 0;
#X restore 617 193 pd recebe;
#N canvas 106 182 229 115 recebe 0;
#X obj 29 57 outlet;
#X obj 29 31 r \$0-textfileopen;
#X obj 143 57 outlet;
#X obj 143 31 r \$0-n9;
#X connect 1 0 0 0;
#X connect 3 0 2 0;
#X restore 127 273 pd recebe;
#N canvas 106 182 229 115 recebe 0;
#X obj 29 57 outlet;
#X obj 29 31 r \$0-textfileopen;
#X obj 143 57 outlet;
#X obj 143 31 r \$0-n10;
#X connect 1 0 0 0;
#X connect 3 0 2 0;
#X restore 287 273 pd recebe;
#N canvas 106 182 229 115 recebe 0;
#X obj 29 57 outlet;
#X obj 29 31 r \$0-textfileopen;
#X obj 143 57 outlet;
#X obj 143 31 r \$0-n11;
#X connect 1 0 0 0;
#X connect 3 0 2 0;
#X restore 457 273 pd recebe;
#N canvas 106 182 229 115 recebe 0;
#X obj 29 57 outlet;
#X obj 29 31 r \$0-textfileopen;
#X obj 143 57 outlet;
#X obj 143 31 r \$0-n12;
#X connect 1 0 0 0;
#X connect 3 0 2 0;
#X restore 617 273 pd recebe;
#N canvas 106 182 229 115 recebe 0;
#X obj 29 57 outlet;
#X obj 29 31 r \$0-textfileopen;
#X obj 143 57 outlet;
#X obj 143 31 r \$0-n5;
#X connect 1 0 0 0;
#X connect 3 0 2 0;
#X restore 127 353 pd recebe;
#N canvas 106 182 229 115 recebe 0;
#X obj 29 57 outlet;
#X obj 29 31 r \$0-textfileopen;
#X obj 143 57 outlet;
#X obj 143 31 r \$0-n6;
#X connect 1 0 0 0;
#X connect 3 0 2 0;
#X restore 287 353 pd recebe;
#N canvas 106 182 229 115 recebe 0;
#X obj 29 57 outlet;
#X obj 29 31 r \$0-textfileopen;
#X obj 143 57 outlet;
#X obj 143 31 r \$0-n7;
#X connect 1 0 0 0;
#X connect 3 0 2 0;
#X restore 457 353 pd recebe;
#N canvas 106 182 229 115 recebe 0;
#X obj 29 57 outlet;
#X obj 29 31 r \$0-textfileopen;
#X obj 143 57 outlet;
#X obj 143 31 r \$0-n8;
#X connect 1 0 0 0;
#X connect 3 0 2 0;
#X restore 617 353 pd recebe;
#N canvas 106 182 229 115 recebe 0;
#X obj 29 57 outlet;
#X obj 29 31 r \$0-textfileopen;
#X obj 143 57 outlet;
#X obj 143 31 r \$0-n1;
#X connect 1 0 0 0;
#X connect 3 0 2 0;
#X restore 127 433 pd recebe;
#N canvas 106 182 229 115 recebe 0;
#X obj 29 57 outlet;
#X obj 29 31 r \$0-textfileopen;
#X obj 143 57 outlet;
#X obj 143 31 r \$0-n2;
#X connect 1 0 0 0;
#X connect 3 0 2 0;
#X restore 287 433 pd recebe;
#N canvas 106 182 229 115 recebe 0;
#X obj 29 57 outlet;
#X obj 29 31 r \$0-textfileopen;
#X obj 143 57 outlet;
#X obj 143 31 r \$0-n3;
#X connect 1 0 0 0;
#X connect 3 0 2 0;
#X restore 457 433 pd recebe;
#N canvas 106 182 229 115 recebe 0;
#X obj 29 57 outlet;
#X obj 29 31 r \$0-textfileopen;
#X obj 143 57 outlet;
#X obj 143 31 r \$0-n4;
#X connect 1 0 0 0;
#X connect 3 0 2 0;
#X restore 617 433 pd recebe;
#X obj 88 239 s \$0-player;
#X obj 161 239 s \$0-saver;
#N canvas 106 182 229 115 recebe 0;
#X obj 29 57 outlet;
#X obj 29 31 r \$0-textfileopen;
#X obj 143 57 outlet;
#X obj 143 31 r \$0-n13;
#X connect 1 0 0 0;
#X connect 3 0 2 0;
#X restore 127 193 pd recebe;
#X obj 32 26 inlet lista_organic_attack;
#N canvas 766 187 295 362 distribui_lista 0;
#X obj 55 161 list split 2;
#X obj 89 183 list;
#X obj 124 257 f;
#X obj 170 187 unpack f f;
#X msg 170 218 set \$1;
#X msg 138 235 21;
#X obj 55 230 t l b;
#X obj 170 166 r \$0-notas;
#X obj 55 307 s \$0-textfileopen;
#X obj 55 13 inlet lista;
#X obj 55 283 list prepend;
#X obj 154 257 + 1;
#N canvas 188 382 236 280 list_invert 0;
#X obj 52 22 inlet;
#X obj 142 144 list;
#X obj 52 230 outlet;
#X obj 73 85 list split 2;
#X obj 107 108 list;
#X obj 73 166 list prepend;
#X obj 52 195 list;
#X obj 52 50 t b l b;
#X connect 0 0 7 0;
#X connect 1 0 5 1;
#X connect 3 0 5 0;
#X connect 3 1 4 0;
#X connect 4 0 3 0;
#X connect 5 0 1 0;
#X connect 5 0 6 1;
#X connect 6 0 2 0;
#X connect 7 0 6 0;
#X connect 7 1 3 0;
#X connect 7 2 5 1;
#X restore 55 55 pd list_invert;
#X obj 55 85 t l b b;
#X connect 0 0 6 0;
#X connect 0 1 1 0;
#X connect 1 0 0 0;
#X connect 2 0 10 1;
#X connect 2 0 11 0;
#X connect 3 0 4 0;
#X connect 4 0 5 0;
#X connect 5 0 2 1;
#X connect 6 0 10 0;
#X connect 6 1 2 0;
#X connect 7 0 3 0;
#X connect 9 0 12 0;
#X connect 10 0 8 0;
#X connect 11 0 2 1;
#X connect 12 0 13 0;
#X connect 13 0 0 0;
#X connect 13 1 5 0;
#X connect 13 2 10 1;
#X restore 32 54 pd distribui_lista;
#N canvas 472 234 416 201 LEIA-ME 0;
#X text 35 36 -- organic_abs 0.1 - abstrações orgânicas - 2012;
#X text 35 136 - licença GPLv3 - http://www.gnu.org/copyleft/gpl.txt
;
#X text 35 66 - conjunto de abstrações para controle de áudio e vídeo
\, desenvolvido por brunorohde (brunorohde.wordpress.com / brunorohde@gmail.com)
\, membro do Grupo de Pesquisa Poéticas Tecnológicas - IHAC/UFBA;
#X restore 32 109 pd LEIA-ME;
#N canvas 23 32 383 279 modulo 0;
#X obj 24 24 inlet caminho;
#X obj 134 24 inlet bang_abre;
#X obj 256 24 inlet bang_salva;
#N canvas 347 260 367 291 saver 0;
#X obj 130 25 inlet;
#X obj 149 106 s selio_flush;
#X obj 173 229 textfile;
#X msg 276 182 clear;
#X obj 44 154 savepanel;
#X msg 44 182 write \$1.txt cr;
#X obj 130 67 t b b b;
#X msg 276 212 print;
#X msg 173 182 add \$1 \$2 \$3;
#X obj 173 154 r \$0-saver;
#X obj 276 84 t b;
#X obj 44 128 del 500;
#X connect 0 0 6 0;
#X connect 3 0 2 0;
#X connect 4 0 5 0;
#X connect 5 0 2 0;
#X connect 6 0 11 0;
#X connect 6 1 1 0;
#X connect 6 2 10 0;
#X connect 7 0 2 0;
#X connect 8 0 2 0;
#X connect 9 0 8 0;
#X connect 10 0 3 0;
#X connect 11 0 4 0;
#X restore 256 55 pd saver;
#X obj 161 206 textfile;
#X obj 134 55 openpanel;
#X msg 134 100 read \$1 cr;
#X obj 134 125 t b a;
#X msg 203 166 rewind;
#X obj 252 189 until;
#X msg 252 166 16;
#X obj 203 142 t b b;
#X obj 161 243 s \$0-textfileopen;
#X obj 24 83 t a;
#X connect 0 0 13 0;
#X connect 1 0 5 0;
#X connect 2 0 3 0;
#X connect 4 0 12 0;
#X connect 5 0 6 0;
#X connect 6 0 7 0;
#X connect 7 0 11 0;
#X connect 7 1 4 0;
#X connect 8 0 4 0;
#X connect 9 0 4 0;
#X connect 10 0 9 0;
#X connect 11 0 10 0;
#X connect 11 1 8 0;
#X connect 13 0 6 0;
#X restore 224 130 pd modulo;
#X text 282 62 ABRE ARRANJO;
#X text 308 96 SALVA ARRANJO;
#X text 232 562 saída dos controles para organic_audio e organic_video
;
#X obj 422 45 cnv 15 370 100 empty empty empty 20 12 0 14 -232576 -66577
0;
#N canvas 0 22 515 246 distribui_nomes 0;
#X obj 33 201 s \$0-n1;
#X obj 93 201 s \$0-n2;
#X obj 153 201 s \$0-n3;
#X obj 213 201 s \$0-n4;
#X obj 33 171 s \$0-n5;
#X obj 93 171 s \$0-n6;
#X obj 153 171 s \$0-n7;
#X obj 213 171 s \$0-n8;
#X obj 33 141 s \$0-n9;
#X obj 93 141 s \$0-n10;
#X obj 153 141 s \$0-n11;
#X obj 213 141 s \$0-n12;
#X obj 33 111 s \$0-n13;
#X obj 93 111 s \$0-n14;
#X obj 153 111 s \$0-n15;
#X obj 213 111 s \$0-n16;
#X obj 33 45 entre;
#X obj 33 77 unpack f f f f f f f f f f f f f f f f;
#X obj 33 23 inlet;
#X obj 154 40 s \$0-notas;
#X connect 16 0 17 0;
#X connect 17 0 0 0;
#X connect 17 1 1 0;
#X connect 17 2 2 0;
#X connect 17 3 3 0;
#X connect 17 4 4 0;
#X connect 17 5 5 0;
#X connect 17 6 6 0;
#X connect 17 7 7 0;
#X connect 17 8 8 0;
#X connect 17 9 9 0;
#X connect 17 10 10 0;
#X connect 17 11 11 0;
#X connect 17 12 12 0;
#X connect 17 13 13 0;
#X connect 17 14 14 0;
#X connect 17 15 15 0;
#X connect 18 0 16 0;
#X connect 18 0 19 0;
#X restore 432 115 pd distribui_nomes;
#X msg 432 83 21 36;
#X msg 482 83 37 52;
#X msg 532 83 53 68;
#X msg 582 83 69 84;
#X obj 432 58 loadbang;
#X text 627 82 conjuntos de 16 notas MIDI;
#X text 627 98 (nota inicial e final);
#X text 572 50 NOTAS MIDI;
#X obj 127 218 selio;
#X obj 287 218 selio;
#X obj 127 458 selio;
#X obj 457 218 selio;
#X obj 617 218 selio;
#X obj 127 298 selio;
#X obj 287 298 selio;
#X obj 457 298 selio;
#X obj 617 298 selio;
#X obj 127 378 selio;
#X obj 287 378 selio;
#X obj 457 378 selio;
#X obj 617 378 selio;
#X obj 287 458 selio;
#X obj 457 458 selio;
#X obj 617 458 selio;
#N canvas 138 123 210 101 init 0;
#X obj 47 39 declare -path abs;
#X restore 32 136 pd init;
#X text 69 445 slice 1;
#X text 229 445 slice 2;
#X text 399 445 slice 3;
#X text 559 445 slice 4;
#X text 69 365 slice 5;
#X text 229 365 slice 6;
#X text 399 365 slice 7;
#X text 559 365 slice 8;
#X text 69 285 slice 9;
#X text 229 285 slice 10;
#X text 399 285 slice 11;
#X text 559 285 slice 12;
#X text 69 205 slice 13;
#X text 229 205 slice 14;
#X text 399 205 slice 15;
#X text 559 205 slice 16;
#X connect 30 0 31 0;
#X connect 32 0 56 2;
#X connect 33 0 56 1;
#X connect 34 0 56 0;
#X connect 35 0 71 0;
#X connect 35 1 71 1;
#X connect 36 0 73 0;
#X connect 36 1 73 1;
#X connect 37 0 74 0;
#X connect 37 1 74 1;
#X connect 38 0 75 0;
#X connect 38 1 75 1;
#X connect 39 0 76 0;
#X connect 39 1 76 1;
#X connect 40 0 77 0;
#X connect 40 1 77 1;
#X connect 41 0 78 0;
#X connect 41 1 78 1;
#X connect 42 0 79 0;
#X connect 42 1 79 1;
#X connect 43 0 80 0;
#X connect 43 1 80 1;
#X connect 44 0 81 0;
#X connect 44 1 81 1;
#X connect 45 0 82 0;
#X connect 45 1 82 1;
#X connect 46 0 72 0;
#X connect 46 1 72 1;
#X connect 47 0 83 0;
#X connect 47 1 83 1;
#X connect 48 0 84 0;
#X connect 48 1 84 1;
#X connect 49 0 85 0;
#X connect 49 1 85 1;
#X connect 52 0 70 0;
#X connect 52 1 70 1;
#X connect 53 0 54 0;
#X connect 62 0 61 0;
#X connect 63 0 61 0;
#X connect 64 0 61 0;
#X connect 65 0 61 0;
#X connect 66 0 62 0;
#X connect 70 0 50 0;
#X connect 70 1 51 0;
#X connect 71 0 6 0;
#X connect 71 1 7 0;
#X connect 72 0 4 0;
#X connect 72 1 5 0;
#X connect 73 0 14 0;
#X connect 73 1 15 0;
#X connect 74 0 22 0;
#X connect 74 1 23 0;
#X connect 75 0 0 0;
#X connect 75 1 1 0;
#X connect 76 0 8 0;
#X connect 76 1 9 0;
#X connect 77 0 16 0;
#X connect 77 1 17 0;
#X connect 78 0 24 0;
#X connect 78 1 25 0;
#X connect 79 0 2 0;
#X connect 79 1 3 0;
#X connect 80 0 10 0;
#X connect 80 1 11 0;
#X connect 81 0 18 0;
#X connect 81 1 19 0;
#X connect 82 0 26 0;
#X connect 82 1 27 0;
#X connect 83 0 12 0;
#X connect 83 1 13 0;
#X connect 84 0 20 0;
#X connect 84 1 21 0;
#X connect 85 0 28 0;
#X connect 85 1 29 0;
